<svg id="Layer_1" data-name="Layer 1" xmlns="http://www.w3.org/2000/svg" viewBox="0 0 160.137 184.91"><defs><style>.cls-1{fill:#b3c143;fill-opacity:0.5;stroke:#b3c143;stroke-miterlimit:10;stroke-width:2px;stroke-dasharray:5 5;opacity:0.5;}.cls-2{fill:#42591e;}.cls-3{fill:#c2cc49;}</style></defs><title>product-feature-4</title><polygon class="cls-1" points="159.137 138.105 80.068 183.755 1 138.105 1 46.805 80.068 1.155 159.137 46.805 159.137 138.105"/><path class="cls-2" d="M85.939,96.536v15.876l14.544-.053v23.015l-29.834-.053V96.589ZM74.8,107.884v4.209l5.168,0.053V107.83Zm18.913,8.524L74.8,116.354v4.315l18.913-.053v-4.209Zm0,12.733v-4.209L74.8,124.878v4.315Zm6.766-21.843-9.43-.053V96.589Z" transform="translate(0 0)"/><polygon class="cls-2" points="103.554 87.971 107.06 91.477 99.174 99.363 103.332 104.085 105.096 106.089 113.384 97.801 116.953 101.37 118.142 86.782 103.554 87.971"/><polygon class="cls-2" points="61.48 92.666 64.986 89.159 50.398 87.97 51.587 102.558 55.156 98.989 65.555 109.389 67.389 107.555 67.389 98.575 61.48 92.666"/><path class="cls-3" d="M48.2,93.1a6.469,6.469,0,0,1-.975.3q-0.618.148-1.535,0.3a9.6,9.6,0,0,1-2.036.089,9.6,9.6,0,0,1-2.036-.089q-0.916-.147-1.565-0.3a6.319,6.319,0,0,1-1-.3,0.446,0.446,0,0,0-.354-0.089v4.781a0.715,0.715,0,0,0,.325.236,7.861,7.861,0,0,0,.944.413,9.309,9.309,0,0,0,1.535.413,15.2,15.2,0,0,0,2.154.236,15,15,0,0,0,2.1-.236,9.4,9.4,0,0,0,1.535-.413,8.1,8.1,0,0,0,.944-0.413,0.715,0.715,0,0,0,.324-0.236V93.011A0.446,0.446,0,0,0,48.2,93.1Z" transform="translate(0 0)"/><path class="cls-3" d="M39.792,68.071a5.664,5.664,0,0,0,1.742,1.181,4.588,4.588,0,0,0,2.125.384,4.593,4.593,0,0,0,2.125-.384,5.58,5.58,0,0,0,2.923-2.922,5.221,5.221,0,0,0,.442-2.125,5.164,5.164,0,0,0-.442-2.155,6.224,6.224,0,0,0-1.181-1.741,4.757,4.757,0,0,0-1.742-1.151,6.962,6.962,0,0,0-2.125-.443,6.949,6.949,0,0,0-2.125.443,4.748,4.748,0,0,0-1.742,1.151,6.224,6.224,0,0,0-1.181,1.741,5.164,5.164,0,0,0-.442,2.155,5.221,5.221,0,0,0,.442,2.125A5.687,5.687,0,0,0,39.792,68.071Z" transform="translate(0 0)"/><path class="cls-3" d="M58,65.119a4.959,4.959,0,0,0,1.358.915,3.344,3.344,0,0,0,1.653.3,3.5,3.5,0,0,0,1.682-.3,4.836,4.836,0,0,0,1.388-.915A3.861,3.861,0,0,0,65,63.761,4.523,4.523,0,0,0,65,60.4a4.745,4.745,0,0,0-.916-1.358,3.641,3.641,0,0,0-1.388-.915,5.972,5.972,0,0,0-1.682-.354,5.637,5.637,0,0,0-1.653.354A3.686,3.686,0,0,0,58,59.039a5.264,5.264,0,0,0-.944,1.358,4.168,4.168,0,0,0,0,3.365A4.192,4.192,0,0,0,58,65.119Z" transform="translate(0 0)"/><path class="cls-3" d="M28.812,85.278a2.548,2.548,0,0,1-.56.059,4.048,4.048,0,0,0-.649.059q-0.885-.058-1.594-0.148a7.735,7.735,0,0,1-1.211-.236c-0.334-.1-0.6-0.167-0.8-0.207a0.389,0.389,0,0,1-.3-0.118v3.247c0-.039.089,0,0.265,0.118a2.912,2.912,0,0,0,.738.325q0.472,0.148,1.211.325a5.684,5.684,0,0,0,1.682.118,1.781,1.781,0,0,0,.649,0,3.05,3.05,0,0,1,.59-0.059,1.507,1.507,0,0,0,.531-0.089,1.332,1.332,0,0,1,.472-0.089V85.1a1.1,1.1,0,0,1-.5.118A2.5,2.5,0,0,0,28.812,85.278Z" transform="translate(0 0)"/><path class="cls-3" d="M30.613,59.039a5.016,5.016,0,0,0-1.358-.915,3.359,3.359,0,0,0-1.653-.3,3.511,3.511,0,0,0-1.682.3,4.844,4.844,0,0,0-1.388.915,3.856,3.856,0,0,0-.916,1.358,4.429,4.429,0,0,0-.324,1.682,4.148,4.148,0,0,0,.324,1.682,4.709,4.709,0,0,0,.916,1.358,3.621,3.621,0,0,0,1.388.915,5.9,5.9,0,0,0,1.682.354,5.576,5.576,0,0,0,1.653-.354,3.69,3.69,0,0,0,1.358-.915,5.273,5.273,0,0,0,.944-1.358,3.839,3.839,0,0,0,.354-1.682,4.1,4.1,0,0,0-.354-1.682A4.22,4.22,0,0,0,30.613,59.039Z" transform="translate(0 0)"/><path class="cls-3" d="M62.843,69.989a13.57,13.57,0,0,1-1.83.236q-0.531-.058-1.034-0.118a5.268,5.268,0,0,1-.973-0.207c-0.316-.1-0.63-0.207-0.944-0.325a3.777,3.777,0,0,1-.885-0.472l0.236,1.712v10.8h0.059a2.469,2.469,0,0,0,.767.236,7.615,7.615,0,0,1,.856.177,3.491,3.491,0,0,0,.914.118,9.293,9.293,0,0,1,1,.059,14.57,14.57,0,0,0,2.6-.325,10.738,10.738,0,0,0,2.036-.649,12.8,12.8,0,0,0,1.3-.649,1.286,1.286,0,0,0,.443-0.325V67.274l-0.177-.059a8.414,8.414,0,0,1-1.269,1.24A10.153,10.153,0,0,1,64.5,69.4,5.9,5.9,0,0,1,62.843,69.989Z" transform="translate(0 0)"/><path class="cls-3" d="M28.842,70.048a2.358,2.358,0,0,0-.62.089,1.329,1.329,0,0,1-.619.03,5.182,5.182,0,0,1-1.83-.207,16.017,16.017,0,0,1-1.653-.59,5.4,5.4,0,0,1-1.447-.915q-0.678-.589-1.269-1.181l-0.177-.059v13.1a0.952,0.952,0,0,1,.443.266,5.563,5.563,0,0,0,1.3.649q0.855,0.325,2.036.649a8.417,8.417,0,0,0,2.6.266,1.949,1.949,0,0,0,.59.03c0.2-.019.383-0.03,0.561-0.03a1.959,1.959,0,0,0,.56-0.089,1.866,1.866,0,0,1,.531-0.089V70.757l0.177-1a3.4,3.4,0,0,0-.59.177A1.569,1.569,0,0,1,28.842,70.048Z" transform="translate(0 0)"/><path class="cls-3" d="M48,85.569l2.58,0.21,1.228,0.1V70.816l-0.3-.059a8.382,8.382,0,0,1-1.594,1.535,16.316,16.316,0,0,1-1.86,1.181,7.6,7.6,0,0,1-2.1.767,14.612,14.612,0,0,1-2.3.3,14.58,14.58,0,0,1-2.3-.3,8.039,8.039,0,0,1-2.125-.767,13.428,13.428,0,0,1-1.859-1.181,8.842,8.842,0,0,1-1.565-1.535l-0.3.059V87.344a2.135,2.135,0,0,0,.59.413,15.772,15.772,0,0,0,1.653.826,14.544,14.544,0,0,0,2.568.826,16.9,16.9,0,0,0,3.335.413,16.44,16.44,0,0,0,3.306-.413c0.469-.113.9-0.235,1.316-0.366l-0.073-.9Z" transform="translate(0 0)"/><path class="cls-3" d="M130.767,65.737a15.654,15.654,0,0,1-1.795,1.738,9.981,9.981,0,0,1-2.075,1.318,12.526,12.526,0,0,1-2.355.841,10.942,10.942,0,0,1-5.159,0,12.479,12.479,0,0,1-2.355-.841,9.932,9.932,0,0,1-2.075-1.318,15.577,15.577,0,0,1-1.795-1.738h-0.28V84.3c0.353,0.23.7,0.429,1.042,0.622l4.045-.33,2.58-.21L120.338,86.9c0.525,0.049,1.059.088,1.624,0.088a15.253,15.253,0,0,0,3.7-.421,20.293,20.293,0,0,0,2.888-.925,15.691,15.691,0,0,0,2.5-1.346V65.737h-0.28Z" transform="translate(0 0)"/><path class="cls-3" d="M119.578,96.272a14.575,14.575,0,0,0,4.768,0,11.514,11.514,0,0,0,1.737-.449,6.318,6.318,0,0,0,1.374-.7V90.58a14.323,14.323,0,0,1-1.487.449q-0.7.168-1.737,0.308a16.98,16.98,0,0,1-2.272.14,17.3,17.3,0,0,1-1.988-.113l-0.4,4.907h0Z" transform="translate(0 0)"/><path class="cls-3" d="M117.644,62.737a6.956,6.956,0,0,0,1.934,1.318,5.882,5.882,0,0,0,4.768,0,6.956,6.956,0,0,0,1.934-1.318A5.82,5.82,0,0,0,127.6,60.8a6.11,6.11,0,0,0,.476-2.411,5.978,5.978,0,0,0-.476-2.355,6.157,6.157,0,0,0-1.318-1.963,6.253,6.253,0,0,0-1.934-1.318,6.2,6.2,0,0,0-4.768,0,6.253,6.253,0,0,0-1.934,1.318,6.157,6.157,0,0,0-1.318,1.963,5.978,5.978,0,0,0-.476,2.355,6.11,6.11,0,0,0,.476,2.411A5.82,5.82,0,0,0,117.644,62.737Z" transform="translate(0 0)"/></svg>