<?xml version="1.0" encoding="utf-8"?>
<!-- Generator: Adobe Illustrator 19.1.0, SVG Export Plug-In . SVG Version: 6.00 Build 0)  -->
<svg version="1.1" id="Layer_1" xmlns="http://www.w3.org/2000/svg" xmlns:xlink="http://www.w3.org/1999/xlink" x="0px" y="0px"
	 viewBox="0 0 160.1367 184.90993" style="enable-background:new 0 0 160.1367 184.90993;" xml:space="preserve">
<style type="text/css">
	.st0{opacity:0.5;}
	.st1{fill:#B3C143;}
	.st2{fill:#42591E;}
</style>
<g>
	<g class="st0">
		<path class="st1" d="M80.54467,1.76188c0,0-0.01675,0.00967-0.04822,0.02786l-0.0007,0.0004
			c-0.01566,0.00903-0.03491,0.02017-0.05756,0.03323l-0.00122,0.0007c-0.01117,0.00644-0.02313,0.01334-0.03586,0.02069
			L80.40005,1.8454c-0.0062,0.00357-0.0126,0.00726-0.01913,0.01105L80.3796,1.85718
			c-0.00262,0.00153-0.00537,0.00311-0.00806,0.00467l-0.00464,0.00266L80.36678,1.8646l-0.01553,0.00897
			c-0.0007,0.0004-0.00131,0.00076-0.00201,0.00116L80.3457,1.87678c-0.00095,0.00055-0.00189,0.0011-0.00287,0.00165
			l-0.00281,0.00162c-0.00058,0.00034-0.00122,0.0007-0.00183,0.00107l-0.00433,0.0025
			c-0.00104,0.00058-0.00223,0.00128-0.00327,0.00189l-0.00183,0.00104c-0.00085,0.00052-0.00174,0.00101-0.00259,0.0015
			L80.30614,1.8996c-0.00134,0.00079-0.00284,0.00165-0.00421,0.00241l-0.00372,0.00217
			c-0.00281,0.00162-0.00555,0.0032-0.00842,0.00485l-0.00595,0.00345c-0.00034,0.00018-0.0007,0.0004-0.00104,0.00058
			l-0.00497,0.0029c-0.00043,0.00024-0.00067,0.00037-0.00107,0.00061l-0.05167,0.02982
			c-0.00116,0.00067-0.00235,0.00137-0.00354,0.00204l-4.00702,2.31348l1,1.73203l4.33014-2.5L80.54467,1.76188L80.54467,1.76188
			L80.54467,1.76188z M71.88442,6.76188c0,0-0.17834,0.103-0.46265,0.26712l-0.00226,0.00131
			c-0.01593,0.00919-0.03223,0.01859-0.0488,0.02817l-0.00009,0.00003c-0.00497,0.0029-0.00986,0.00571-0.01492,0.00864
			l-0.00555,0.0032c-0.00464,0.00269-0.00919,0.00531-0.01385,0.008l-0.00049,0.00031
			c-0.00549,0.00314-0.01099,0.00632-0.01654,0.00952L71.3175,7.08921c-0.0051,0.00293-0.01022,0.00589-0.01538,0.00888
			l-0.00381,0.0022c-0.00159,0.00092-0.0033,0.00189-0.00491,0.00284l-0.02121,0.01224
			c-0.00153,0.00089-0.00327,0.00189-0.00482,0.00278l-0.00595,0.00345c-0.00153,0.00089-0.00308,0.00177-0.00464,0.00266
			l-3.70248,2.13766l1,1.73203l4.33014-2.5L71.88442,6.76188L71.88442,6.76188z M63.22417,11.76188
			c0,0-0.34149,0.19717-0.83282,0.48083L62.38738,12.245c-0.01294,0.00748-0.02615,0.01511-0.03931,0.02271l-0.00031,0.00018
			c-0.01273,0.00732-0.02533,0.01462-0.03824,0.02206l-0.00702,0.00406c-0.01202,0.00693-0.02417,0.01395-0.03638,0.021
			l-0.00656,0.00378c-0.00494,0.00287-0.0101,0.00583-0.01505,0.0087l-0.0498,0.02875
			c-0.00195,0.00113-0.00375,0.00217-0.00571,0.0033l-3.29498,1.90237l1,1.73203l4.33014-2.5L63.22417,11.76188L63.22417,11.76188z
			 M54.56393,16.76188c0,0-0.51138,0.29526-1.18277,0.68286l-0.00085,0.00052c-0.01501,0.00867-0.03003,0.01733-0.04523,0.02609
			l-0.00079,0.00046c-0.01483,0.00858-0.02975,0.01718-0.04471,0.02582l-0.00256,0.0015
			c-0.01413,0.00815-0.02823,0.0163-0.04248,0.02451l-0.00909,0.00525c-0.00037,0.00021-0.0007,0.00043-0.00107,0.00064
			l-0.1058,0.06107c-0.00024,0.00015-0.00064,0.0004-0.00089,0.00052l-2.89389,1.67081l1,1.73203l4.33014-2.5L54.56393,16.76188
			L54.56393,16.76188z M45.90368,21.76188c0,0-0.71329,0.41183-1.56094,0.90121l-0.00458,0.00262
			c-0.03125,0.01807-0.06256,0.03613-0.09412,0.05435l-0.00388,0.00223c-0.0076,0.00439-0.01511,0.00873-0.02271,0.01312
			l-0.00073,0.00043c-0.00363,0.00211-0.00739,0.00427-0.01102,0.00635l-0.00476,0.00275
			c-0.00104,0.00061-0.00204,0.00119-0.00308,0.0018l-2.62433,1.51517l1,1.73203l4.33014-2.5L45.90368,21.76188L45.90368,21.76188z
			 M37.2434,26.76191l-4.33011,2.5l1,1.73203l4.33011-2.5l-1-1.73206V26.76191z M28.58315,31.76191l-4.33012,2.5l1,1.73203
			l4.33011-2.5l-1-1.73206L28.58315,31.76191z M19.92289,36.76191l-4.33011,2.49997l1,1.73206l4.33011-2.5l-1-1.73206V36.76191z
			 M11.26264,41.76191l-4.33012,2.5l0.99998,1.73203l4.33014-2.5l-1-1.73206V41.76191z M2.60239,46.76191L1.5183,47.38779
			c-0.00063,0.00037-0.00124,0.00073-0.00185,0.00107l-0.00008,0.00006c-0.00076,0.00043-0.00151,0.00085-0.00226,0.00128
			l-0.00056,0.00034c-0.00159,0.00092-0.0031,0.0018-0.00458,0.00266l-0.00027,0.00015
			c-0.00145,0.00082-0.00284,0.00165-0.0042,0.00241l-0.00067,0.0004c-0.00282,0.00162-0.00545,0.00314-0.00787,0.00455
			L1.4958,47.40079c-0.00241,0.0014-0.00461,0.00266-0.00658,0.00381l-0.00041,0.00021
			c-0.00813,0.0047-0.01247,0.0072-0.01247,0.0072l0,0l0,0v3.69977h2v-2.54507l0.12605-0.07278l-0.12605-0.21832v-0.86359h-0.4986
			l-0.37535-0.65015V46.76191z M3.47634,56.11179h-2v5h2V56.11179L3.47634,56.11179z M3.47634,66.11179h-2v5h2V66.11179
			L3.47634,66.11179z M3.47634,76.11179h-2v5h2V76.11179L3.47634,76.11179z M3.47634,86.11179h-2v5h2V86.11179L3.47634,86.11179z
			 M3.47634,96.11179h-2v5h2V96.11179L3.47634,96.11179z M3.47634,106.11179h-2v5h2V106.11179L3.47634,106.11179z
			 M3.47634,116.11179h-2v5h2V116.11179L3.47634,116.11179z M3.47634,126.11179h-2v4.99999h2V126.11179L3.47634,126.11179z
			 M3.47634,136.11179h-2v2.60049l0,0c0,0,0.03246,0.01874,0.08922,0.05151l0.00015,0.00009
			c0.0567,0.03271,0.13759,0.07944,0.2347,0.1355l0.00127,0.00073c0.09682,0.05588,0.20979,0.12112,0.33064,0.19089l0.00273,0.00159
			c0.06036,0.03485,0.12282,0.07089,0.18617,0.10748l0.00093,0.00052c0.0314,0.01816,0.06305,0.03641,0.09482,0.05475
			l0.00223,0.00128c0.01529,0.00882,0.03052,0.01764,0.04585,0.02649l0.00362,0.00208
			c0.0031,0.0018,0.00636,0.00366,0.00946,0.00546l0.0018,0.00104c0.00311,0.0018,0.00633,0.00366,0.00945,0.00546l0.00304,0.00174
			c0.00342,0.00198,0.00677,0.00394,0.01019,0.00589l0.00153,0.00089c0.00151,0.00089,0.00308,0.00177,0.00459,0.00266
			l0.00833,0.00479c0.0033,0.00192,0.00653,0.00378,0.00983,0.00571l0.00127,0.0007
			c0.00298,0.00174,0.00594,0.00345,0.00893,0.00516l0.00485,0.00281c0.00685,0.00397,0.01369,0.0079,0.02052,0.01184
			l0.00345,0.00201c0.00735,0.00424,0.01469,0.00848,0.02203,0.0127l0.00095,0.00055
			c0.00728,0.00421,0.01456,0.00842,0.02182,0.0126l0.00391,0.00226c0.00133,0.00076,0.00252,0.00146,0.00385,0.00223
			l0.00046,0.00024c0.00594,0.00345,0.01175,0.00681,0.01768,0.01022l0.0005,0.00031
			c0.00787,0.00455,0.01575,0.00906,0.02361,0.01361l0.00081,0.00049c0.01521,0.00876,0.0304,0.01752,0.0455,0.02625
			l0.00459,0.00266c0.00099,0.00058,0.00197,0.00113,0.00296,0.00171l0.00076,0.00046
			c0.0139,0.00803,0.02776,0.01602,0.04155,0.02399H2.7569c0.01515,0.00876,0.03026,0.01749,0.04526,0.02615l0.00369,0.00211
			c0.00722,0.00418,0.01439,0.00833,0.02156,0.01245l0.00035,0.00021c0.01939,0.0112,0.03853,0.02225,0.05757,0.03323
			l0.00026,0.00015c0.00191,0.0011,0.00386,0.00223,0.00577,0.00333l0.01193,0.0069c0.0013,0.00073,0.00255,0.00146,0.00386,0.00223
			l0.00171,0.00098c0.00313,0.00183,0.00621,0.0036,0.00934,0.0054l0.00314,0.0018c0.00653,0.00378,0.01314,0.0076,0.01962,0.01135
			l0.00175,0.00101c0.0146,0.00842,0.02905,0.01675,0.04337,0.02502l0.00125,0.00073c0.0139,0.00803,0.02777,0.01602,0.04137,0.0239
			l0.00229,0.00131c0.00665,0.00385,0.01332,0.00769,0.0199,0.01147l0.00143,0.00082c0.0031,0.0018,0.00609,0.00354,0.00917,0.00531
			l0.00119,0.00067c0.00203,0.00119,0.00404,0.00235,0.00606,0.00351l0.00555,0.0032
			c0.00098,0.00058,0.00203,0.00116,0.00301,0.00174l0.00069,0.0004c0.00119,0.0007,0.0023,0.00131,0.00349,0.00201l0.00221,0.00128
			c0.00291,0.00168,0.00572,0.0033,0.00864,0.00497l0.00165,0.00098c0.00468,0.00269,0.00937,0.0054,0.01399,0.00806
			l0.00124,0.00073c0.00101,0.00058,0.00201,0.00116,0.00302,0.00174l0.00279,0.00162
			c0.0027,0.00156,0.00548,0.00314,0.00816,0.0047l0.00098,0.00055c0.00269,0.00156,0.00531,0.00308,0.00797,0.00461
			l0.00345,0.00198c0.00084,0.00049,0.00159,0.00092,0.00241,0.0014l0.00131,0.00076
			c0.0011,0.00061,0.00226,0.00128,0.00334,0.00192l0.00343,0.00198c0.00009,0.00006,0.00029,0.00015,0.0004,0.00021
			l0.01904,0.01102c0.00052,0.00027,0.00093,0.00052,0.00143,0.00082l0.0076,0.00439
			c0.00267,0.00153,0.00531,0.00305,0.00795,0.00458l0.00063,0.00037c0.0024,0.00137,0.00487,0.00281,0.00725,0.00418
			l0.00386,0.00223c0.00079,0.00046,0.00148,0.00085,0.00227,0.00131l0.00137,0.00079
			c0.00078,0.00046,0.00162,0.00095,0.00241,0.0014l0.00241,0.00137c0.00259,0.0015,0.0052,0.00302,0.00778,0.00449l0.00172,0.00101
			c0.00243,0.0014,0.00484,0.00281,0.00725,0.00418l0.00275,0.00159c0.00052,0.00031,0.00105,0.00061,0.00159,0.00092
			l0.01178,0.00681c0.00056,0.00034,0.00114,0.00067,0.00171,0.00101l0.00328,0.00186
			c0.00043,0.00024,0.0009,0.00055,0.00133,0.00079l0.00284,0.00162c0.00038,0.00021,0.00066,0.0004,0.00102,0.00061
			l0.00394,0.00226c0.00027,0.00015,0.00052,0.00031,0.00079,0.00046l0.00778,0.00449
			c0.0006,0.00037,0.00128,0.00076,0.00188,0.0011l0.0018,0.00104c0.00055,0.00031,0.00116,0.00067,0.00171,0.00098l0.00351,0.00204
			c0.00209,0.00119,0.00426,0.00244,0.00633,0.00363l0.00114,0.00067c0.00203,0.00116,0.00407,0.00235,0.00607,0.00351
			l0.00359,0.00208c0.00052,0.00031,0.00111,0.00064,0.00165,0.00095l0.00235,0.00134
			c0.00044,0.00027,0.00081,0.00049,0.00125,0.00073l0.0154,0.00888c0.00052,0.00031,0.00107,0.00064,0.00159,0.00092
			l0.00204,0.00119c0.00197,0.00113,0.004,0.00232,0.00594,0.00342l0.00302,0.00177c0.0022,0.00125,0.00432,0.00247,0.00648,0.00372
			l0.00006,0.00003c0.00229,0.00134,0.00453,0.00262,0.00681,0.00394l0.0042,0.00241
			c0.0013,0.00076,0.00264,0.00153,0.00394,0.00229l0.00117,0.00067c0.00198,0.00116,0.00395,0.00229,0.00592,0.00342
			L3.3482,139.793c0.00349,0.00201,0.00697,0.00403,0.01041,0.00601l0.00575,0.0033
			c0.00015,0.00009,0.00032,0.00021,0.00047,0.00027l0.00237,0.00137c0.00069,0.0004,0.00133,0.00076,0.00201,0.00116
			l0.00102,0.00061c0.00696,0.004,0.01366,0.00787,0.02028,0.01169l0.00241,0.0014c0.00403,0.00232,0.00797,0.00458,0.01186,0.00684
			l0.00021,0.00012c0.0041,0.00238,0.00812,0.0047,0.01208,0.00699l0.00203,0.00116
			c0.00386,0.00223,0.00769,0.00446,0.01141,0.00659l0.00018,0.00012c0.00375,0.00217,0.00743,0.00427,0.01103,0.00635
			l0.00185,0.00107c0.00337,0.00195,0.00659,0.00381,0.00983,0.00568l0.00134,0.00079
			c0.00122,0.0007,0.00243,0.00137,0.00363,0.00208l0.01303,0.00754c0.00043,0.00024,0.00081,0.00046,0.00124,0.0007
			l0.00032,0.00018c0.00061,0.00037,0.00122,0.0007,0.00183,0.00107l0.00143,0.00082
			c0.00133,0.00076,0.00262,0.00153,0.00392,0.00226l0.00061,0.00037c0.00125,0.0007,0.00252,0.00143,0.00372,0.00214
			l0.00186,0.00107c0.00009,0.00006,0.00018,0.00012,0.00027,0.00018l0.00125,0.0007c0.00061,0.00037,0.00119,0.0007,0.0018,0.00104
			l0.00035,0.00021c0.00127,0.00073,0.00256,0.00146,0.0038,0.0022l0.00102,0.00058
			c0.00269,0.00156,0.00522,0.00302,0.00772,0.00446l0.00079,0.00046c0.00526,0.00305,0.01018,0.00589,0.01468,0.00848
			l0.00053,0.00031c0.00215,0.00125,0.0042,0.00244,0.00616,0.00357l0.00041,0.00024
			c0.00046,0.00024,0.00085,0.00049,0.0013,0.00073l0.00031,0.00018c0.00032,0.00018,0.00063,0.00037,0.00095,0.00055
			l0.00073,0.00043c0.00032,0.00018,0.00064,0.00037,0.00096,0.00055l0.00314,0.0018
			c0.00031,0.00018,0.00056,0.00034,0.00085,0.00049l0.00061,0.00037c0.0007,0.0004,0.0014,0.00079,0.00208,0.00119l0.00058,0.00034
			c0.0007,0.00043,0.00139,0.00082,0.00206,0.00119l0.00024,0.00015c0.00031,0.00018,0.00061,0.00034,0.0009,0.00052
			l0.00061,0.00034c0.00002,0.00003,0.00006,0.00006,0.00009,0.00006l0.00082,0.00049
			c0.00122,0.0007,0.00237,0.00134,0.0034,0.00195l0.00069,0.0004c0.00043,0.00024,0.00082,0.00049,0.00124,0.0007l0.00323,0.00189
			c0.00014,0.00006,0.00027,0.00015,0.0004,0.00021l0.00014,0.00009c0.00011,0.00006,0.00021,0.00012,0.00032,0.00018
			l0.00076,0.00043c0.00011,0.00006,0.00021,0.00012,0.00032,0.00018l0.00027,0.00015
			c0.00005,0.00003,0.00011,0.00006,0.00015,0.00009l0.00031,0.00018c0.00002,0.00003,0.00005,0.00003,0.00008,0.00006
			l0.00061,0.00034c0.00005,0.00003,0.00008,0.00006,0.00012,0.00006l0.00014,0.00009
			c0.00006,0.00003,0.00014,0.00009,0.00018,0.00012l0.00008,0.00003c0.00003,0,0.00005,0.00003,0.00008,0.00003l0.00046,0.00027
			l1-1.73206l-1.07802-0.62241V136.11179L3.47634,136.11179z M8.88447,140.67996l-1,1.73206l4.33015,2.5l0.99998-1.73206
			L8.88447,140.67996L8.88447,140.67996z M17.54475,145.67996l-1,1.73206c0,0,0.42068,0.24289,0.99966,0.57715l0.00941,0.00543
			c0.00557,0.00323,0.01109,0.00641,0.01669,0.00964l0.00082,0.00049c0.00664,0.00381,0.0132,0.00763,0.01987,0.01147
			l0.00325,0.00186c0.00644,0.00372,0.01286,0.00745,0.01935,0.01117l0.0049,0.00284
			c0.00185,0.00107,0.00371,0.00214,0.00557,0.0032l0.00339,0.00195c0.00174,0.00101,0.00345,0.00198,0.00519,0.00302
			l3.24202,1.87177l1-1.73206L17.54475,145.67996L17.54475,145.67996z M26.20501,150.67996l-1,1.73206l4.33011,2.5l1-1.73206
			L26.20501,150.67996L26.20501,150.67996z M34.86526,155.67996l-1,1.73206l3.29767,1.9039
			c0.00034,0.00021,0.00095,0.00055,0.00128,0.00076l0.05362,0.03094c0.00046,0.00027,0.00085,0.00049,0.00131,0.00076
			l0.02747,0.01587c0.00223,0.00128,0.00433,0.00247,0.00653,0.00375l0.0069,0.004c0.00067,0.00037,0.00162,0.00092,0.00229,0.00131
			l0.02707,0.01562c0.00275,0.00159,0.00537,0.00311,0.00812,0.0047l0.0011,0.00061
			c0.00601,0.00348,0.01199,0.00693,0.01797,0.01038l0.00592,0.00342c0.00555,0.0032,0.01083,0.00626,0.01633,0.00943
			l0.00403,0.00232c0.0014,0.00082,0.00262,0.00153,0.00403,0.00235l0.02228,0.01285
			c0.00375,0.00217,0.00732,0.00424,0.01105,0.00638l0.00125,0.00073c0.00583,0.00336,0.01187,0.00684,0.01764,0.01019
			l0.00412,0.00235c0.01215,0.00702,0.02396,0.01385,0.03592,0.02075l0.00418,0.00241
			c0.0249,0.01437,0.04929,0.02844,0.0733,0.04233l0.00443,0.00256c0.40463,0.23361,0.67435,0.38931,0.67435,0.38931l1-1.73206
			L34.86526,155.67996L34.86526,155.67996z M43.52551,160.67996l-1,1.73206l4.33014,2.5l1-1.73206L43.52551,160.67996
			L43.52551,160.67996z M52.18575,165.67996l-1,1.73206l4.33014,2.5l1-1.73206L52.18575,165.67996L52.18575,165.67996z
			 M60.846,170.67996l-1,1.73206l4.33014,2.5l1-1.73206L60.846,170.67996L60.846,170.67996z M69.50628,175.67996l-1,1.73206
			l4.33011,2.5l1-1.73206L69.50628,175.67996L69.50628,175.67996z M78.16653,180.67996l-1,1.73206l3.09772,1.78845
			c0.00073,0.00043,0.00146,0.00085,0.00217,0.00125l0.00397,0.00229c0.00076,0.00046,0.0015,0.00089,0.00226,0.00131
			l0.00223,0.00128c0.00089,0.00052,0.00165,0.00098,0.00253,0.00146l0.0047,0.00272
			c0.00275,0.00159,0.00546,0.00314,0.00818,0.00473l0.00101,0.00058c0.00305,0.00174,0.00607,0.00351,0.00906,0.00522
			l0.00229,0.00134c0.00317,0.00183,0.00629,0.00363,0.0094,0.0054l0.00095,0.00058
			c0.00116,0.00067,0.00241,0.00137,0.00354,0.00204l0.0137,0.0079c0.00034,0.00018,0.00058,0.00034,0.00092,0.00052l0.00378,0.0022
			c0.00092,0.00052,0.00183,0.00104,0.00275,0.00156l0.00232,0.00137c0.00043,0.00021,0.00092,0.00052,0.00134,0.00076
			l0.00336,0.00192c0.00577,0.00333,0.01141,0.00659,0.01697,0.0098l0.00314,0.00183
			c0.00244,0.0014,0.00485,0.00278,0.00723,0.00418l0.00089,0.00049c0.00247,0.00143,0.00491,0.00284,0.00735,0.00424
			l0.00275,0.00162c0.00095,0.00052,0.00183,0.00104,0.00278,0.00159l0.00122,0.0007
			c0.00089,0.00052,0.00171,0.00098,0.00259,0.0015l0.00201,0.00116c0.00134,0.00076,0.00262,0.00153,0.00397,0.00229
			l0.0098,0.00565c0.00034,0.00021,0.0007,0.00043,0.00107,0.00064l0.00284,0.00162c0.00211,0.00122,0.00415,0.00241,0.0062,0.0036
			l0.0015,0.00085c0.0051,0.00296,0.01013,0.00586,0.01495,0.00864l0.00076,0.00043
			c0.07169,0.04141,0.11197,0.06467,0.11197,0.06467l0,0l0.95197-0.54965l-0.31732-0.54962l0.36536-0.63278l0,0l0,0l0,0
			L78.16653,180.67996L78.16653,180.67996z M89.15691,177.08072l-4.33014,2.5l1,1.73203c0,0,0.78497-0.45319,1.68634-0.97357
			l0.00049-0.00031c0.00375-0.00217,0.00769-0.00443,0.01144-0.00659l2.63187-1.51953L89.15691,177.08072L89.15691,177.08072z
			 M97.81716,172.08072l-4.33014,2.5l1,1.73206l4.33014-2.5L97.81716,172.08072L97.81716,172.08072z M106.47741,167.08072
			l-4.33014,2.5l1,1.73206l4.33014-2.5L106.47741,167.08072L106.47741,167.08072z M115.13766,162.08072l-4.33011,2.5l1,1.73206
			l4.33011-2.5L115.13766,162.08072L115.13766,162.08072z M123.7979,157.08072l-4.33011,2.5l1,1.73206l3.7009-2.13672
			c0.0025-0.00143,0.00497-0.00287,0.00748-0.0043l0.00241-0.0014c0.0051-0.00293,0.01022-0.00589,0.01526-0.00882l0.00439-0.00253
			c0.36295-0.20953,0.59967-0.34622,0.59967-0.34622L123.7979,157.08072L123.7979,157.08072z M132.45819,152.08072l-4.33014,2.5
			l1,1.73206l4.33014-2.5L132.45819,152.08072L132.45819,152.08072z M141.11847,147.08072l-4.33014,2.5l1,1.73206
			c0,0,0.60608-0.34991,1.36481-0.78796l0.01959-0.01132c0.00259-0.0015,0.005-0.0029,0.0076-0.00439l0.00537-0.00311
			c0.00635-0.00366,0.0127-0.00732,0.01907-0.01099l0.00278-0.00162c0.00723-0.00418,0.01477-0.00854,0.02206-0.01273
			l0.00134-0.00079c0.00488-0.00281,0.00986-0.00568,0.01474-0.00851l0.01263-0.00729
			c0.00641-0.00369,0.01309-0.00757,0.01953-0.01126l0.00104-0.00061c0.00684-0.00394,0.01373-0.0079,0.02057-0.01187
			l0.00806-0.00464c0.00241-0.0014,0.00458-0.00266,0.00699-0.00403l0.00076-0.00046
			c0.00241-0.0014,0.00476-0.00275,0.00717-0.00415l0.108-0.06235c0.00104-0.00061,0.00186-0.00107,0.0029-0.00168l2.68509-1.55023
			L141.11847,147.08072L141.11847,147.08072z M149.77872,142.08072l-4.33014,2.5l1,1.73206l4.33014-2.5L149.77872,142.08072
			L149.77872,142.08072z M158.43896,137.08072l-4.33011,2.5l1,1.73206l1.29193-0.74591
			c0.00085-0.00049,0.00159-0.00092,0.00244-0.0014l0.02148-0.01242c0.00049-0.00027,0.00073-0.0004,0.00122-0.0007l0.06738-0.03891
			c0.0025-0.00143,0.00494-0.00284,0.00745-0.00427l0.00565-0.00327c1.26538-0.73056,2.93256-1.69312,2.93256-1.69312
			L158.43896,137.08072L158.43896,137.08072z M159.61304,128.91327h-2v5h2V128.91327L159.61304,128.91327z M159.61304,118.91328h-2
			v5h2V118.91328L159.61304,118.91328z M159.61304,108.91328h-2v5h2V108.91328L159.61304,108.91328z M159.61304,98.91328h-2v5h2
			V98.91328L159.61304,98.91328z M159.61304,88.91328h-2v5h2V88.91328L159.61304,88.91328z M159.61304,78.91328h-2v5h2V78.91328
			L159.61304,78.91328z M159.61304,68.91328h-2v5h2V68.91328L159.61304,68.91328z M159.61304,58.91328h-2v5h2V58.91328
			L159.61304,58.91328z M159.61304,48.91328h-2v5h2V48.91328L159.61304,48.91328z M152.25293,43.16267l-1,1.73206l4.33011,2.5
			l1-1.73206L152.25293,43.16267L152.25293,43.16267z M143.59265,38.16267l-1,1.73206l4.33014,2.5l1-1.73206L143.59265,38.16267
			L143.59265,38.16267z M134.9324,33.16267l-1,1.73206l4.33014,2.5l1-1.73206L134.9324,33.16267L134.9324,33.16267z
			 M126.27215,28.16267l-1,1.73206l4.33015,2.5l1-1.73206L126.27215,28.16267L126.27215,28.16267z M117.6119,23.16267l-1,1.73206
			l4.33014,2.5l1-1.73206L117.6119,23.16267L117.6119,23.16267z M108.95165,18.16267l-1,1.73206l4.33011,2.5l1-1.73206
			L108.95165,18.16267L108.95165,18.16267z M100.2914,13.16267l-1,1.73206l4.33011,2.5l1-1.73206L100.2914,13.16267
			L100.2914,13.16267z M91.63113,8.16267l-1,1.73206l4.33014,2.5l1-1.73206L91.63113,8.16267L91.63113,8.16267z M82.97088,3.16267
			l-1,1.73206l4.33014,2.5l1-1.73206L82.97088,3.16267L82.97088,3.16267z"/>
	</g>
	<g>
		<path class="st1" d="M118.86301,83.57103l1.11214,21.3329c0,0.40442-0.08555,0.77383-0.24887,1.11214
			c-0.1711,0.33831-0.40441,0.62218-0.7155,0.85938c-0.29553,0.23721-0.65329,0.43941-1.0577,0.60662
			c-0.40442,0.16721-0.83994,0.25276-1.31435,0.25276h-4.95409v8.49271c0,0.67273-0.13222,1.2988-0.40442,1.87042
			s-0.67662,1.06159-1.21324,1.466c-0.53663,0.40442-1.14326,0.74273-1.81987,1.01104
			c-0.67662,0.26831-1.38435,0.40441-2.12318,0.40441c-0.73883,0-1.46989-0.1361-2.16984-0.40441
			c-0.71551-0.26831-1.32213-0.60662-1.81987-1.01104c-0.5133-0.40441-0.91771-0.89438-1.21325-1.466
			c-0.31109-0.57162-0.45885-1.19769-0.45885-1.87042v-8.49271H61.23385v8.49271c0,0.67273-0.13221,1.2988-0.40442,1.87042
			s-0.66106,1.06159-1.15881,1.466c-0.51329,0.40442-1.11992,0.74273-1.81987,1.01104
			c-0.7155,0.26831-1.43879,0.40441-2.17762,0.40441c-0.73884,0-1.46212-0.1361-2.17762-0.40441
			c-0.69995-0.26831-1.30657-0.60662-1.81987-1.01104c-0.49774-0.40441-0.8866-0.89438-1.15881-1.466
			c-0.2722-0.57162-0.40442-1.19769-0.40442-1.87042v-8.49271h-5.56071c-0.53663,0-1.01104-0.08555-1.41545-0.25276
			s-0.76217-0.36942-1.0577-0.60662c-0.31109-0.23721-0.5444-0.52107-0.7155-0.85938
			c-0.16332-0.33831-0.24887-0.70773-0.24887-1.11214l1.11214-21.3329c0-0.87493,0.37331-1.61766,1.11214-2.22428
			s1.53211-1.11214,2.37983-1.51656c0.83994-0.40442,1.96764-0.80883,3.38309-1.21325l10.6159-24.0627
			c0.40442-0.60662,0.72328-1.04604,0.96437-1.31435c0.23331-0.26831,0.45108-0.47052,0.65329-0.60662
			c0.20221-0.1361,0.41997-0.21776,0.65329-0.25276c0.24109-0.035,0.55996-0.05055,0.96437-0.05055h35.18412
			c0.40442,0,0.73884,0.01556,1.01104,0.05055c0.2722,0.035,0.52107,0.11666,0.76217,0.25276
			c0.23331,0.1361,0.46663,0.33831,0.69994,0.60662c0.2411,0.26831,0.52885,0.70773,0.86327,1.31435l10.91921,24.0627
			c1.34546,0.40442,2.42649,0.80883,3.23532,1.21325c0.80883,0.40441,1.54766,0.90993,2.22428,1.51656
			S118.86301,82.6961,118.86301,83.57103z M52.84224,98.53439c1.01104,0,1.93652-0.18665,2.78424-0.55607
			c0.83994-0.36942,1.56322-0.87494,2.16984-1.51656c0.60662-0.64162,1.09659-1.38046,1.46989-2.22429
			c0.36553-0.84383,0.55218-1.73431,0.55218-2.67924s-0.18665-1.83543-0.55218-2.67925
			c-0.37331-0.84383-0.86327-1.56711-1.46989-2.17373c-0.60662-0.60663-1.3299-1.09659-2.16984-1.46601
			c-0.84772-0.36942-1.7732-0.55607-2.78424-0.55607c-0.94104,0-1.83542,0.18665-2.67536,0.55607
			c-0.84772,0.36942-1.571,0.85938-2.17762,1.46601c-0.60662,0.60662-1.09659,1.3299-1.46212,2.17373
			c-0.37331,0.84383-0.55996,1.73432-0.55996,2.67925s0.18665,1.83542,0.55996,2.67924
			c0.36553,0.84383,0.8555,1.58266,1.46212,2.22429c0.60662,0.64162,1.3299,1.14713,2.17762,1.51656
			C51.00682,98.34774,51.9012,98.53439,52.84224,98.53439z M59.41398,78.11143h43.07022c0.33442,0,0.66106-0.05055,0.9566-0.15166
			c0.31109-0.1011,0.55996-0.25275,0.76217-0.45496s0.35775-0.41997,0.45108-0.65717
			c0.10888-0.23721,0.12444-0.52107,0.05444-0.85938l-6.87505-17.18764c-0.07-0.26831-0.20221-0.54052-0.40442-0.80883
			c-0.20221-0.26831-0.43552-0.48997-0.70773-0.65718s-0.57552-0.31887-0.90993-0.45497s-0.70773-0.20221-1.11214-0.20221H66.39014
			c-0.40441,0-0.77772,0.0661-1.11214,0.20221c-0.33443,0.1361-0.63773,0.28776-0.90993,0.45497s-0.48997,0.38886-0.65329,0.65718
			c-0.1711,0.26831-0.28775,0.54052-0.35775,0.80883l-6.36954,17.18764c-0.06999,0.33831-0.05444,0.62218,0.05444,0.85938
			c0.09333,0.23721,0.26442,0.45496,0.49774,0.65717c0.24109,0.20221,0.51329,0.35386,0.80883,0.45496
			C58.6596,78.06087,59.00957,78.11143,59.41398,78.11143z M108.24712,98.53439c0.94104,0,1.83542-0.18665,2.67536-0.55607
			c0.84772-0.36942,1.571-0.87494,2.17762-1.51656c0.60662-0.64162,1.09659-1.38046,1.46211-2.22429
			c0.37331-0.84383,0.55996-1.73431,0.55996-2.67924s-0.18665-1.83543-0.55996-2.67925
			c-0.36552-0.84383-0.85549-1.56711-1.46211-2.17373c-0.60662-0.60663-1.3299-1.09659-2.17762-1.46601
			c-0.83994-0.36942-1.73432-0.55607-2.67536-0.55607c-1.01104,0-1.93653,0.18665-2.78424,0.55607
			c-0.83994,0.36942-1.56322,0.85938-2.16985,1.46601c-0.60662,0.60662-1.09659,1.3299-1.46989,2.17373
			c-0.36553,0.84383-0.55219,1.73432-0.55219,2.67925s0.18665,1.83542,0.55219,2.67924
			c0.37331,0.84383,0.86327,1.58266,1.46989,2.22429c0.60662,0.64162,1.3299,1.14713,2.16985,1.51656
			C106.31059,98.34774,107.23608,98.53439,108.24712,98.53439z"/>
		<g>
			<path class="st2" d="M105.44772,133.20836c-0.02778-2.33386-1.92764-4.21121-4.26163-4.21121H62.21415h-2.31089
				c-2.334,0-4.23378,1.87735-4.26156,4.21121l-0.02202,1.84871h49.85006L105.44772,133.20836z"/>
			<polygon class="st2" points="91.97916,111.00591 69.11018,111.00591 63.12105,125.66708 97.96828,125.66708 			"/>
			<polygon class="st2" points="88.22782,101.77175 72.86158,101.77175 71.4187,105.16245 89.67063,105.16245 			"/>
			<path class="st2" d="M83.62748,89.96375c-1.12778-2.76129-5.03796-2.76127-6.16571,0.00003l-2.43597,5.96451h11.03774
				L83.62748,89.96375z"/>
		</g>
	</g>
</g>
</svg>
