<svg id="Layer_1" data-name="Layer 1" xmlns="http://www.w3.org/2000/svg" viewBox="0 0 160.137 184.91"><defs><style>.cls-1{fill:#b3c143;fill-opacity:0.5;stroke:#b3c143;stroke-miterlimit:10;stroke-width:2px;stroke-dasharray:5 5;opacity:0.5;}.cls-2{fill:#78953c;}.cls-3{fill:#c2cc49;}.cls-4{fill:#42591e;}</style></defs><title>product-feature-3</title><polygon class="cls-1" points="159.137 138.105 80.068 183.755 1 138.105 1 46.805 80.068 1.155 159.137 46.805 159.137 138.105"/><path class="cls-2" d="M57.337,113.184H102.8V90.453c0-7.559-2.449-13.941-7.08-18.456a22.711,22.711,0,0,0-31.3,0c-4.632,4.515-7.081,10.9-7.081,18.456v22.731Zm4.506-22.731c0-13.882,9.448-20.2,18.226-20.2s18.226,6.323,18.226,20.2v18.226H82.884V98.916a7.694,7.694,0,1,0-5.632,0v9.763H61.843V90.453Z" transform="translate(0 0)"/><path class="cls-3" d="M38.179,92.847a2.4,2.4,0,0,1-2.395-2.395c0-13.507,4.7-25.226,13.593-33.891a2.395,2.395,0,0,1,3.343,3.43c-7.947,7.743-12.147,18.276-12.147,30.461A2.4,2.4,0,0,1,38.179,92.847Z" transform="translate(0 0)"/><path class="cls-3" d="M121.958,92.847a2.4,2.4,0,0,1-2.395-2.395c0-12.183-4.2-22.716-12.142-30.46a2.395,2.395,0,1,1,3.343-3.43c8.89,8.668,13.589,20.386,13.589,33.89A2.4,2.4,0,0,1,121.958,92.847Z" transform="translate(0 0)"/><path class="cls-3" d="M112.379,92.847a2.4,2.4,0,0,1-2.395-2.395c0-9.1-3.032-16.865-8.767-22.457a2.395,2.395,0,1,1,3.343-3.43c6.682,6.515,10.213,15.466,10.213,25.887A2.4,2.4,0,0,1,112.379,92.847Z" transform="translate(0 0)"/><path class="cls-3" d="M47.758,92.847a2.4,2.4,0,0,1-2.395-2.395c0-10.423,3.533-19.375,10.217-25.887A2.395,2.395,0,1,1,58.922,68c-5.737,5.59-8.77,13.355-8.77,22.457A2.4,2.4,0,0,1,47.758,92.847Z" transform="translate(0 0)"/><path class="cls-4" d="M57.337,113.184H102.8V90.453c0-7.559-2.449-13.941-7.08-18.456a22.711,22.711,0,0,0-31.3,0c-4.632,4.515-7.081,10.9-7.081,18.456v22.731Zm4.506-22.731c0-13.882,9.448-20.2,18.226-20.2s18.226,6.323,18.226,20.2v18.226H82.884V98.916a7.694,7.694,0,1,0-5.632,0v9.763H61.843V90.453Z" transform="translate(0 0)"/><path class="cls-3" d="M80.068,78.133a2.253,2.253,0,1,0,0-4.506c-7.39,0-14.846,5.2-14.846,16.825a2.253,2.253,0,0,0,4.506,0C69.727,81.369,75.069,78.133,80.068,78.133Z" transform="translate(0 0)"/><rect class="cls-4" x="48.572" y="119.047" width="62.993" height="11.923" rx="5.898" ry="5.898"/></svg>