<?xml version="1.0" encoding="utf-8"?>
<!-- Generator: Adobe Illustrator 19.1.0, SVG Export Plug-In . SVG Version: 6.00 Build 0)  -->
<svg version="1.1" id="Layer_1" xmlns="http://www.w3.org/2000/svg" xmlns:xlink="http://www.w3.org/1999/xlink" x="0px" y="0px"
	 viewBox="0 0 160.1367 184.90993" style="enable-background:new 0 0 160.1367 184.90993;" xml:space="preserve">
<style type="text/css">
	.st0{opacity:0.5;}
	.st1{fill:none;stroke:#B3C143;stroke-width:2;stroke-miterlimit:10;}
	.st2{fill:none;stroke:#B3C143;stroke-width:2;stroke-miterlimit:10;stroke-dasharray:5.07649,5.07649;}
	.st3{fill:#B3C143;}
	.st4{fill:#78953C;}
	.st5{fill:#42591E;}
</style>
<g>
	<g class="st0">
		<g>
			<polyline class="st1" points="159.1367,135.60507 159.1367,138.10507 156.97163,139.35507 			"/>
			<line class="st2" x1="152.57527" y1="141.89334" x2="84.43159" y2="181.23605"/>
			<polyline class="st1" points="82.23341,182.50522 80.06835,183.75522 77.90329,182.50522 			"/>
			<line class="st2" x1="73.50692" y1="179.96695" x2="5.36325" y2="140.62418"/>
			<polyline class="st1" points="3.16506,139.35507 1,138.10507 1,135.60507 			"/>
			<line class="st2" x1="1" y1="130.52859" x2="1" y2="51.84306"/>
			<polyline class="st1" points="1,49.30479 1,46.80479 3.16506,45.55479 			"/>
			<line class="st2" x1="7.56143" y1="43.01658" x2="75.70511" y2="3.6738"/>
			<polyline class="st1" points="77.90329,2.4047 80.06835,1.1547 82.23341,2.4047 			"/>
			<line class="st2" x1="86.62978" y1="4.94291" x2="154.77345" y2="44.28568"/>
			<polyline class="st1" points="156.97163,45.55479 159.1367,46.80479 159.1367,49.30479 			"/>
			<line class="st2" x1="159.1367" y1="54.38132" x2="159.1367" y2="133.0668"/>
		</g>
	</g>
	<g>
		<polygon class="st3" points="13.54084,86.3802 45.07061,88.07689 80.57941,132.5735 49.05053,130.87779 		"/>
		<polygon class="st3" points="111.49583,115.89832 84.71133,132.25917 48.48411,86.86104 75.26861,70.4993 		"/>
		<polygon class="st3" points="79.39788,70.18321 111.08607,72.02205 146.59586,116.52052 114.90767,114.68169 79.39788,70.18321 		
			"/>
		<path class="st4" d="M81.19507,88.10468l0.2791,5.35358c0,0.10149-0.02147,0.19419-0.06245,0.27909
			c-0.04294,0.0849-0.10149,0.15614-0.17956,0.21567c-0.07417,0.05952-0.16395,0.11028-0.26543,0.15224
			c-0.10149,0.04196-0.21078,0.06343-0.32984,0.06343h-1.24325v2.13128c0,0.16882-0.03318,0.32594-0.10149,0.46939
			c-0.06831,0.14345-0.1698,0.2664-0.30447,0.3679c-0.13467,0.10149-0.2869,0.18639-0.4567,0.25372s-0.3474,0.10149-0.53281,0.10149
			c-0.18542,0-0.36888-0.03415-0.54453-0.10149c-0.17956-0.06734-0.33179-0.15224-0.4567-0.25372
			c-0.12881-0.10149-0.2303-0.22445-0.30447-0.3679c-0.07807-0.14346-0.11515-0.30057-0.11515-0.46939v-2.13128h-9.84448v2.13128
			c0,0.16882-0.03318,0.32594-0.10149,0.46939c-0.06831,0.14345-0.16589,0.2664-0.2908,0.3679
			c-0.12881,0.10149-0.28105,0.18639-0.4567,0.25372c-0.17956,0.06734-0.36107,0.10149-0.54649,0.10149
			c-0.18541,0-0.36692-0.03415-0.54648-0.10149c-0.17566-0.06734-0.32789-0.15224-0.4567-0.25372
			c-0.12491-0.10149-0.2225-0.22445-0.29081-0.3679c-0.06831-0.14346-0.10149-0.30057-0.10149-0.46939v-2.13128h-1.39548
			c-0.13467,0-0.25372-0.02147-0.35521-0.06343s-0.19127-0.09271-0.26543-0.15224c-0.07807-0.05952-0.13662-0.13077-0.17956-0.21567
			c-0.04099-0.0849-0.06245-0.1776-0.06245-0.27909l0.27909-5.35358c0-0.21957,0.09368-0.40595,0.27909-0.55819
			s0.38449-0.2791,0.59723-0.38058c0.21078-0.10149,0.49379-0.20298,0.849-0.30447l2.6641-6.03863
			c0.10149-0.15224,0.18151-0.2625,0.24201-0.32984c0.05855-0.06734,0.1132-0.11808,0.16394-0.15224
			c0.05075-0.03415,0.10539-0.05465,0.16395-0.06343c0.0605-0.00878,0.14053-0.01268,0.24201-0.01268h8.82959
			c0.10149,0,0.18541,0.0039,0.25372,0.01268c0.06831,0.00878,0.13076,0.02928,0.19127,0.06343
			c0.05855,0.03416,0.1171,0.0849,0.17565,0.15224c0.0605,0.06734,0.13272,0.1776,0.21664,0.32984l2.74021,6.03863
			c0.33765,0.10149,0.60894,0.20297,0.81192,0.30447c0.20298,0.10149,0.38839,0.22835,0.55819,0.38058
			S81.19507,87.88511,81.19507,88.10468z M64.62691,91.85979c0.25372,0,0.48598-0.04684,0.69872-0.13954
			c0.21079-0.09271,0.3923-0.21957,0.54453-0.38059c0.15224-0.16101,0.27519-0.34643,0.36887-0.55819
			c0.09174-0.21176,0.13857-0.43523,0.13857-0.67237c0-0.23713-0.04684-0.4606-0.13857-0.67236
			c-0.09368-0.21176-0.21664-0.39327-0.36887-0.54551c-0.15224-0.15223-0.33374-0.27519-0.54453-0.3679
			c-0.21274-0.0927-0.44499-0.13955-0.69872-0.13955c-0.23615,0-0.4606,0.04684-0.67139,0.13955
			c-0.21274,0.0927-0.39425,0.21567-0.54648,0.3679c-0.15223,0.15224-0.27519,0.33375-0.36692,0.54551
			c-0.09368,0.21176-0.14052,0.43523-0.14052,0.67236c0,0.23714,0.04684,0.46061,0.14052,0.67237
			c0.09173,0.21176,0.21469,0.39718,0.36692,0.55819c0.15224,0.16102,0.33374,0.28788,0.54648,0.38059
			C64.16631,91.81295,64.39075,91.85979,64.62691,91.85979z M66.27612,86.73457h10.80863c0.08392,0,0.16589-0.01269,0.24006-0.03806
			c0.07807-0.02537,0.14053-0.06343,0.19127-0.11417s0.08978-0.10539,0.1132-0.16492
			c0.02733-0.05952,0.03123-0.13076,0.01366-0.21566l-1.72532-4.31331c-0.01756-0.06733-0.05074-0.13564-0.10149-0.20297
			c-0.05074-0.06734-0.10929-0.12296-0.1776-0.16492c-0.06831-0.04196-0.14442-0.08002-0.22835-0.11417
			s-0.17761-0.05074-0.2791-0.05074h-7.10426c-0.10149,0-0.19518,0.01659-0.2791,0.05074s-0.16004,0.07221-0.22835,0.11417
			c-0.06831,0.04196-0.12296,0.09759-0.16395,0.16492c-0.04294,0.06733-0.07221,0.13564-0.08978,0.20297l-1.59846,4.31331
			c-0.01756,0.0849-0.01366,0.15614,0.01366,0.21566c0.02342,0.05953,0.06636,0.11418,0.12491,0.16492
			c0.0605,0.05074,0.12881,0.08881,0.20298,0.11417C66.0868,86.72189,66.17462,86.73457,66.27612,86.73457z M78.53097,91.85979
			c0.23616,0,0.46061-0.04684,0.67139-0.13954c0.21274-0.09271,0.39425-0.21957,0.54649-0.38059
			c0.15223-0.16101,0.27519-0.34643,0.36692-0.55819c0.09368-0.21176,0.14053-0.43523,0.14053-0.67237
			c0-0.23713-0.04684-0.4606-0.14053-0.67236c-0.09173-0.21176-0.21469-0.39327-0.36692-0.54551
			c-0.15224-0.15223-0.33375-0.27519-0.54649-0.3679c-0.21078-0.0927-0.43523-0.13955-0.67139-0.13955
			c-0.25372,0-0.48598,0.04684-0.69872,0.13955c-0.21078,0.0927-0.3923,0.21567-0.54453,0.3679
			c-0.15224,0.15224-0.27519,0.33375-0.36888,0.54551c-0.09173,0.21176-0.13857,0.43523-0.13857,0.67236
			c0,0.23714,0.04684,0.46061,0.13857,0.67237c0.09369,0.21176,0.21664,0.39718,0.36888,0.55819
			c0.15223,0.16102,0.33374,0.28788,0.54453,0.38059C78.04499,91.81295,78.27724,91.85979,78.53097,91.85979z"/>
		<path class="st4" d="M128.00717,99.02284l0.2791,5.35357c0,0.10149-0.02147,0.1942-0.06245,0.2791
			c-0.04294,0.0849-0.10149,0.15614-0.17955,0.21566c-0.07417,0.05953-0.16395,0.11028-0.26544,0.15224
			c-0.10149,0.04196-0.21078,0.06343-0.32983,0.06343h-1.24325v2.13128c0,0.16882-0.03318,0.32594-0.10149,0.46939
			c-0.06831,0.14345-0.1698,0.26641-0.30447,0.3679c-0.13467,0.10149-0.2869,0.18639-0.4567,0.25372
			c-0.1698,0.06734-0.3474,0.10149-0.53282,0.10149c-0.18541,0-0.36887-0.03416-0.54453-0.10149
			c-0.17956-0.06733-0.33179-0.15223-0.4567-0.25372c-0.12881-0.10149-0.23031-0.22445-0.30447-0.3679
			c-0.07806-0.14346-0.11515-0.30057-0.11515-0.46939v-2.13128h-9.84448v2.13128c0,0.16882-0.03318,0.32594-0.10149,0.46939
			c-0.06831,0.14345-0.16589,0.26641-0.29081,0.3679c-0.12881,0.10149-0.28104,0.18639-0.4567,0.25372
			c-0.17956,0.06734-0.36107,0.10149-0.54648,0.10149c-0.18542,0-0.36692-0.03416-0.54649-0.10149
			c-0.17565-0.06733-0.32789-0.15223-0.4567-0.25372c-0.12491-0.10149-0.2225-0.22445-0.2908-0.3679
			c-0.06831-0.14346-0.10149-0.30057-0.10149-0.46939v-2.13128h-1.39548c-0.13467,0-0.25372-0.02147-0.35521-0.06343
			c-0.10149-0.04196-0.19127-0.0927-0.26543-0.15224c-0.07807-0.05952-0.13663-0.13076-0.17957-0.21566
			c-0.04099-0.0849-0.06245-0.17761-0.06245-0.2791l0.2791-5.35357c0-0.21957,0.09368-0.40596,0.2791-0.5582
			c0.18541-0.15223,0.38448-0.27909,0.59722-0.38058c0.21079-0.10149,0.49379-0.20298,0.849-0.30447l2.6641-6.03863
			c0.10149-0.15223,0.18151-0.2625,0.24201-0.32984c0.05856-0.06733,0.1132-0.11808,0.16395-0.15223
			c0.05074-0.03416,0.10539-0.05465,0.16395-0.06343c0.0605-0.00878,0.14052-0.01269,0.24201-0.01269h8.82958
			c0.10149,0,0.18542,0.00391,0.25372,0.01269c0.06831,0.00878,0.13077,0.02927,0.19127,0.06343
			c0.05856,0.03415,0.1171,0.0849,0.17566,0.15223c0.0605,0.06734,0.13271,0.17761,0.21664,0.32984l2.74022,6.03863
			c0.33765,0.10149,0.60894,0.20298,0.81191,0.30447c0.20298,0.10149,0.3884,0.22836,0.5582,0.38058
			C127.92326,98.61688,128.00717,98.80327,128.00717,99.02284z M111.43902,102.77795c0.25372,0,0.48598-0.04684,0.69872-0.13955
			c0.21078-0.0927,0.3923-0.21957,0.54453-0.38058c0.15223-0.16102,0.27519-0.34644,0.36887-0.5582
			c0.09173-0.21176,0.13857-0.43523,0.13857-0.67236c0-0.23714-0.04684-0.46061-0.13857-0.67237
			c-0.09368-0.21176-0.21664-0.39327-0.36887-0.5455c-0.15224-0.15224-0.33375-0.27519-0.54453-0.3679
			c-0.21274-0.0927-0.44499-0.13955-0.69872-0.13955c-0.23616,0-0.46061,0.04684-0.67139,0.13955
			c-0.21274,0.09271-0.39425,0.21567-0.54648,0.3679c-0.15224,0.15223-0.27519,0.33374-0.36693,0.5455
			c-0.09368,0.21176-0.14052,0.43523-0.14052,0.67237c0,0.23713,0.04684,0.4606,0.14052,0.67236
			c0.09174,0.21176,0.21469,0.39718,0.36693,0.5582c0.15223,0.16102,0.33374,0.28788,0.54648,0.38058
			C110.97841,102.73111,111.20286,102.77795,111.43902,102.77795z M113.08822,97.65273h10.80863
			c0.08393,0,0.1659-0.01269,0.24007-0.03806c0.07806-0.02537,0.14053-0.06343,0.19127-0.11417s0.08978-0.10539,0.1132-0.16492
			c0.02733-0.05953,0.03123-0.13077,0.01366-0.21567l-1.72533-4.3133c-0.01756-0.06734-0.05074-0.13564-0.10149-0.20298
			s-0.1093-0.12296-0.1776-0.16492c-0.06831-0.04196-0.14443-0.08002-0.22836-0.11417s-0.1776-0.05074-0.27909-0.05074h-7.10427
			c-0.10149,0-0.19517,0.01659-0.27909,0.05074s-0.16004,0.07221-0.22836,0.11417c-0.06831,0.04197-0.12296,0.09759-0.16394,0.16492
			c-0.04294,0.06734-0.07222,0.13564-0.08978,0.20298l-1.59846,4.3133c-0.01757,0.0849-0.01366,0.15614,0.01366,0.21567
			c0.02341,0.05952,0.06635,0.11417,0.12491,0.16492c0.0605,0.05074,0.12881,0.08881,0.20298,0.11417
			C112.8989,97.64005,112.98673,97.65273,113.08822,97.65273z M125.34308,102.77795c0.23616,0,0.46061-0.04684,0.67139-0.13955
			c0.21274-0.0927,0.39425-0.21957,0.54648-0.38058c0.15224-0.16102,0.27519-0.34644,0.36693-0.5582
			c0.09368-0.21176,0.14052-0.43523,0.14052-0.67236c0-0.23714-0.04684-0.46061-0.14052-0.67237
			c-0.09174-0.21176-0.21469-0.39327-0.36693-0.5455c-0.15223-0.15224-0.33374-0.27519-0.54648-0.3679
			c-0.21078-0.0927-0.43523-0.13955-0.67139-0.13955c-0.25372,0-0.48598,0.04684-0.69872,0.13955
			c-0.21078,0.09271-0.3923,0.21567-0.54453,0.3679c-0.15223,0.15223-0.27519,0.33374-0.36887,0.5455
			c-0.09173,0.21176-0.13857,0.43523-0.13857,0.67237c0,0.23713,0.04684,0.4606,0.13857,0.67236
			c0.09368,0.21176,0.21664,0.39718,0.36887,0.5582c0.15224,0.16102,0.33375,0.28788,0.54453,0.38058
			C124.8571,102.73111,125.08936,102.77795,125.34308,102.77795z"/>
		<path class="st5" d="M53.14285,103.90643h0.12686v8.39826c-0.38839,0.25372-0.76507,0.4567-1.12809,0.60893
			c-0.36497,0.15224-0.80021,0.29179-1.30765,0.41865c-0.50745,0.12686-1.06564,0.19029-1.67458,0.19029
			c-0.60894,0-1.16713-0.06343-1.67458-0.19029s-0.94268-0.26641-1.30765-0.41865c-0.36302-0.15223-0.7397-0.35521-1.1281-0.60893
			v-8.39826h0.12686c0.25373,0.28788,0.52501,0.54942,0.81192,0.78654c0.2869,0.23714,0.60113,0.43523,0.93878,0.59625
			c0.33765,0.16102,0.69286,0.28788,1.06564,0.38058c0.37278,0.0927,0.76117,0.13955,1.16713,0.13955
			c0.40596,0,0.79435-0.04684,1.16713-0.13955c0.37278-0.0927,0.72799-0.21957,1.06564-0.38058
			c0.33765-0.16102,0.65187-0.35912,0.93878-0.59625C52.61784,104.45584,52.88913,104.19431,53.14285,103.90643z
			 M51.92498,100.58265c0-0.3718-0.07221-0.72702-0.21664-1.06564c-0.14248-0.33862-0.34155-0.63431-0.59528-0.88803
			s-0.54453-0.4528-0.87632-0.59625c-0.32789-0.14345-0.68896-0.21567-1.07735-0.21567c-0.38839,0-0.74946,0.07222-1.07735,0.21567
			c-0.33179,0.14346-0.6226,0.34253-0.87632,0.59625s-0.4528,0.54941-0.59528,0.88803
			c-0.14443,0.33862-0.21664,0.69384-0.21664,1.06564c0,0.38937,0.07221,0.75239,0.21664,1.09101
			c0.14248,0.33862,0.34155,0.6304,0.59528,0.87534s0.54453,0.44402,0.87632,0.59625
			c0.32789,0.15224,0.68896,0.22836,1.07735,0.22836c0.38839,0,0.74946-0.07612,1.07735-0.22836
			c0.33179-0.15224,0.6226-0.35131,0.87632-0.59625s0.4528-0.53672,0.59528-0.87534
			C51.85276,101.33504,51.92498,100.97202,51.92498,100.58265z M46.67289,115.14639c0.23616,0.0849,0.46061,0.15223,0.67139,0.20298
			c0.21273,0.05074,0.47427,0.09758,0.78849,0.13954c0.31227,0.04196,0.65383,0.06343,1.0266,0.06343
			c0.37278,0,0.71433-0.02147,1.02661-0.06343c0.31423-0.04196,0.57576-0.0888,0.78849-0.13954
			c0.21078-0.05075,0.43523-0.11808,0.67139-0.20298v2.05516c-0.20298,0.13564-0.40986,0.24104-0.62065,0.31715
			c-0.21274,0.07612-0.47427,0.14346-0.7885,0.20298c-0.31227,0.05952-0.67139,0.08881-1.07735,0.08881
			c-0.40596,0-0.76507-0.02928-1.07735-0.08881c-0.31422-0.05952-0.57576-0.12686-0.78849-0.20298
			c-0.21078-0.07612-0.41767-0.18151-0.62065-0.31715V115.14639z"/>
		<path class="st5" d="M94.19761,110.72549h0.12686v8.39825c-0.3884,0.25372-0.76508,0.4567-1.1281,0.60893
			c-0.36497,0.15224-0.80021,0.29179-1.30766,0.41865s-1.06564,0.19029-1.67458,0.19029s-1.16713-0.06343-1.67458-0.19029
			s-0.94268-0.26641-1.30766-0.41865c-0.36302-0.15223-0.7397-0.35521-1.12809-0.60893v-8.39825h0.12686
			c0.25372,0.28787,0.52501,0.54941,0.81191,0.78654c0.2869,0.23714,0.60113,0.43523,0.93878,0.59625
			c0.33765,0.16102,0.69286,0.28788,1.06564,0.38058c0.37278,0.09271,0.76117,0.13955,1.16713,0.13955
			s0.79435-0.04684,1.16713-0.13955c0.37278-0.0927,0.72799-0.21957,1.06564-0.38058
			c0.33765-0.16102,0.65187-0.35912,0.93877-0.59625C93.67259,111.27489,93.94388,111.01336,94.19761,110.72549z M92.97973,107.4017
			c0-0.3718-0.07221-0.72702-0.21664-1.06564c-0.14248-0.33862-0.34155-0.63431-0.59528-0.88803s-0.54453-0.4528-0.87633-0.59625
			c-0.32789-0.14345-0.68896-0.21566-1.07735-0.21566s-0.74946,0.07221-1.07735,0.21566
			c-0.33179,0.14346-0.6226,0.34253-0.87633,0.59625s-0.4528,0.54941-0.59528,0.88803
			c-0.14442,0.33862-0.21664,0.69384-0.21664,1.06564c0,0.38937,0.07221,0.75239,0.21664,1.09101
			c0.14248,0.33862,0.34155,0.63041,0.59528,0.87535c0.25372,0.24493,0.54453,0.44402,0.87633,0.59624
			c0.32789,0.15224,0.68896,0.22836,1.07735,0.22836s0.74946-0.07612,1.07735-0.22836
			c0.33179-0.15223,0.6226-0.35131,0.87633-0.59624c0.25372-0.24494,0.4528-0.53673,0.59528-0.87535
			C92.90752,108.15409,92.97973,107.79107,92.97973,107.4017z M87.72765,121.96545c0.23616,0.0849,0.46061,0.15224,0.67139,0.20298
			c0.21274,0.05074,0.47427,0.09759,0.7885,0.13955c0.31227,0.04196,0.65382,0.06343,1.0266,0.06343s0.71433-0.02147,1.0266-0.06343
			c0.31423-0.04196,0.57576-0.08881,0.7885-0.13955c0.21078-0.05074,0.43523-0.11808,0.67139-0.20298v2.05516
			c-0.20298,0.13564-0.40987,0.24104-0.62065,0.31715c-0.21274,0.07612-0.47427,0.14346-0.7885,0.20298
			c-0.31227,0.05952-0.67139,0.08881-1.07735,0.08881s-0.76508-0.02928-1.07735-0.08881
			c-0.31423-0.05952-0.57576-0.12686-0.7885-0.20298c-0.21078-0.07612-0.41767-0.18151-0.62065-0.31715V121.96545z"/>
		<path class="st5" d="M107.59258,72.22388h0.12686v8.39826c-0.3884,0.25372-0.76508,0.4567-1.1281,0.60893
			c-0.36497,0.15224-0.80021,0.29179-1.30766,0.41865s-1.06564,0.19029-1.67458,0.19029s-1.16713-0.06343-1.67458-0.19029
			s-0.94268-0.26641-1.30766-0.41865c-0.36302-0.15223-0.7397-0.35521-1.12809-0.60893v-8.39826h0.12686
			c0.25372,0.28788,0.52501,0.54942,0.81191,0.78654c0.2869,0.23714,0.60113,0.43523,0.93878,0.59625
			c0.33765,0.16102,0.69286,0.28788,1.06564,0.38058s0.76117,0.13955,1.16713,0.13955s0.79435-0.04684,1.16713-0.13955
			s0.72799-0.21957,1.06564-0.38058c0.33765-0.16102,0.65187-0.35912,0.93877-0.59625
			C107.06756,72.77329,107.33884,72.51176,107.59258,72.22388z M106.37469,68.9001c0-0.3718-0.07221-0.72702-0.21664-1.06564
			c-0.14248-0.33862-0.34155-0.63431-0.59528-0.88803s-0.54453-0.4528-0.87633-0.59625
			c-0.32789-0.14345-0.68896-0.21567-1.07735-0.21567s-0.74946,0.07222-1.07735,0.21567
			c-0.33179,0.14346-0.6226,0.34253-0.87633,0.59625s-0.4528,0.54941-0.59528,0.88803
			c-0.14442,0.33862-0.21664,0.69384-0.21664,1.06564c0,0.38937,0.07221,0.75239,0.21664,1.09101
			c0.14248,0.33862,0.34155,0.6304,0.59528,0.87534s0.54453,0.44402,0.87633,0.59625
			c0.32789,0.15224,0.68896,0.22836,1.07735,0.22836s0.74946-0.07612,1.07735-0.22836
			c0.33179-0.15223,0.6226-0.35131,0.87633-0.59625s0.4528-0.53672,0.59528-0.87534
			C106.30248,69.65249,106.37469,69.28947,106.37469,68.9001z M101.12261,83.46384c0.23616,0.0849,0.46061,0.15223,0.67139,0.20298
			c0.21274,0.05074,0.47427,0.09758,0.7885,0.13954c0.31227,0.04197,0.65382,0.06343,1.0266,0.06343s0.71433-0.02146,1.0266-0.06343
			c0.31423-0.04196,0.57576-0.0888,0.7885-0.13954c0.21078-0.05075,0.43523-0.11808,0.67139-0.20298V85.519
			c-0.20298,0.13564-0.40987,0.24104-0.62065,0.31715c-0.21274,0.07612-0.47427,0.14346-0.7885,0.20298
			c-0.31227,0.05952-0.67139,0.08881-1.07735,0.08881s-0.76508-0.02928-1.07735-0.08881
			c-0.31423-0.05952-0.57576-0.12686-0.7885-0.20298c-0.21078-0.07612-0.41767-0.18151-0.62065-0.31715V83.46384z"/>
		<path class="st5" d="M52.33571,52.14462c1.78382,0.65052,3.33853,1.54243,4.6614,2.6771
			c1.32286,1.13467,2.3757,2.46435,3.15578,3.98906s1.17012,3.16124,1.17012,4.91097c0,0.96964-0.12274,1.90929-0.37367,2.81893
			c-0.24548,0.90964-0.60825,1.77837-1.08012,2.60618c-0.47187,0.82781-1.03374,1.59562-1.68563,2.30479
			c-0.64916,0.70917-1.37469,1.34741-2.17932,1.91475l4.21953,7.83627l-10.1056-5.28328
			c-0.28366,0.04773-0.56733,0.0941-0.851,0.14183c-0.28366,0.04773-0.57278,0.08865-0.87009,0.1241
			c-0.29457,0.03546-0.58915,0.05865-0.88373,0.07092c-0.2973,0.01227-0.59734,0.01772-0.90555,0.01772
			c-2.03203,0-3.94132-0.3314-5.72787-0.99283c-1.78382-0.66143-3.33853-1.56017-4.6614-2.69482
			c-1.32287-1.13467-2.37571-2.46435-3.15578-3.98905c-0.78008-1.52471-1.17012-3.15033-1.17012-4.87551
			c0-1.74973,0.39004-3.38626,1.17012-4.91097c0.78008-1.5247,1.83292-2.85439,3.15578-3.98906
			c1.32286-1.13466,2.87757-2.02657,4.6614-2.6771c1.78655-0.65052,3.69584-0.9751,5.72787-0.9751
			C48.63987,51.16952,50.54916,51.4941,52.33571,52.14462z"/>
		<path class="st4" d="M50.79312,59.02166c0.07273,0.0591,0.14244,0.11516,0.2076,0.16744
			c0.06516,0.05228,0.1288,0.11516,0.18638,0.18714c0.06061,0.07198,0.13486,0.16062,0.22729,0.26593l0.0591,0.0591l2.32449-0.43338
			l1.04405,2.22599l-2.12749,1.49712l0.0197,0.0985c0.01364,0.13108,0.02576,0.24321,0.0394,0.33488
			s0.02273,0.18032,0.02879,0.26594c0.00758,0.08561,0.00758,0.17729,0,0.27579c-0.00606,0.0985-0.01516,0.21365-0.02879,0.34473
			v0.0985l2.24569,1.31983l-0.82736,2.32449l-2.58057-0.45308l-0.0394,0.0788c-0.0788,0.10532-0.1485,0.19699-0.20608,0.27579
			c-0.06061,0.0788-0.11819,0.14774-0.17881,0.20684c-0.05758,0.0591-0.12426,0.12122-0.19699,0.18714
			c-0.07122,0.06591-0.15305,0.13789-0.24548,0.21669l-0.0788,0.0591l0.65007,2.56087l-2.22599,1.02435l-1.53653-2.12749h-0.0788
			c-0.13183,0.02652-0.24245,0.04622-0.33488,0.0591s-0.18032,0.0197-0.26518,0.0197c-0.08637,0-0.17426,0-0.26669,0
			s-0.21063-0.00682-0.35458-0.0197l-0.0788-0.0197l-1.31984,2.28509l-2.30479-0.84706l0.23639-2.38358l-0.0788-0.0591
			c-0.10455-0.06591-0.19396-0.12804-0.26669-0.18714c-0.07122-0.05909-0.13638-0.11516-0.19699-0.16743
			c-0.05758-0.05228-0.12122-0.11517-0.18638-0.18714c-0.06516-0.07198-0.13789-0.16063-0.21669-0.26594l-0.0591-0.0591
			l-2.36388,0.43338l-1.04405-2.22599l2.18659-1.51683l-0.0197-0.0985c-0.01364-0.11819-0.02576-0.2235-0.0394-0.31518
			c-0.01364-0.09168-0.02273-0.17729-0.0303-0.25609c-0.00606-0.0788-0.00606-0.16441,0-0.25609
			c0.00758-0.09168,0.01667-0.20381,0.0303-0.33488v-0.0985l-2.30479-1.35923l0.84706-2.30479l2.61997,0.47278l0.0394-0.0788
			c0.0788-0.11819,0.14698-0.21366,0.2076-0.28564c0.05758-0.07198,0.11365-0.13789,0.16668-0.19699
			s0.11213-0.11819,0.17729-0.17729c0.06516-0.05909,0.15153-0.12804,0.25609-0.20684l0.05909-0.0591l-0.66977-2.60027
			l2.22599-1.04405l1.53653,2.16689h0.0985c0.13183-0.02652,0.24245-0.04622,0.33488-0.0591
			c0.09243-0.01288,0.18032-0.02273,0.2667-0.02955c0.08485-0.00682,0.16971-0.00682,0.25457,0
			c0.08637,0.00682,0.20154,0.01667,0.34549,0.02955h0.0788l1.31984-2.28509l2.30479,0.84706l-0.21669,2.36388l0.0591,0.0394
			C50.62644,58.89362,50.7219,58.96256,50.79312,59.02166z M42.97412,64.17296c0.03182,0.48566,0.14698,0.94252,0.34398,1.36908
			s0.47277,0.80766,0.82736,1.14255c0.35458,0.33488,0.76826,0.58794,1.24104,0.75841
			c0.47277,0.17047,0.95161,0.24321,1.43803,0.21669c0.48641-0.02652,0.94252-0.14092,1.36832-0.34473
			c0.42731-0.2038,0.80463-0.47959,1.13345-0.82735c0.32882-0.34776,0.58491-0.75842,0.76826-1.23119
			c0.17123-0.48566,0.24245-0.97207,0.21669-1.45773s-0.14092-0.93874-0.34549-1.35923
			c-0.20305-0.4205-0.47884-0.79781-0.82736-1.13269c-0.34701-0.33488-0.76372-0.594-1.25013-0.77811
			c-0.47278-0.17048-0.95161-0.23942-1.43803-0.20684c-0.48642,0.03258-0.94252,0.14774-1.36984,0.34473
			c-0.4258,0.19699-0.80614,0.47277-1.14254,0.82736c-0.33337,0.35458-0.58643,0.76826-0.75766,1.24104
			C43.00898,63.2077,42.94079,63.6873,42.97412,64.17296z"/>
	</g>
</g>
</svg>
