<svg id="Layer_1" data-name="Layer 1" xmlns="http://www.w3.org/2000/svg" viewBox="0 0 160.137 184.91"><defs><style>.cls-1{fill:#b3c143;fill-opacity:0.5;stroke:#b3c143;stroke-miterlimit:10;stroke-width:2px;stroke-dasharray:5 5;opacity:0.5;}.cls-2{fill:#c2cc49;}.cls-3{fill:#42591e;}</style></defs><title>product-feature-2</title><polygon class="cls-1" points="159.137 138.105 80.068 183.755 1 138.105 1 46.805 80.068 1.155 159.137 46.805 159.137 138.105"/><path class="cls-2" d="M118.387,82.964L119.5,104.3a2.522,2.522,0,0,1-.249,1.112,2.452,2.452,0,0,1-.716.859,4.329,4.329,0,0,1-1.058.607,3.4,3.4,0,0,1-1.314.253h-4.954v8.493a4.3,4.3,0,0,1-.4,1.87,3.947,3.947,0,0,1-1.213,1.466,7.759,7.759,0,0,1-1.82,1.011,5.709,5.709,0,0,1-2.123.4,6.045,6.045,0,0,1-2.17-.4,6.458,6.458,0,0,1-1.82-1.011,4.451,4.451,0,0,1-1.213-1.466,3.851,3.851,0,0,1-.459-1.87v-8.493H60.758v8.493a4.3,4.3,0,0,1-.4,1.87,4.2,4.2,0,0,1-1.159,1.466,6.923,6.923,0,0,1-1.82,1.011,6.065,6.065,0,0,1-4.355,0,6.923,6.923,0,0,1-1.82-1.011,4.2,4.2,0,0,1-1.159-1.466,4.3,4.3,0,0,1-.4-1.87v-8.493H44.075a3.694,3.694,0,0,1-1.415-.253,4.329,4.329,0,0,1-1.058-.607,2.452,2.452,0,0,1-.716-0.859,2.522,2.522,0,0,1-.249-1.112L41.75,82.964a2.785,2.785,0,0,1,1.112-2.224,11.632,11.632,0,0,1,2.38-1.517,21.917,21.917,0,0,1,3.383-1.213L59.241,53.947a12.58,12.58,0,0,1,.964-1.314,3.482,3.482,0,0,1,.653-0.607,1.57,1.57,0,0,1,.653-0.253,7.043,7.043,0,0,1,.964-0.051H97.66a8.151,8.151,0,0,1,1.011.051,2.052,2.052,0,0,1,.762.253,2.867,2.867,0,0,1,.7.607A7.479,7.479,0,0,1,101,53.947L111.916,78.01a20.906,20.906,0,0,1,3.235,1.213,10.047,10.047,0,0,1,2.224,1.517A2.873,2.873,0,0,1,118.387,82.964ZM52.366,97.927a6.886,6.886,0,0,0,2.784-.556,6.614,6.614,0,0,0,2.17-1.517,7.8,7.8,0,0,0,1.47-2.224,6.776,6.776,0,0,0,0-5.359,6.9,6.9,0,0,0-3.64-3.64,6.886,6.886,0,0,0-2.784-.556,6.582,6.582,0,0,0-2.675.556,6.833,6.833,0,0,0-3.64,3.64,6.69,6.69,0,0,0,0,5.359,7.615,7.615,0,0,0,1.462,2.224A6.722,6.722,0,0,0,52.366,97.927ZM58.938,77.5h43.07a2.97,2.97,0,0,0,.957-0.152,1.866,1.866,0,0,0,.762-0.455,1.952,1.952,0,0,0,.451-0.657,1.364,1.364,0,0,0,.054-0.859L97.357,58.193a2.322,2.322,0,0,0-.4-0.809,2.577,2.577,0,0,0-.708-0.657,6.2,6.2,0,0,0-.91-0.455,2.934,2.934,0,0,0-1.112-.2H65.914a2.934,2.934,0,0,0-1.112.2,6.2,6.2,0,0,0-.91.455,1.955,1.955,0,0,0-.653.657,2.834,2.834,0,0,0-.358.809l-6.37,17.188a1.364,1.364,0,0,0,.054.859,1.727,1.727,0,0,0,.5.657,2.522,2.522,0,0,0,.809.455A3.42,3.42,0,0,0,58.938,77.5Zm48.833,20.423a6.722,6.722,0,0,0,4.853-2.073,7.615,7.615,0,0,0,1.462-2.224,6.69,6.69,0,0,0,0-5.359,6.833,6.833,0,0,0-3.64-3.64,6.582,6.582,0,0,0-2.675-.556,6.886,6.886,0,0,0-2.784.556,6.9,6.9,0,0,0-3.64,3.64,6.776,6.776,0,0,0,0,5.359,7.8,7.8,0,0,0,1.47,2.224,6.614,6.614,0,0,0,2.17,1.517A6.886,6.886,0,0,0,107.771,97.927Z" transform="translate(0 0)"/><path class="cls-3" d="M104.971,132.6a4.262,4.262,0,0,0-4.262-4.211H59.427a4.262,4.262,0,0,0-4.262,4.211l-0.022,1.849h49.85Z" transform="translate(0 0)"/><polygon class="cls-3" points="91.503 110.399 68.634 110.399 62.645 125.06 97.492 125.06 91.503 110.399"/><polygon class="cls-3" points="87.751 101.165 72.385 101.165 70.942 104.555 89.194 104.555 87.751 101.165"/><path class="cls-3" d="M83.151,89.357a3.33,3.33,0,0,0-6.166,0l-2.436,5.965H85.587Z" transform="translate(0 0)"/></svg>