<?xml version="1.0" encoding="utf-8"?>
<!-- Generator: Adobe Illustrator 19.1.0, SVG Export Plug-In . SVG Version: 6.00 Build 0)  -->
<svg version="1.1" id="Layer_1" xmlns="http://www.w3.org/2000/svg" xmlns:xlink="http://www.w3.org/1999/xlink" x="0px" y="0px"
	 viewBox="0 0 160.1367 184.90993" style="enable-background:new 0 0 160.1367 184.90993;" xml:space="preserve">
<style type="text/css">
	.st0{opacity:0.5;}
	.st1{fill:#B3C143;}
	.st2{fill:#78953C;}
	.st3{fill:#42591E;}
</style>
<g>
	<g class="st0">
		<path class="st1" d="M80.45531,1.76188c0,0-0.01675,0.00967-0.04822,0.02786l-0.0007,0.0004
			c-0.01566,0.00903-0.03491,0.02017-0.05756,0.03323l-0.00122,0.0007c-0.01117,0.00644-0.02313,0.01334-0.03586,0.02069
			L80.31069,1.8454c-0.0062,0.00357-0.0126,0.00726-0.01913,0.01105l-0.00131,0.00073
			c-0.00262,0.00153-0.00537,0.00311-0.00806,0.00467l-0.00464,0.00266L80.27743,1.8646l-0.01553,0.00897
			c-0.0007,0.0004-0.00131,0.00076-0.00201,0.00116l-0.00354,0.00204c-0.00095,0.00055-0.00189,0.0011-0.00287,0.00165
			l-0.00281,0.00162c-0.00058,0.00034-0.00122,0.0007-0.00183,0.00107l-0.00433,0.0025
			c-0.00104,0.00058-0.00223,0.00128-0.00327,0.00189L80.2394,1.88654c-0.00085,0.00052-0.00174,0.00101-0.00259,0.0015
			L80.21679,1.8996c-0.00134,0.00079-0.00284,0.00165-0.00421,0.00241l-0.00372,0.00217
			c-0.00281,0.00162-0.00555,0.0032-0.00842,0.00485l-0.00595,0.00345c-0.00034,0.00018-0.0007,0.0004-0.00104,0.00058
			l-0.00497,0.0029c-0.00043,0.00024-0.00067,0.00037-0.00107,0.00061l-0.05167,0.02982
			c-0.00116,0.00067-0.00235,0.00137-0.00354,0.00204l-4.00702,2.31348l1,1.73203l4.33014-2.5L80.45531,1.76188L80.45531,1.76188
			L80.45531,1.76188z M71.79507,6.76188c0,0-0.17834,0.103-0.46265,0.26712l-0.00226,0.00131
			c-0.01593,0.00919-0.03223,0.01859-0.0488,0.02817l-0.00009,0.00003c-0.00497,0.0029-0.00986,0.00571-0.01492,0.00864
			l-0.00555,0.0032c-0.00464,0.00269-0.00919,0.00531-0.01385,0.008l-0.00049,0.00031
			c-0.00549,0.00314-0.01099,0.00632-0.01654,0.00952l-0.00177,0.00104c-0.0051,0.00293-0.01022,0.00589-0.01538,0.00888
			l-0.00381,0.0022c-0.00159,0.00092-0.0033,0.00189-0.00491,0.00284l-0.02121,0.01224
			C71.1813,7.11625,71.17956,7.11726,71.178,7.11814l-0.00595,0.00345c-0.00153,0.00089-0.00308,0.00177-0.00464,0.00266
			l-3.70248,2.13766l1,1.73203l4.33014-2.5L71.79507,6.76188L71.79507,6.76188z M63.13482,11.76188
			c0,0-0.34149,0.19717-0.83282,0.48083L62.29803,12.245c-0.01294,0.00748-0.02615,0.01511-0.03931,0.02271l-0.00031,0.00018
			c-0.01273,0.00732-0.02533,0.01462-0.03824,0.02206l-0.00702,0.00406c-0.01202,0.00693-0.02417,0.01395-0.03638,0.021
			l-0.00656,0.00378c-0.00494,0.00287-0.0101,0.00583-0.01505,0.0087l-0.0498,0.02875
			c-0.00195,0.00113-0.00375,0.00217-0.00571,0.0033l-3.29498,1.90237l1,1.73203l4.33014-2.5L63.13482,11.76188L63.13482,11.76188z
			 M54.47457,16.76188c0,0-0.51138,0.29526-1.18277,0.68286l-0.00085,0.00052c-0.01501,0.00867-0.03003,0.01733-0.04523,0.02609
			l-0.00079,0.00046c-0.01483,0.00858-0.02975,0.01718-0.04471,0.02582l-0.00256,0.0015
			c-0.01413,0.00815-0.02823,0.0163-0.04248,0.02451l-0.00909,0.00525c-0.00037,0.00021-0.0007,0.00043-0.00107,0.00064
			l-0.1058,0.06107c-0.00024,0.00015-0.00064,0.0004-0.00089,0.00052l-2.89389,1.67081l1,1.73203l4.33014-2.5L54.47457,16.76188
			L54.47457,16.76188z M45.81432,21.76188c0,0-0.71329,0.41183-1.56094,0.90121l-0.00458,0.00262
			c-0.03125,0.01807-0.06256,0.03613-0.09412,0.05435l-0.00388,0.00223c-0.0076,0.00439-0.01511,0.00873-0.02271,0.01312
			l-0.00073,0.00043c-0.00363,0.00211-0.00739,0.00427-0.01102,0.00635l-0.00476,0.00275
			c-0.00104,0.00061-0.00204,0.00119-0.00308,0.0018l-2.62433,1.51517l1,1.73203l4.33014-2.5L45.81432,21.76188L45.81432,21.76188z
			 M37.15405,26.76191l-4.33011,2.5l1,1.73203l4.33011-2.5l-1-1.73206V26.76191z M28.4938,31.76191l-4.33012,2.5l1,1.73203
			l4.33011-2.5l-1-1.73206L28.4938,31.76191z M19.83353,36.76191l-4.33011,2.49997l1,1.73206l4.33011-2.5l-1-1.73206V36.76191z
			 M11.17329,41.76191l-4.33012,2.5l0.99998,1.73203l4.33014-2.5l-1-1.73206V41.76191z M2.51304,46.76191l-1.08409,0.62589
			c-0.00063,0.00037-0.00124,0.00073-0.00185,0.00107l-0.00008,0.00006c-0.00076,0.00043-0.00151,0.00085-0.00226,0.00128
			L1.4242,47.39054c-0.00159,0.00092-0.0031,0.0018-0.00458,0.00266l-0.00027,0.00015
			c-0.00145,0.00082-0.00284,0.00165-0.0042,0.00241l-0.00067,0.0004c-0.00282,0.00162-0.00545,0.00314-0.00787,0.00455
			l-0.00017,0.00009c-0.00241,0.0014-0.00461,0.00266-0.00658,0.00381l-0.00041,0.00021
			c-0.00813,0.0047-0.01247,0.0072-0.01247,0.0072l0,0l0,0v3.69977h2v-2.54507l0.12605-0.07278l-0.12605-0.21832v-0.86359h-0.4986
			l-0.37535-0.65015V46.76191z M3.38699,56.11179h-2v5h2V56.11179L3.38699,56.11179z M3.38699,66.11179h-2v5h2V66.11179
			L3.38699,66.11179z M3.38699,76.11179h-2v5h2V76.11179L3.38699,76.11179z M3.38699,86.11179h-2v5h2V86.11179L3.38699,86.11179z
			 M3.38699,96.11179h-2v5h2V96.11179L3.38699,96.11179z M3.38699,106.11179h-2v5h2V106.11179L3.38699,106.11179z
			 M3.38699,116.11179h-2v5h2V116.11179L3.38699,116.11179z M3.38699,126.11179h-2v4.99999h2V126.11179L3.38699,126.11179z
			 M3.38699,136.11179h-2v2.60049l0,0c0,0,0.03246,0.01874,0.08922,0.05151l0.00015,0.00009
			c0.0567,0.03271,0.13759,0.07944,0.2347,0.1355l0.00127,0.00073c0.09682,0.05588,0.20979,0.12112,0.33064,0.19089l0.00273,0.00159
			c0.06036,0.03485,0.12282,0.07089,0.18617,0.10748l0.00093,0.00052c0.0314,0.01816,0.06305,0.03641,0.09482,0.05475
			l0.00223,0.00128c0.01529,0.00882,0.03052,0.01764,0.04585,0.02649l0.00362,0.00208
			c0.0031,0.0018,0.00636,0.00366,0.00946,0.00546l0.0018,0.00104c0.00311,0.0018,0.00633,0.00366,0.00945,0.00546l0.00304,0.00174
			c0.00342,0.00198,0.00677,0.00394,0.01019,0.00589l0.00153,0.00089c0.00151,0.00089,0.00308,0.00177,0.00459,0.00266
			l0.00833,0.00479c0.0033,0.00192,0.00653,0.00378,0.00983,0.00571l0.00127,0.0007
			c0.00298,0.00174,0.00594,0.00345,0.00893,0.00516l0.00485,0.00281c0.00685,0.00397,0.01369,0.0079,0.02052,0.01184
			l0.00345,0.00201c0.00735,0.00424,0.01469,0.00848,0.02203,0.0127l0.00095,0.00055
			c0.00728,0.00421,0.01456,0.00842,0.02182,0.0126l0.00391,0.00226c0.00133,0.00076,0.00252,0.00146,0.00385,0.00223
			l0.00046,0.00024c0.00594,0.00345,0.01175,0.00681,0.01768,0.01022l0.0005,0.00031
			c0.00787,0.00455,0.01575,0.00906,0.02361,0.01361l0.00081,0.00049c0.01521,0.00876,0.0304,0.01752,0.0455,0.02625
			l0.00459,0.00266c0.00099,0.00058,0.00197,0.00113,0.00296,0.00171l0.00076,0.00046
			c0.0139,0.00803,0.02776,0.01602,0.04155,0.02399h0.00003c0.01515,0.00876,0.03026,0.01749,0.04526,0.02615l0.00369,0.00211
			c0.00722,0.00418,0.01439,0.00833,0.02156,0.01245l0.00035,0.00021c0.01939,0.0112,0.03853,0.02225,0.05757,0.03323
			l0.00026,0.00015c0.00191,0.0011,0.00386,0.00223,0.00577,0.00333l0.01193,0.0069c0.0013,0.00073,0.00255,0.00146,0.00386,0.00223
			l0.00171,0.00098c0.00313,0.00183,0.00621,0.0036,0.00934,0.0054l0.00314,0.0018c0.00653,0.00378,0.01314,0.0076,0.01962,0.01135
			l0.00175,0.00101c0.0146,0.00842,0.02905,0.01675,0.04337,0.02502l0.00125,0.00073c0.0139,0.00803,0.02777,0.01602,0.04137,0.0239
			l0.00229,0.00131c0.00665,0.00385,0.01332,0.00769,0.0199,0.01147l0.00143,0.00082c0.0031,0.0018,0.00609,0.00354,0.00917,0.00531
			l0.00119,0.00067c0.00203,0.00119,0.00404,0.00235,0.00606,0.00351l0.00555,0.0032
			c0.00098,0.00058,0.00203,0.00116,0.00301,0.00174l0.00069,0.0004c0.00119,0.0007,0.0023,0.00131,0.00349,0.00201l0.00221,0.00128
			c0.00291,0.00168,0.00572,0.0033,0.00864,0.00497l0.00165,0.00098c0.00468,0.00269,0.00937,0.0054,0.01399,0.00806
			l0.00124,0.00073c0.00101,0.00058,0.00201,0.00116,0.00302,0.00174l0.00279,0.00162
			c0.0027,0.00156,0.00548,0.00314,0.00816,0.0047l0.00098,0.00055c0.00269,0.00156,0.00531,0.00308,0.00797,0.00461
			l0.00345,0.00198c0.00084,0.00049,0.00159,0.00092,0.00241,0.0014l0.00131,0.00076
			c0.0011,0.00061,0.00226,0.00128,0.00334,0.00192l0.00343,0.00198c0.00009,0.00006,0.00029,0.00015,0.0004,0.00021
			l0.01904,0.01102c0.00052,0.00027,0.00093,0.00052,0.00143,0.00082l0.0076,0.00439
			c0.00267,0.00153,0.00531,0.00305,0.00795,0.00458l0.00063,0.00037c0.0024,0.00137,0.00487,0.00281,0.00725,0.00418
			l0.00386,0.00223c0.00079,0.00046,0.00148,0.00085,0.00227,0.00131l0.00137,0.00079
			c0.00078,0.00046,0.00162,0.00095,0.00241,0.0014l0.00241,0.00137c0.00259,0.0015,0.0052,0.00302,0.00778,0.00449l0.00172,0.00101
			c0.00243,0.0014,0.00484,0.00281,0.00725,0.00418l0.00275,0.00159c0.00052,0.00031,0.00105,0.00061,0.00159,0.00092
			l0.01178,0.00681c0.00056,0.00034,0.00114,0.00067,0.00171,0.00101l0.00328,0.00186
			c0.00043,0.00024,0.0009,0.00055,0.00133,0.00079l0.00284,0.00162c0.00038,0.00021,0.00066,0.0004,0.00102,0.00061
			l0.00394,0.00226c0.00027,0.00015,0.00052,0.00031,0.00079,0.00046l0.00778,0.00449
			c0.0006,0.00037,0.00128,0.00076,0.00188,0.0011l0.0018,0.00104c0.00055,0.00031,0.00116,0.00067,0.00171,0.00098l0.00351,0.00204
			c0.00209,0.00119,0.00426,0.00244,0.00633,0.00363l0.00114,0.00067c0.00203,0.00116,0.00407,0.00235,0.00607,0.00351
			l0.00359,0.00208c0.00052,0.00031,0.00111,0.00064,0.00165,0.00095l0.00235,0.00134
			c0.00044,0.00027,0.00081,0.00049,0.00125,0.00073l0.0154,0.00888c0.00052,0.00031,0.00107,0.00064,0.00159,0.00092
			l0.00204,0.00119c0.00197,0.00113,0.004,0.00232,0.00594,0.00342l0.00302,0.00177c0.0022,0.00125,0.00432,0.00247,0.00648,0.00372
			l0.00006,0.00003c0.00229,0.00134,0.00453,0.00262,0.00681,0.00394l0.0042,0.00241
			c0.0013,0.00076,0.00264,0.00153,0.00394,0.00229l0.00117,0.00067c0.00198,0.00116,0.00395,0.00229,0.00592,0.00342
			l0.00209,0.00122c0.00349,0.00201,0.00697,0.00403,0.01041,0.00601l0.00575,0.0033
			c0.00015,0.00009,0.00032,0.00021,0.00047,0.00027l0.00237,0.00137c0.00069,0.0004,0.00133,0.00076,0.00201,0.00116
			l0.00102,0.00061c0.00696,0.004,0.01366,0.00787,0.02028,0.01169l0.00241,0.0014c0.00403,0.00232,0.00797,0.00458,0.01186,0.00684
			l0.00021,0.00012c0.0041,0.00238,0.00812,0.0047,0.01208,0.00699l0.00203,0.00116
			c0.00386,0.00223,0.00769,0.00446,0.01141,0.00659l0.00018,0.00012c0.00375,0.00217,0.00743,0.00427,0.01103,0.00635
			l0.00185,0.00107c0.00337,0.00195,0.00659,0.00381,0.00983,0.00568l0.00134,0.00079
			c0.00122,0.0007,0.00243,0.00137,0.00363,0.00208l0.01303,0.00754c0.00043,0.00024,0.00081,0.00046,0.00124,0.0007
			l0.00032,0.00018c0.00061,0.00037,0.00122,0.0007,0.00183,0.00107l0.00143,0.00082
			c0.00133,0.00076,0.00262,0.00153,0.00392,0.00226l0.00061,0.00037c0.00125,0.0007,0.00252,0.00143,0.00372,0.00214
			l0.00186,0.00107c0.00009,0.00006,0.00018,0.00012,0.00027,0.00018l0.00125,0.0007c0.00061,0.00037,0.00119,0.0007,0.0018,0.00104
			l0.00035,0.00021c0.00127,0.00073,0.00256,0.00146,0.0038,0.0022l0.00102,0.00058
			c0.00269,0.00156,0.00522,0.00302,0.00772,0.00446l0.00079,0.00046c0.00526,0.00305,0.01018,0.00589,0.01468,0.00848
			l0.00053,0.00031c0.00215,0.00125,0.0042,0.00244,0.00616,0.00357l0.00041,0.00024
			c0.00046,0.00024,0.00085,0.00049,0.0013,0.00073l0.00031,0.00018c0.00032,0.00018,0.00063,0.00037,0.00095,0.00055
			l0.00073,0.00043c0.00032,0.00018,0.00064,0.00037,0.00096,0.00055l0.00314,0.0018
			c0.00031,0.00018,0.00056,0.00034,0.00085,0.00049l0.00061,0.00037c0.0007,0.0004,0.0014,0.00079,0.00208,0.00119l0.00058,0.00034
			c0.0007,0.00043,0.00139,0.00082,0.00206,0.00119l0.00024,0.00015c0.00031,0.00018,0.00061,0.00034,0.0009,0.00052
			l0.00061,0.00034c0.00002,0.00003,0.00006,0.00006,0.00009,0.00006l0.00082,0.00049
			c0.00122,0.0007,0.00237,0.00134,0.0034,0.00195l0.00069,0.0004c0.00043,0.00024,0.00082,0.00049,0.00124,0.0007l0.00323,0.00189
			c0.00014,0.00006,0.00027,0.00015,0.0004,0.00021l0.00014,0.00009c0.00011,0.00006,0.00021,0.00012,0.00032,0.00018
			l0.00076,0.00043c0.00011,0.00006,0.00021,0.00012,0.00032,0.00018l0.00027,0.00015
			c0.00005,0.00003,0.00011,0.00006,0.00015,0.00009l0.00031,0.00018c0.00002,0.00003,0.00005,0.00003,0.00008,0.00006
			l0.00061,0.00034c0.00005,0.00003,0.00008,0.00006,0.00012,0.00006l0.00014,0.00009
			c0.00006,0.00003,0.00014,0.00009,0.00018,0.00012l0.00008,0.00003c0.00003,0,0.00005,0.00003,0.00008,0.00003l0.00046,0.00027
			l1-1.73206l-1.07802-0.62241V136.11179L3.38699,136.11179z M8.79511,140.67996l-1,1.73206l4.33015,2.5l0.99998-1.73206
			L8.79511,140.67996L8.79511,140.67996z M17.45539,145.67996l-1,1.73206c0,0,0.42068,0.24289,0.99966,0.57715l0.00941,0.00543
			c0.00557,0.00323,0.01109,0.00641,0.01669,0.00964l0.00082,0.00049c0.00664,0.00381,0.0132,0.00763,0.01987,0.01147
			l0.00325,0.00186c0.00644,0.00372,0.01286,0.00745,0.01935,0.01117l0.0049,0.00284
			c0.00185,0.00107,0.00371,0.00214,0.00557,0.0032l0.00339,0.00195c0.00174,0.00101,0.00345,0.00198,0.00519,0.00302
			l3.24202,1.87177l1-1.73206L17.45539,145.67996L17.45539,145.67996z M26.11565,150.67996l-1,1.73206l4.33011,2.5l1-1.73206
			L26.11565,150.67996L26.11565,150.67996z M34.7759,155.67996l-1,1.73206l3.29767,1.9039
			c0.00034,0.00021,0.00095,0.00055,0.00128,0.00076l0.05362,0.03094c0.00046,0.00027,0.00085,0.00049,0.00131,0.00076
			l0.02747,0.01587c0.00223,0.00128,0.00433,0.00247,0.00653,0.00375l0.0069,0.004c0.00067,0.00037,0.00162,0.00092,0.00229,0.00131
			l0.02707,0.01562c0.00275,0.00159,0.00537,0.00311,0.00812,0.0047l0.0011,0.00061
			c0.00601,0.00348,0.01199,0.00693,0.01797,0.01038l0.00592,0.00342c0.00555,0.0032,0.01083,0.00626,0.01633,0.00943
			l0.00403,0.00232c0.0014,0.00082,0.00262,0.00153,0.00403,0.00235l0.02228,0.01285
			c0.00375,0.00217,0.00732,0.00424,0.01105,0.00638l0.00125,0.00073c0.00583,0.00336,0.01187,0.00684,0.01764,0.01019
			l0.00412,0.00235c0.01215,0.00702,0.02396,0.01385,0.03592,0.02075l0.00418,0.00241
			c0.0249,0.01437,0.04929,0.02844,0.0733,0.04233l0.00443,0.00256c0.40463,0.23361,0.67435,0.38931,0.67435,0.38931l1-1.73206
			L34.7759,155.67996L34.7759,155.67996z M43.43615,160.67996l-1,1.73206l4.33014,2.5l1-1.73206L43.43615,160.67996
			L43.43615,160.67996z M52.0964,165.67996l-1,1.73206l4.33014,2.5l1-1.73206L52.0964,165.67996L52.0964,165.67996z
			 M60.75665,170.67996l-1,1.73206l4.33014,2.5l1-1.73206L60.75665,170.67996L60.75665,170.67996z M69.41692,175.67996l-1,1.73206
			l4.33011,2.5l1-1.73206L69.41692,175.67996L69.41692,175.67996z M78.07717,180.67996l-1,1.73206l3.09772,1.78845
			c0.00073,0.00043,0.00146,0.00085,0.00217,0.00125l0.00397,0.00229c0.00076,0.00046,0.0015,0.00089,0.00226,0.00131
			l0.00223,0.00128c0.00089,0.00052,0.00165,0.00098,0.00253,0.00146l0.0047,0.00272
			c0.00275,0.00159,0.00546,0.00314,0.00818,0.00473l0.00101,0.00058c0.00305,0.00174,0.00607,0.00351,0.00906,0.00522
			l0.00229,0.00134c0.00317,0.00183,0.00629,0.00363,0.0094,0.0054l0.00095,0.00058
			c0.00116,0.00067,0.00241,0.00137,0.00354,0.00204l0.0137,0.0079c0.00034,0.00018,0.00058,0.00034,0.00092,0.00052l0.00378,0.0022
			c0.00092,0.00052,0.00183,0.00104,0.00275,0.00156l0.00232,0.00137c0.00043,0.00021,0.00092,0.00052,0.00134,0.00076
			l0.00336,0.00192c0.00577,0.00333,0.01141,0.00659,0.01697,0.0098l0.00314,0.00183
			c0.00244,0.0014,0.00485,0.00278,0.00723,0.00418l0.00089,0.00049c0.00247,0.00143,0.00491,0.00284,0.00735,0.00424
			l0.00275,0.00162c0.00095,0.00052,0.00183,0.00104,0.00278,0.00159l0.00122,0.0007
			c0.00089,0.00052,0.00171,0.00098,0.00259,0.0015l0.00201,0.00116c0.00134,0.00076,0.00262,0.00153,0.00397,0.00229
			l0.0098,0.00565c0.00034,0.00021,0.0007,0.00043,0.00107,0.00064l0.00284,0.00162c0.00211,0.00122,0.00415,0.00241,0.0062,0.0036
			l0.0015,0.00085c0.0051,0.00296,0.01013,0.00586,0.01495,0.00864l0.00076,0.00043
			c0.07169,0.04141,0.11197,0.06467,0.11197,0.06467l0,0l0.95197-0.54965l-0.31732-0.54962l0.36536-0.63278l0,0l0,0l0,0
			L78.07717,180.67996L78.07717,180.67996z M89.06756,177.08072l-4.33014,2.5l1,1.73203c0,0,0.78497-0.45319,1.68634-0.97357
			l0.00049-0.00031c0.00375-0.00217,0.00769-0.00443,0.01144-0.00659l2.63187-1.51953L89.06756,177.08072L89.06756,177.08072z
			 M97.72781,172.08072l-4.33014,2.5l1,1.73206l4.33014-2.5L97.72781,172.08072L97.72781,172.08072z M106.38805,167.08072
			l-4.33014,2.5l1,1.73206l4.33014-2.5L106.38805,167.08072L106.38805,167.08072z M115.0483,162.08072l-4.33011,2.5l1,1.73206
			l4.33011-2.5L115.0483,162.08072L115.0483,162.08072z M123.70855,157.08072l-4.33011,2.5l1,1.73206l3.7009-2.13672
			c0.0025-0.00143,0.00497-0.00287,0.00748-0.0043l0.00241-0.0014c0.0051-0.00293,0.01022-0.00589,0.01526-0.00882l0.00439-0.00253
			c0.36295-0.20953,0.59967-0.34622,0.59967-0.34622L123.70855,157.08072L123.70855,157.08072z M132.36884,152.08072l-4.33014,2.5
			l1,1.73206l4.33014-2.5L132.36884,152.08072L132.36884,152.08072z M141.02911,147.08072l-4.33014,2.5l1,1.73206
			c0,0,0.60608-0.34991,1.36481-0.78796l0.01959-0.01132c0.00259-0.0015,0.005-0.0029,0.0076-0.00439l0.00537-0.00311
			c0.00635-0.00366,0.0127-0.00732,0.01907-0.01099l0.00278-0.00162c0.00723-0.00418,0.01477-0.00854,0.02206-0.01273
			l0.00134-0.00079c0.00488-0.00281,0.00986-0.00568,0.01474-0.00851l0.01263-0.00729
			c0.00641-0.00369,0.01309-0.00757,0.01953-0.01126l0.00104-0.00061c0.00684-0.00394,0.01373-0.0079,0.02057-0.01187
			l0.00806-0.00464c0.00241-0.0014,0.00458-0.00266,0.00699-0.00403l0.00076-0.00046
			c0.00241-0.0014,0.00476-0.00275,0.00717-0.00415l0.108-0.06235c0.00104-0.00061,0.00186-0.00107,0.0029-0.00168l2.68509-1.55023
			L141.02911,147.08072L141.02911,147.08072z M149.68936,142.08072l-4.33014,2.5l1,1.73206l4.33014-2.5L149.68936,142.08072
			L149.68936,142.08072z M158.34961,137.08072l-4.33011,2.5l1,1.73206l1.29193-0.74591
			c0.00085-0.00049,0.00159-0.00092,0.00244-0.0014l0.02148-0.01242c0.00049-0.00027,0.00073-0.0004,0.00122-0.0007l0.06738-0.03891
			c0.0025-0.00143,0.00494-0.00284,0.00745-0.00427l0.00565-0.00327c1.26538-0.73056,2.93256-1.69312,2.93256-1.69312
			L158.34961,137.08072L158.34961,137.08072z M159.52368,128.91327h-2v5h2V128.91327L159.52368,128.91327z M159.52368,118.91328h-2
			v5h2V118.91328L159.52368,118.91328z M159.52368,108.91328h-2v5h2V108.91328L159.52368,108.91328z M159.52368,98.91328h-2v5h2
			V98.91328L159.52368,98.91328z M159.52368,88.91328h-2v5h2V88.91328L159.52368,88.91328z M159.52368,78.91328h-2v5h2V78.91328
			L159.52368,78.91328z M159.52368,68.91328h-2v5h2V68.91328L159.52368,68.91328z M159.52368,58.91328h-2v5h2V58.91328
			L159.52368,58.91328z M159.52368,48.91328h-2v5h2V48.91328L159.52368,48.91328z M152.16357,43.16267l-1,1.73206l4.33011,2.5
			l1-1.73206L152.16357,43.16267L152.16357,43.16267z M143.5033,38.16267l-1,1.73206l4.33014,2.5l1-1.73206L143.5033,38.16267
			L143.5033,38.16267z M134.84305,33.16267l-1,1.73206l4.33014,2.5l1-1.73206L134.84305,33.16267L134.84305,33.16267z
			 M126.18279,28.16267l-1,1.73206l4.33015,2.5l1-1.73206L126.18279,28.16267L126.18279,28.16267z M117.52254,23.16267l-1,1.73206
			l4.33014,2.5l1-1.73206L117.52254,23.16267L117.52254,23.16267z M108.8623,18.16267l-1,1.73206l4.33011,2.5l1-1.73206
			L108.8623,18.16267L108.8623,18.16267z M100.20205,13.16267l-1,1.73206l4.33011,2.5l1-1.73206L100.20205,13.16267
			L100.20205,13.16267z M91.54177,8.16267l-1,1.73206l4.33014,2.5l1-1.73206L91.54177,8.16267L91.54177,8.16267z M82.88152,3.16267
			l-1,1.73206l4.33014,2.5l1-1.73206L82.88152,3.16267L82.88152,3.16267z"/>
	</g>
	<g>
		<path class="st2" d="M57.72415,113.79134h45.46237V91.06016c0-7.5591-2.44857-13.94121-7.07951-18.45609
			c-4.13704-4.0331-9.69526-6.25396-15.65168-6.25396c-5.95531,0-11.51354,2.22086-15.65058,6.25396
			c-4.63203,4.51488-7.0806,10.897-7.0806,18.45609V113.79134z M62.22968,91.06016c0-13.88181,9.44777-20.20452,18.22565-20.20452
			s18.22565,6.32272,18.22565,20.20452v18.22565H83.27129v-9.76305c2.85474-1.12453,4.87816-3.90047,4.87816-7.15457
			c0-4.24911-3.4446-7.69364-7.69357-7.69364c-4.2491,0-7.6937,3.44453-7.6937,7.69364c0,3.25375,2.02294,6.02943,4.8772,7.15423
			v9.7634H62.22968V91.06016z"/>
		<path class="st1" d="M38.56565,93.45457c-1.32208,0-2.39472-1.07186-2.39472-2.39472
			c0-13.50694,4.70057-25.22641,13.59346-33.8909c0.94635-0.92374,2.46176-0.90425,3.38628,0.04366
			c0.92296,0.94713,0.90425,2.46332-0.04366,3.38628c-7.94654,7.74308-12.14665,18.2761-12.14665,30.46096
			C40.96038,92.38271,39.88774,93.45457,38.56565,93.45457z"/>
		<path class="st1" d="M122.34499,93.45457c-1.32209,0-2.39472-1.07186-2.39472-2.39472
			c0-12.18251-4.19855-22.71554-12.14198-30.46018c-0.94791-0.92374-0.96662-2.43993-0.04366-3.38706
			c0.92608-0.94557,2.44305-0.9635,3.38628-0.04287c8.88977,8.6676,13.58878,20.3863,13.58878,33.89011
			C124.7397,92.38271,123.66707,93.45457,122.34499,93.45457z"/>
		<path class="st1" d="M112.76611,93.45457c-1.32209,0-2.39472-1.07186-2.39472-2.39472
			c0-9.09946-3.03237-16.86516-8.76661-22.45673c-0.94791-0.92374-0.96661-2.43993-0.04365-3.38706
			c0.92608-0.94557,2.4446-0.9635,3.38628-0.04288c6.68214,6.51454,10.21341,15.4659,10.21341,25.88667
			C115.16082,92.38271,114.08819,93.45457,112.76611,93.45457z"/>
		<path class="st1" d="M48.14454,93.45457c-1.32209,0-2.39472-1.07186-2.39472-2.39472
			c0-10.42311,3.53284-19.37524,10.21654-25.88667c0.94791-0.92296,2.46332-0.90582,3.38628,0.04366
			c0.92297,0.94713,0.9027,2.46332-0.04365,3.38628c-5.73735,5.59002-8.76973,13.35493-8.76973,22.45673
			C50.53925,92.38271,49.46662,93.45457,48.14454,93.45457z"/>
		<path class="st3" d="M57.72415,113.79134h45.46237V91.06016c0-7.5591-2.44857-13.94121-7.07951-18.45609
			c-4.13704-4.0331-9.69526-6.25396-15.65168-6.25396c-5.95531,0-11.51354,2.22086-15.65058,6.25396
			c-4.63203,4.51488-7.0806,10.897-7.0806,18.45609V113.79134z M62.22968,91.06016c0-13.88181,9.44777-20.20452,18.22565-20.20452
			s18.22565,6.32272,18.22565,20.20452v18.22565H83.27129v-9.76305c2.85474-1.12453,4.87816-3.90047,4.87816-7.15457
			c0-4.24911-3.4446-7.69364-7.69357-7.69364c-4.2491,0-7.6937,3.44453-7.6937,7.69364c0,3.25375,2.02294,6.02943,4.8772,7.15423
			v9.7634H62.22968V91.06016z"/>
		<path class="st1" d="M80.45533,78.74033c1.24409,0,2.25277-1.00868,2.25277-2.25276c0-1.24409-1.00868-2.25277-2.25277-2.25277
			c-7.38969,0-14.84649,5.20238-14.84649,16.82536c0,1.24408,1.00868,2.25277,2.25276,2.25277
			c1.24409,0,2.25277-1.00869,2.25277-2.25277C70.11437,81.97649,75.4559,78.74033,80.45533,78.74033z"/>
		<path class="st3" d="M106.05418,119.65371H54.85759c-3.25155,0-5.89812,2.64601-5.89812,5.89757v0.1276
			c0,3.25156,2.64656,5.89812,5.89812,5.89812h51.19659c3.25156,0,5.89812-2.64656,5.89812-5.89812v-0.1276
			C111.95229,122.29972,109.30573,119.65371,106.05418,119.65371z"/>
	</g>
</g>
</svg>
