<?xml version="1.0" encoding="utf-8"?>
<!-- Generator: Adobe Illustrator 19.1.0, SVG Export Plug-In . SVG Version: 6.00 Build 0)  -->
<svg version="1.1" id="Layer_1" xmlns="http://www.w3.org/2000/svg" xmlns:xlink="http://www.w3.org/1999/xlink" x="0px" y="0px"
	 viewBox="0 0 160.1367 184.90993" style="enable-background:new 0 0 160.1367 184.90993;" xml:space="preserve">
<style type="text/css">
	.st0{opacity:0.5;}
	.st1{fill:#B3C143;}
	.st2{fill:#42591E;}
</style>
<g>
	<g class="st0">
		<path class="st1" d="M80.36599,1.76188c0,0-0.01682,0.0097-0.04828,0.02789l-0.00058,0.00034
			c-0.01575,0.00906-0.0351,0.02023-0.0578,0.03336l-0.00079,0.00049c-0.01135,0.00653-0.02347,0.01352-0.03644,0.021
			l-0.0004,0.00024c-0.00647,0.00375-0.01315,0.0076-0.02002,0.01157l-0.00027,0.00015
			c-0.00296,0.00171-0.00598,0.00345-0.009,0.00522l-0.00354,0.00201c-0.00055,0.00034-0.00107,0.00064-0.00165,0.00095
			l-0.01389,0.00803c-0.00116,0.00067-0.00235,0.00137-0.00354,0.00204l-0.00211,0.00122
			c-0.0015,0.00085-0.00299,0.00174-0.00449,0.00259l-0.00058,0.00034c-0.00119,0.0007-0.00241,0.0014-0.00363,0.00211
			l-0.00336,0.00192c-0.00299,0.00174-0.00598,0.00345-0.00903,0.00522L80.13732,1.8939
			c-0.00049,0.00031-0.00104,0.00061-0.00156,0.00092L80.1292,1.8986c-0.00238,0.00137-0.00494,0.00284-0.00735,0.00424
			l-0.00162,0.00095c-0.0032,0.00183-0.00659,0.00378-0.00986,0.00568l-0.00452,0.00259
			c-0.00119,0.0007-0.00232,0.00134-0.00351,0.00204l-0.0014,0.00082c-0.00122,0.0007-0.00244,0.0014-0.00366,0.00211
			l-0.03146,0.01816c-0.0007,0.00043-0.0014,0.00082-0.00214,0.00122l-0.0119,0.0069
			c-0.00327,0.00189-0.00671,0.00388-0.01001,0.00577l-4.00592,2.31284l1,1.73203l4.33014-2.5L80.36599,1.76188L80.36599,1.76188
			L80.36599,1.76188z M71.70574,6.76188c0,0-0.79877,0.46118-1.71002,0.9873l-0.00314,0.0018
			c-0.00674,0.00391-0.01376,0.00797-0.02054,0.01184l-0.00842,0.00488c-0.00027,0.00015-0.00055,0.00031-0.00082,0.00046
			l-0.06198,0.0358l-0.00012,0.00009l-0.01016,0.00586c-0.00589,0.00339-0.01193,0.00687-0.01779,0.01025l-0.00589,0.00342
			c-0.0029,0.00165-0.00543,0.00314-0.0083,0.00479l-0.00653,0.00375c-0.00067,0.0004-0.00113,0.00067-0.00177,0.00104
			l-0.01166,0.00671c-0.00104,0.00061-0.00201,0.00116-0.00305,0.00177L67.3756,9.26191l1,1.73203l4.33014-2.5L71.70574,6.76188
			L71.70574,6.76188z M63.04549,11.76188c0,0-1.86389,1.07614-3.14594,1.81631l-0.0018,0.00104
			c-0.02982,0.01721-0.05936,0.03427-0.0885,0.05109l-0.00256,0.0015c-0.00687,0.00397-0.01373,0.00793-0.02057,0.01187
			l-0.00064,0.00037c-0.00717,0.00415-0.01428,0.00824-0.02142,0.01236l-0.0011,0.00064
			c-0.00632,0.00366-0.0127,0.00732-0.01898,0.01096l-0.00592,0.00342c-0.00296,0.00171-0.00592,0.00342-0.00888,0.00513
			l-0.0256,0.0148c-0.00024,0.00012-0.00021,0.00012-0.00046,0.00024l-0.00885,0.00513
			c-0.00113,0.00064-0.00241,0.00137-0.00354,0.00204l-0.00851,0.00491c-0.00021,0.00012-0.00043,0.00024-0.00067,0.00037
			l-0.02069,0.01196c-0.00034,0.00018-0.00055,0.00031-0.00089,0.00052l-0.94461,0.54535l1,1.73206l4.33014-2.5L63.04549,11.76188
			L63.04549,11.76188z M54.38525,16.76188l-4.33014,2.5l1,1.73206l4.33014-2.5L54.38525,16.76188L54.38525,16.76188z
			 M45.72497,21.76191l-2.79404,1.61313c-0.0061,0.00351-0.01196,0.0069-0.01807,0.01041l-0.00885,0.00513
			c-0.00607,0.00351-0.01215,0.00702-0.01822,0.01053l-0.00134,0.00076c-0.00656,0.00378-0.01343,0.00775-0.01999,0.01154
			l-0.00735,0.00427c-0.00668,0.00385-0.01346,0.00775-0.02008,0.0116l-0.00073,0.0004
			c-0.00378,0.0022-0.00732,0.00424-0.01108,0.00641l-0.01877,0.01083c-0.01309,0.00757-0.0264,0.01523-0.03943,0.02277
			l-0.00543,0.00314c-0.75958,0.43854-1.36673,0.78906-1.36673,0.78906l1,1.73206l4.33011-2.5l-1-1.73206V21.76191z
			 M37.06472,26.76191l-1.6412,0.94754c-0.00259,0.0015-0.00531,0.00305-0.00787,0.00455l-0.01682,0.0097
			c-0.00671,0.00388-0.01355,0.00781-0.02026,0.01169l-0.00073,0.00043c-0.00375,0.00217-0.00742,0.00427-0.01117,0.00644
			l-0.00247,0.00143c-0.00232,0.00134-0.00479,0.00278-0.00711,0.00412l-0.00864,0.00497
			c-0.00607,0.00351-0.0123,0.00711-0.0184,0.01062l-0.00519,0.00299c-0.00195,0.00113-0.00363,0.00211-0.00558,0.00323
			l-0.00644,0.00372c-0.00143,0.00082-0.00281,0.00162-0.00424,0.00244l-0.01883,0.01086
			c-1.19553,0.69025-2.55515,1.47522-2.55515,1.47522l1,1.73206l4.33011-2.5l-1-1.73206V26.76191z M28.40446,31.76188
			l-0.48401,0.27945c-0.00009,0.00006-0.00029,0.00018-0.00038,0.00024l-0.01558,0.00897
			c-0.00398,0.00232-0.00789,0.00455-0.01189,0.00687l-0.00537,0.00311c-0.00098,0.00055-0.00197,0.00113-0.00294,0.00171
			l-0.00459,0.00262c-0.00072,0.00043-0.00145,0.00085-0.00217,0.00125l-0.01447,0.00836
			c-0.00211,0.00122-0.00404,0.00235-0.00615,0.00354l-0.00124,0.00073c-0.01144,0.00659-0.02301,0.01328-0.03471,0.02005
			l-0.00107,0.00061c-0.00273,0.00156-0.0054,0.00311-0.00815,0.0047l-0.00102,0.00058
			c-0.00151,0.00089-0.00327,0.00189-0.00478,0.00278l-0.00809,0.00467c-0.01646,0.00949-0.0331,0.0191-0.05006,0.0289
			L27.745,32.14265c-0.00237,0.00134-0.00458,0.00262-0.00694,0.004L27.736,32.14783
			c-0.00137,0.00079-0.00296,0.00171-0.00435,0.0025l-0.00661,0.00381c-1.21883,0.7037-3.6507,2.10773-3.6507,2.10773l1,1.73206
			l4.33011-2.5L28.40446,31.76188L28.40446,31.76188z M19.74421,36.76188c0,0-0.26198,0.15128-0.65707,0.37936l-0.00232,0.00134
			c-0.00186,0.0011-0.00363,0.00211-0.00549,0.00317l-0.00659,0.00381c-0.00011,0.00006-0.00034,0.00018-0.00043,0.00024
			l-0.00928,0.00537c-0.0002,0.00009-0.00038,0.00021-0.00058,0.00034l-0.00911,0.00525
			c-0.00769,0.00443-0.01534,0.00885-0.02312,0.01334l-0.0027,0.00156c-0.00587,0.00339-0.01166,0.00674-0.01758,0.01016
			l-0.00053,0.00031c-0.00287,0.00165-0.00565,0.00327-0.00853,0.00491l-0.00439,0.00253
			c-0.00061,0.00037-0.00122,0.0007-0.00183,0.00107l-0.00903,0.00522c-0.00072,0.0004-0.00159,0.00092-0.00232,0.00134
			l-0.00586,0.00339c-0.00156,0.00089-0.00299,0.00171-0.00455,0.00262l-0.00661,0.00381
			c-0.00105,0.00061-0.00206,0.00119-0.0031,0.00177l-0.02782,0.01608c-0.00021,0.00012-0.00046,0.00024-0.00067,0.00037
			l-0.07191,0.04153c-0.00012,0.00006-0.00024,0.00015-0.00037,0.00021l-0.00723,0.00415
			c-0.00142,0.00082-0.00294,0.00171-0.00438,0.00253l-3.43674,1.98422l1,1.73203l4.33014-2.5L19.74421,36.76188L19.74421,36.76188z
			 M11.08396,41.76188c0,0-1.04735,0.60471-2.11176,1.21924l-0.00594,0.00342c-0.00687,0.00397-0.01353,0.00781-0.0204,0.01178
			l-0.00349,0.00201c-0.00476,0.00275-0.00955,0.00552-0.01431,0.00827l-0.02818,0.01627L8.89985,43.0229L8.8886,43.02937
			c-0.00145,0.00085-0.00262,0.00153-0.00407,0.00238l-0.00793,0.00458c-0.00105,0.00061-0.00208,0.00119-0.00313,0.0018
			l-0.00826,0.00476c-0.00674,0.00388-0.01312,0.00757-0.01985,0.01147L8.8393,43.05784
			c-0.00291,0.00168-0.00597,0.00345-0.00888,0.00513L8.80039,43.0803c-0.00117,0.0007-0.0023,0.00134-0.00348,0.00201
			l-0.04639,0.02679c-0.00131,0.00076-0.00247,0.0014-0.00378,0.00217l-1.99292,1.1506l1,1.73206l4.33014-2.5L11.08396,41.76188
			L11.08396,41.76188z M2.42371,46.76188l-1.12608,0.65015l0,0l0,0v3.69974h2v-2.54501l0.12608-0.07281l-0.12608-0.21838v-0.86353
			H2.79906L2.42371,46.76188L2.42371,46.76188z M3.29763,56.11176h-2v5h2V56.11176L3.29763,56.11176z M3.29763,66.11176h-2v5h2
			V66.11176L3.29763,66.11176z M3.29763,76.11176h-2v5h2V76.11176L3.29763,76.11176z M3.29763,86.11176h-2v5h2V86.11176
			L3.29763,86.11176z M3.29763,96.11176h-2v5h2V96.11176L3.29763,96.11176z M3.29763,106.11176h-2v5h2V106.11176L3.29763,106.11176z
			 M3.29763,116.11176h-2v5h2V116.11176L3.29763,116.11176z M3.29763,126.11176h-2v4.99999h2V126.11176L3.29763,126.11176z
			 M3.29763,136.11176h-2v2.60052l0,0l2.078,1.19971l1-1.73203l-1.078-0.62238V136.11176L3.29763,136.11176z M8.70577,140.67996
			l-1,1.73203l4.33011,2.5l1-1.73203L8.70577,140.67996L8.70577,140.67996z M17.36602,145.67993l-1,1.73206l4.33014,2.5
			l0.99997-1.73206L17.36602,145.67993L17.36602,145.67993z M26.02627,150.67993l-1,1.73206l4.33014,2.5l1-1.73206
			L26.02627,150.67993L26.02627,150.67993z M34.68652,155.67993l-1,1.73206l0,0c0.00006,0.00003,0.00031,0.00018,0.00076,0.00046
			h0.00003c0.00052,0.00031,0.00125,0.00073,0.00223,0.00128l0.00027,0.00015c0.00208,0.00122,0.0051,0.00296,0.00912,0.00528
			l0.00003,0.00003c0.00812,0.00467,0.02017,0.01163,0.03586,0.02069l0.00089,0.00052
			c0.47812,0.27603,4.28094,2.47159,4.28094,2.47159l1-1.73206L34.68652,155.67993L34.68652,155.67993z M43.34676,160.67993
			l-1,1.73206l4.19226,2.42041c0.00067,0.00037,0.00137,0.00079,0.00201,0.00116l0.0029,0.00165
			c0.00113,0.00067,0.00217,0.00128,0.0033,0.00192l0.00015,0.00009c0.00098,0.00058,0.00211,0.00122,0.00305,0.00177
			l0.00705,0.00406c0.00067,0.0004,0.00119,0.0007,0.00186,0.00107l0.01965,0.01135
			c0.00232,0.00134,0.00458,0.00266,0.00684,0.00394l0.00125,0.00073c0.00473,0.00272,0.00925,0.00534,0.01361,0.00784
			l0.00259,0.00153c0.00061,0.00034,0.00122,0.0007,0.00183,0.00104l0.00027,0.00018
			c0.00116,0.00067,0.00232,0.00131,0.00345,0.00195l0.00009,0.00009c0.00107,0.00058,0.00211,0.00119,0.00314,0.0018
			l0.00095,0.00055c0.0004,0.00021,0.00085,0.00049,0.00122,0.0007l0.00928,0.00534
			c0.00015,0.00009,0.00031,0.00018,0.00046,0.00027l0.00818,0.00473c0.00055,0.00031,0.00116,0.00067,0.00171,0.00098
			l0.00024,0.00012c0.00171,0.00101,0.00339,0.00198,0.005,0.00293l0.0007,0.00037c0.00156,0.00092,0.00308,0.0018,0.00458,0.00266
			l0.00034,0.00021c0.00134,0.00076,0.00266,0.00153,0.00394,0.00226l0.00113,0.00064
			c0.00424,0.00244,0.00803,0.00464,0.01129,0.00653l0.0004,0.00021c0.0004,0.00024,0.00082,0.00049,0.00122,0.00073
			l0.00073,0.00043c0.00012,0.00006,0.00021,0.00009,0.00031,0.00015l0.0014,0.00082
			c0.00018,0.00009,0.00034,0.00018,0.00052,0.00027l0.0004,0.00024c0.0004,0.00024,0.00082,0.00049,0.00119,0.0007l0.00027,0.00015
			c0.00061,0.00034,0.00122,0.0007,0.00177,0.00101l0.00125,0.00073c0.0004,0.00024,0.00079,0.00046,0.00116,0.00067
			l0.00046,0.00027c0.00024,0.00015,0.00052,0.00027,0.00073,0.00043l0.00006,0.00003
			c0.00021,0.00012,0.0004,0.00021,0.00058,0.00034l0.00043,0.00024c0.00082,0.00046,0.00146,0.00085,0.00195,0.00113
			l0.00027,0.00015c0.00018,0.00009,0.00034,0.00018,0.00046,0.00024l0.00012,0.00009h0.00003l0.00009,0.00006l1-1.73206
			L43.34676,160.67993L43.34676,160.67993z M52.00704,165.67993l-1,1.73206c0,0,1.01541,0.58624,2.06281,1.19098l0.00165,0.00095
			c0.01572,0.00906,0.03149,0.01819,0.04721,0.02725l0.0076,0.00439c0.00143,0.00082,0.00269,0.00153,0.00412,0.00238
			l2.20673,1.27405l1-1.73206L52.00704,165.67993L52.00704,165.67993z M60.66729,170.67993l-1,1.73206l0.00143,0.00082
			c0.00003,0.00003,0.00006,0.00003,0.00009,0.00006l0.00595,0.00342c0.00012,0.00009,0.00027,0.00018,0.00043,0.00027
			l0.00067,0.00037c0.00015,0.00009,0.00034,0.00021,0.00052,0.00031l0.00104,0.00061
			c0.00009,0.00006,0.00018,0.00009,0.00027,0.00015l0.00436,0.0025c0.00003,0.00003,0.00009,0.00006,0.00015,0.00009
			l0.0015,0.00089c0.00009,0.00006,0.00021,0.00012,0.00031,0.00018l0.01663,0.00958
			c0.00018,0.00009,0.00037,0.00021,0.00055,0.00034l4.2962,2.48041l1-1.73206L60.66729,170.67993L60.66729,170.67993z
			 M69.32754,175.67993l-1,1.73206l4.30576,2.48593c0.00003,0,0.00006,0.00003,0.00009,0.00003l0.00198,0.00116
			c0.00003,0.00003,0.00009,0.00006,0.00012,0.00009l0.02219,0.01279l1-1.73206L69.32754,175.67993L69.32754,175.67993z
			 M77.98779,180.67993l-1,1.73206l3.20343,1.84949c0.00015,0.00009,0.00034,0.00018,0.00046,0.00027l0.00336,0.00192
			c0.00146,0.00085,0.0029,0.00168,0.00433,0.0025l0.03152,0.01822c0.00204,0.00119,0.00412,0.00238,0.00613,0.00354
			l0.00131,0.00073c0.00491,0.00287,0.00974,0.00565,0.0144,0.00833l0.00171,0.00098
			c0.00735,0.00424,0.01443,0.00833,0.02112,0.01221l0.00018,0.00009c0.00192,0.00113,0.00381,0.00223,0.00568,0.0033
			l0.00168,0.00095c0.01761,0.01016,0.03262,0.01886,0.04483,0.02591l0.00034,0.00018
			c0.0246,0.01419,0.03772,0.02179,0.03772,0.02179l0,0l0.95193-0.54962l-0.31729-0.54962l0.36536-0.63281l0,0l0,0l0,0
			L77.98779,180.67993L77.98779,180.67993z M88.97817,177.08075l-4.33014,2.49997l1,1.73206l4.33014-2.5L88.97817,177.08075
			L88.97817,177.08075z M97.63842,172.08075l-4.33011,2.5l1,1.73203l4.33011-2.5L97.63842,172.08075L97.63842,172.08075z
			 M106.2987,167.08075l-4.33014,2.5l1,1.73206l4.33011-2.5L106.2987,167.08075L106.2987,167.08075z M114.95898,162.08075
			l-4.33014,2.5l1,1.73206l4.33011-2.50003L114.95898,162.08075L114.95898,162.08075z M123.61922,157.08075l-4.33014,2.5l1,1.73206
			l4.33011-2.5L123.61922,157.08075L123.61922,157.08075z M132.27948,152.08075l-4.33015,2.5l1.00001,1.73206
			c0,0,0.13962-0.08063,0.36871-0.21289l0.00089-0.00052c0.00906-0.00522,0.01822-0.0105,0.02753-0.01587l0.01093-0.00632
			c0.0069-0.004,0.01395-0.00806,0.021-0.01212l0.0036-0.00211c0.00934-0.00537,0.01877-0.01083,0.02832-0.01633l0.01038-0.00601
			c0.00226-0.00128,0.00439-0.00253,0.00665-0.00381l0.00272-0.00159c0.00381-0.0022,0.00757-0.00436,0.01141-0.00659
			l0.00677-0.00391c0.00443-0.00253,0.00876-0.00504,0.01321-0.00763l0.00461-0.00266
			c0.00168-0.00098,0.00327-0.00189,0.00497-0.00287l0.00128-0.00073c0.00143-0.00082,0.00281-0.00165,0.00427-0.00247
			l0.01514-0.00876c0.00101-0.00058,0.00204-0.00116,0.00305-0.00174l0.005-0.0029c0.0043-0.00247,0.00854-0.00491,0.01288-0.00745
			l0.00516-0.00296c0.00192-0.00113,0.004-0.00232,0.00595-0.00345l0.00165-0.00095c0.0015-0.00085,0.00302-0.00174,0.00455-0.00262
			l0.00754-0.00433c0.00018-0.00012,0.00049-0.00031,0.00067-0.0004l0.03534-0.02042
			c0.00067-0.0004,0.00125-0.00073,0.00192-0.00113l3.70404-2.13849L132.27948,152.08075L132.27948,152.08075z M140.93973,147.08075
			l-4.33011,2.5l1,1.73206l3.96759-2.29071c0.00162-0.00092,0.00339-0.00195,0.005-0.0029l0.02072-0.01196
			c0.00143-0.00082,0.00269-0.00156,0.00412-0.00235l0.00012-0.00009c0.0018-0.00104,0.0036-0.00208,0.00537-0.00308
			l0.00327-0.00192c0.004-0.00229,0.00784-0.00452,0.01178-0.00677l0.0018-0.00104c0.00412-0.00238,0.00815-0.0047,0.01221-0.00705
			l0.00229-0.00131c0.00323-0.00189,0.0065-0.00375,0.0097-0.00562l0.00433-0.0025c0.03458-0.01996,0.06635-0.0383,0.09518-0.05496
			l0.00134-0.00076c0.11786-0.06805,0.18527-0.10696,0.18527-0.10696L140.93973,147.08075L140.93973,147.08075z
			 M149.59998,142.08075l-4.33011,2.5l1,1.73206l1.79245-1.03488l0.00009-0.00006l0.01031-0.00595
			c0.00104-0.00061,0.00232-0.00134,0.00336-0.00195l0.00818-0.0047c0.01501-0.00867,0.03003-0.01733,0.04507-0.02603
			l0.00354-0.00204c1.17319-0.67734,2.4671-1.42438,2.4671-1.42438L149.59998,142.08075L149.59998,142.08075z M158.26025,137.08075
			l-4.33014,2.5l1,1.73206c0,0,0.23758-0.13718,0.6015-0.34729l0.00131-0.00076c0.01764-0.01019,0.03564-0.02057,0.05389-0.0311
			l0.00372-0.00217c0.00128-0.00073,0.00232-0.00134,0.0036-0.00208l0.03177-0.01834
			c0.00601-0.00348,0.01202-0.00696,0.0181-0.01044l0.0029-0.00168c0.00586-0.00339,0.01172-0.00677,0.01764-0.01019
			l0.00021-0.00012c0.00296-0.00171,0.00592-0.00342,0.00891-0.00513l0.00327-0.00189
			c0.00095-0.00055,0.00198-0.00113,0.0029-0.00168l0.00867-0.005c0.00104-0.00058,0.00208-0.00119,0.00308-0.0018l0.00476-0.00275
			c0.00186-0.00107,0.00375-0.00214,0.00562-0.00323l0.00528-0.00302c0.00165-0.00098,0.0036-0.00211,0.00528-0.00305
			l0.02298-0.01328c0.00168-0.00098,0.0033-0.00189,0.00497-0.00287l0.0499-0.02881
			c0.00043-0.00027,0.00085-0.00049,0.00128-0.00073l0.01901-0.01099c0.00467-0.00269,0.00934-0.0054,0.01404-0.00812
			l0.00674-0.00388c0.00067-0.0004,0.00134-0.00079,0.00201-0.00116l3.42679-1.97845L158.26025,137.08075L158.26025,137.08075z
			 M159.43436,128.91333h-2v5h2V128.91333L159.43436,128.91333z M159.43436,118.91334h-2v5h2V118.91334L159.43436,118.91334z
			 M159.43436,108.91334h-2v5h2V108.91334L159.43436,108.91334z M159.43436,98.91334h-2v5h2V98.91334L159.43436,98.91334z
			 M159.43436,88.91334h-2v5h2V88.91334L159.43436,88.91334z M159.43436,78.91334h-2v5h2V78.91334L159.43436,78.91334z
			 M159.43436,68.91334h-2v5h2V68.91334L159.43436,68.91334z M159.43436,58.91334h-2v5h2V58.91334L159.43436,58.91334z
			 M159.43436,48.91334h-2v5h2V48.91334L159.43436,48.91334z M152.07428,43.1627l-1,1.73203l4.33014,2.5l1-1.73203
			L152.07428,43.1627L152.07428,43.1627z M143.41403,38.1627l-1,1.73203l4.33011,2.5l1-1.73203L143.41403,38.1627L143.41403,38.1627
			z M134.75378,33.1627l-1,1.73203l4.33011,2.5l1-1.73203L134.75378,33.1627L134.75378,33.1627z M126.09353,28.1627l-1,1.73203
			l4.33012,2.5l1-1.73203L126.09353,28.1627L126.09353,28.1627z M117.43325,23.1627l-1,1.73203l4.33014,2.5l1-1.73203
			L117.43325,23.1627L117.43325,23.1627z M108.773,18.1627l-1,1.73203l4.33014,2.5l1-1.73203L108.773,18.1627L108.773,18.1627z
			 M100.11275,13.1627l-1,1.73203l4.33011,2.5l1-1.73203L100.11275,13.1627L100.11275,13.1627z M91.45248,8.1627l-1,1.73203
			l4.33014,2.5l1-1.73203L91.45248,8.1627L91.45248,8.1627z M82.79223,3.1627l-1,1.73202l4.33011,2.5l1-1.73203L82.79223,3.1627
			L82.79223,3.1627z"/>
	</g>
	<g>
		<path class="st2" d="M86.23653,97.14333v15.87595l14.54407-0.05328v23.0148l-29.83399-0.05328V97.1966L86.23653,97.14333z
			 M75.10206,108.49091v4.20872l5.16767,0.05328v-4.31527L75.10206,108.49091z M94.01468,117.0149l-18.91262-0.05328v4.31528
			l18.91262-0.05328V117.0149z M94.01468,129.74762v-4.20872l-18.91262-0.05328v4.31528L94.01468,129.74762z M100.7806,107.90488
			l-9.42967-0.05328v-10.655L100.7806,107.90488z"/>
		<polygon class="st2" points="103.85149,88.57832 107.35777,92.08459 99.47183,99.97052 103.62932,104.69175 105.39407,106.69577 
			113.68153,98.40829 117.25033,101.97716 118.43993,87.38872 		"/>
		<polygon class="st2" points="61.77753,93.27293 65.2838,89.76666 50.69536,88.57706 51.88509,103.1655 55.45389,99.59664 
			65.85304,109.9958 67.68648,108.16236 67.68648,99.18182 		"/>
		<path class="st1" d="M48.50158,93.70681c-0.23612,0.09874-0.56025,0.19748-0.97454,0.29515
			c-0.41214,0.09874-0.9241,0.19749-1.53479,0.29515c-0.60962,0.09875-1.28901,0.12826-2.03601,0.08855
			c-0.74808,0.03971-1.42639,0.0102-2.03601-0.08855c-0.6107-0.09766-1.13231-0.19641-1.56485-0.29515
			c-0.43361-0.09767-0.7674-0.19641-1.00352-0.29515c-0.23612-0.09767-0.35418-0.12718-0.35418-0.08855v4.78146
			c0,0.03972,0.1084,0.11806,0.3252,0.23612c0.21573,0.11806,0.5302,0.25652,0.94449,0.41322
			c0.41214,0.15778,0.9241,0.29515,1.53479,0.41322c0.60962,0.11806,1.32765,0.19748,2.15408,0.23612
			c0.78671-0.03864,1.48542-0.11806,2.09612-0.23612c0.60962-0.11806,1.12051-0.25544,1.53479-0.41322
			c0.41214-0.1567,0.72768-0.29515,0.94449-0.41322c0.21573-0.11806,0.32413-0.1964,0.32413-0.23612v-4.78146
			C48.85576,93.57963,48.7377,93.60914,48.50158,93.70681z"/>
		<path class="st1" d="M40.0892,68.67789c0.49264,0.49263,1.07221,0.88545,1.74194,1.1806
			c0.66866,0.29516,1.37702,0.42342,2.1251,0.38371c0.747,0.03971,1.45537-0.08855,2.1251-0.38371
			c0.66866-0.29515,1.2493-0.68797,1.74194-1.1806c0.49156-0.49156,0.88438-1.07167,1.18061-1.7414
			c0.29408-0.66866,0.44219-1.37702,0.44219-2.1251c0-0.78671-0.14811-1.50528-0.44219-2.15461
			c-0.29622-0.64933-0.68904-1.22944-1.18061-1.7414c-0.49264-0.51088-1.07328-0.89458-1.74194-1.1511
			c-0.66973-0.25544-1.37809-0.40302-2.1251-0.44273c-0.74808,0.03971-1.45644,0.18729-2.1251,0.44273
			c-0.66973,0.25652-1.2493,0.64021-1.74194,1.1511c-0.49156,0.51196-0.88438,1.09206-1.18061,1.7414
			c-0.29408,0.64933-0.44219,1.3679-0.44219,2.15461c0,0.74808,0.14811,1.45644,0.44219,2.1251
			C39.20481,67.60622,39.59763,68.18633,40.0892,68.67789z"/>
		<path class="st1" d="M58.30063,65.72637c0.39282,0.37457,0.84575,0.67885,1.3577,0.91497
			c0.51088,0.23612,1.06255,0.33486,1.65285,0.29515c0.59031,0.03971,1.15163-0.05903,1.68183-0.29515
			c0.53235-0.23612,0.99386-0.5404,1.38775-0.91497c0.39282-0.3735,0.69871-0.82643,0.91551-1.3577
			c0.21573-0.53127,0.32413-1.07167,0.32413-1.62334c0-0.66866-0.1084-1.24876-0.32413-1.7414
			c-0.2168-0.49157-0.52269-0.94449-0.91551-1.3577c-0.39389-0.41321-0.8554-0.71749-1.38775-0.91497
			c-0.5302-0.19641-1.09153-0.31447-1.68183-0.35418c-0.59031,0.03971-1.14197,0.15777-1.65285,0.35418
			c-0.51196,0.19748-0.96488,0.50176-1.3577,0.91497c-0.39389,0.41322-0.70837,0.86614-0.94449,1.3577
			c-0.23612,0.49263-0.35418,1.07274-0.35418,1.7414c0,0.55167,0.11806,1.09206,0.35418,1.62334
			S57.90674,65.35287,58.30063,65.72637z"/>
		<path class="st1" d="M29.10953,85.88527c-0.17602,0.03971-0.36384,0.05904-0.56025,0.05904
			c-0.19748,0-0.41321,0.02039-0.64933,0.05903c-0.59031-0.03864-1.12158-0.08855-1.59382-0.14758
			c-0.47224-0.05903-0.8758-0.13738-1.21066-0.23612c-0.33379-0.09767-0.59996-0.16689-0.79638-0.20661
			c-0.19748-0.03864-0.29515-0.07835-0.29515-0.11806v3.24667c0-0.03864,0.08908,0,0.2651,0.11806
			c0.17817,0.11806,0.42287,0.227,0.73842,0.32467c0.31447,0.09874,0.71802,0.2066,1.21066,0.32466
			c0.49156,0.11806,1.05182,0.15778,1.68183,0.11806c0.23612,0.03971,0.45185,0.03971,0.64933,0
			c0.19641-0.03864,0.39282-0.05903,0.59031-0.05903c0.19641,0,0.3735-0.02952,0.53127-0.08855
			c0.1567-0.05903,0.31447-0.08855,0.47224-0.08855v-3.4828c-0.15777,0.07942-0.3252,0.11806-0.50122,0.11806
			C29.46371,85.82624,29.28769,85.84663,29.10953,85.88527z"/>
		<path class="st1" d="M30.9105,59.64623c-0.39389-0.3735-0.84682-0.67885-1.3577-0.91497
			c-0.51196-0.23612-1.06255-0.33379-1.65285-0.29515c-0.59031-0.03864-1.15163,0.05903-1.68183,0.29515
			c-0.53235,0.23612-0.99493,0.54147-1.38775,0.91497c-0.39389,0.37458-0.69871,0.82643-0.91551,1.3577
			c-0.21573,0.53127-0.32413,1.09206-0.32413,1.68237c0,0.63002,0.1084,1.19081,0.32413,1.68237
			c0.2168,0.49264,0.52162,0.94449,0.91551,1.3577c0.39282,0.41321,0.8554,0.71856,1.38775,0.91497
			c0.5302,0.19748,1.09153,0.31554,1.68183,0.35418c0.5903-0.03864,1.1409-0.1567,1.65285-0.35418
			c0.51088-0.19641,0.96381-0.50176,1.3577-0.91497c0.39282-0.41322,0.70837-0.86507,0.94449-1.3577
			c0.23612-0.49156,0.35419-1.05235,0.35419-1.68237c0-0.59031-0.11806-1.15109-0.35419-1.68237
			C31.61886,60.47266,31.30332,60.02081,30.9105,59.64623z"/>
		<path class="st1" d="M63.14113,70.59638c-0.59031,0.11806-1.201,0.19749-1.82994,0.23612
			c-0.35418-0.03864-0.6987-0.07835-1.03357-0.11806c-0.33379-0.03864-0.65899-0.10786-0.97346-0.2066
			c-0.31554-0.09767-0.63002-0.2066-0.94449-0.32467c-0.31554-0.11806-0.61069-0.27476-0.88546-0.47224l0.23612,1.71188v10.80257
			h0.05903c0.23612,0.11806,0.49157,0.19749,0.7674,0.23612c0.27476,0.03971,0.56025,0.09875,0.85648,0.17709
			c0.29408,0.07942,0.59889,0.11806,0.91444,0.11806c0.31447,0,0.64933,0.02039,1.00352,0.05903
			c0.94449-0.03864,1.80955-0.14758,2.59734-0.32467c0.78672-0.17709,1.4661-0.39282,2.03602-0.64934
			c0.57098-0.25544,1.00459-0.47224,1.29867-0.64933c0.29623-0.17709,0.44327-0.28496,0.44327-0.32467v-12.9867l-0.17709-0.05903
			c-0.3939,0.47224-0.81676,0.88545-1.26862,1.23964c-0.45293,0.35418-0.93591,0.66972-1.44678,0.94449
			C64.28203,70.28191,63.73143,70.47832,63.14113,70.59638z"/>
		<path class="st1" d="M29.13958,70.65541c-0.19748,0-0.40355,0.02952-0.62036,0.08855
			c-0.21573,0.05903-0.42287,0.06923-0.61928,0.02952c-0.63002,0.03971-1.23964-0.02952-1.82994-0.20661
			c-0.59031-0.17709-1.14197-0.3735-1.65285-0.5903c-0.51196-0.21573-0.99386-0.52108-1.44678-0.91497
			c-0.45185-0.39282-0.8758-0.78672-1.26862-1.18061l-0.17709-0.05903v13.10476c0-0.03864,0.14704,0.04991,0.44326,0.26564
			c0.29408,0.2168,0.72769,0.4336,1.29867,0.64933c0.56991,0.2168,1.24823,0.43361,2.03601,0.64934
			c0.78672,0.2168,1.65285,0.30535,2.59734,0.26564c0.19641,0.03971,0.39282,0.0499,0.5903,0.02951
			c0.19641-0.01932,0.38316-0.02951,0.56133-0.02951c0.17602,0,0.36277-0.02952,0.56025-0.08855
			c0.19641-0.05903,0.3735-0.08855,0.53127-0.08855V71.36378l0.17709-1.00352c-0.19748,0.03971-0.39389,0.09874-0.5903,0.17709
			C29.5324,70.61678,29.33599,70.65541,29.13958,70.65541z"/>
		<path class="st1" d="M48.29416,86.17587l2.5799,0.21036l1.22837,0.10015V71.42281l-0.29515-0.05903
			c-0.47224,0.59031-1.00352,1.10226-1.59382,1.53479c-0.59031,0.43361-1.20959,0.82643-1.86,1.18061
			c-0.64826,0.35419-1.34804,0.61069-2.09505,0.7674c-0.74808,0.15778-1.51547,0.25652-2.30219,0.29516
			c-0.78779-0.03864-1.55519-0.13738-2.30219-0.29516c-0.74808-0.1567-1.45644-0.41321-2.1251-0.7674
			c-0.66973-0.35418-1.28901-0.747-1.85892-1.18061c-0.57099-0.43253-1.0926-0.94448-1.56485-1.53479l-0.29515,0.05903v16.52853
			c0,0.03971,0.19641,0.17709,0.59031,0.41322c0.39282,0.23611,0.94449,0.51195,1.65285,0.82642
			c0.70837,0.31554,1.56377,0.5903,2.56836,0.82642c1.00245,0.23612,2.11436,0.37458,3.33469,0.41322
			c1.21925-0.03864,2.32151-0.17709,3.30571-0.41322c0.46875-0.11256,0.90451-0.23524,1.31557-0.36565l-0.07298-0.89605
			L48.29416,86.17587z"/>
		<path class="st1" d="M131.06427,66.34402c-0.56079,0.63625-1.15929,1.21542-1.79453,1.73845
			c-0.6362,0.52409-1.32752,0.96307-2.07493,1.31786c-0.74834,0.35586-1.53345,0.63625-2.35532,0.84119
			c-0.8228,0.206-1.68237,0.30843-2.57963,0.30843s-1.75777-0.10243-2.57964-0.30843
			c-0.8228-0.20493-1.60791-0.48533-2.35532-0.84119c-0.74834-0.35479-1.43967-0.79376-2.07492-1.31786
			c-0.63618-0.52303-1.23373-1.1022-1.79453-1.73845h-0.2804v18.56213c0.35284,0.23022,0.69804,0.42918,1.04163,0.62156
			l4.04453-0.32983l2.5799-0.21036l-0.20567,2.52214c0.52537,0.04944,1.05933,0.08828,1.62441,0.08828
			c1.34589,0,2.57963-0.1402,3.70121-0.42059c1.12157-0.2804,2.08404-0.58883,2.88754-0.9253
			c0.80455-0.33648,1.63554-0.78511,2.49605-1.34589V66.34402H131.06427z"/>
		<path class="st1" d="M119.87598,96.87901c0.69241,0.13154,1.48663,0.19627,2.3839,0.19627s1.69149-0.06474,2.38389-0.19627
			c0.69133-0.13048,1.27036-0.2804,1.73737-0.44863c0.46809-0.16824,0.92584-0.40121,1.37447-0.70099v-4.5424
			c-0.52403,0.18762-1.01855,0.33647-1.48663,0.44863c-0.46702,0.11216-1.04605,0.21566-1.73737,0.30843
			c-0.69241,0.09385-1.44987,0.1402-2.27174,0.1402c-0.71548,0-1.37166-0.04185-1.98826-0.11276l-0.40006,4.90651
			C119.87316,96.87833,119.87437,96.87867,119.87598,96.87901z"/>
		<path class="st1" d="M117.9418,63.3438c0.56078,0.54248,1.20623,0.98138,1.93418,1.31786
			c0.7301,0.33647,1.52339,0.50471,2.3839,0.50471c0.85957,0,1.65379-0.16824,2.38389-0.50471
			c0.72796-0.33647,1.3734-0.77538,1.93419-1.31786c0.56079-0.5414,1.0003-1.18631,1.31839-1.93472
			c0.31702-0.74734,0.47614-1.55083,0.47614-2.4114c0-0.8218-0.15912-1.6069-0.47614-2.35532
			c-0.31809-0.74734-0.7576-1.40197-1.31839-1.96276c-0.56079-0.56079-1.20623-0.99969-1.93419-1.31786
			c-0.73009-0.31709-1.52432-0.47667-2.38389-0.47667c-0.8605,0-1.65379,0.15958-2.3839,0.47667
			c-0.72795,0.31816-1.3734,0.75706-1.93418,1.31786c-0.56079,0.56079-1.0003,1.21542-1.3184,1.96276
			c-0.31702,0.74841-0.47613,1.53352-0.47613,2.35532c0,0.86057,0.15911,1.66405,0.47613,2.4114
			C116.9415,62.15748,117.381,62.80239,117.9418,63.3438z"/>
	</g>
</g>
</svg>
