<svg id="Layer_1" data-name="Layer 1" xmlns="http://www.w3.org/2000/svg" viewBox="0 0 160.137 184.91"><defs><style>.cls-1,.cls-2{opacity:0.5;}.cls-2{fill:#b3c143;}.cls-3,.cls-4{fill:none;stroke:#b3c143;stroke-miterlimit:10;stroke-width:2px;}.cls-4{stroke-dasharray:5.076 5.076;}.cls-5{fill:#c2cc49;}.cls-6{fill:#78953c;}.cls-7{fill:#42591e;}</style></defs><title>Untitled-1</title><g class="cls-1"><polygon class="cls-2" points="159.137 138.105 80.068 183.755 1 138.105 1 46.805 80.068 1.155 159.137 46.805 159.137 138.105"/><polyline class="cls-3" points="159.137 135.605 159.137 138.105 156.972 139.355"/><line class="cls-4" x1="152.575" y1="141.893" x2="84.432" y2="181.236"/><polyline class="cls-3" points="82.233 182.505 80.068 183.755 77.903 182.505"/><line class="cls-4" x1="73.507" y1="179.967" x2="5.363" y2="140.624"/><polyline class="cls-3" points="3.165 139.355 1 138.105 1 135.605"/><line class="cls-4" x1="1" y1="130.529" x2="1" y2="51.843"/><polyline class="cls-3" points="1 49.305 1 46.805 3.165 45.555"/><line class="cls-4" x1="7.561" y1="43.017" x2="75.705" y2="3.674"/><polyline class="cls-3" points="77.903 2.405 80.068 1.155 82.233 2.405"/><line class="cls-4" x1="86.63" y1="4.943" x2="154.773" y2="44.286"/><polyline class="cls-3" points="156.972 45.555 159.137 46.805 159.137 49.305"/><line class="cls-4" x1="159.137" y1="54.381" x2="159.137" y2="133.067"/></g><polygon class="cls-5" points="13.541 86.38 45.071 88.077 80.579 132.574 49.051 130.878 13.541 86.38"/><polygon class="cls-5" points="111.496 115.898 84.711 132.259 48.484 86.861 75.269 70.499 111.496 115.898"/><polygon class="cls-5" points="79.398 70.183 111.086 72.022 146.596 116.521 114.908 114.682 79.398 70.183 79.398 70.183"/><path class="cls-6" d="M81.2,88.1l0.279,5.354a0.633,0.633,0,0,1-.062.279,0.615,0.615,0,0,1-.18.216,1.086,1.086,0,0,1-.265.152,0.853,0.853,0,0,1-.33.063H79.394V96.3a1.079,1.079,0,0,1-.1.469,0.99,0.99,0,0,1-.3.368,1.947,1.947,0,0,1-.457.254,1.433,1.433,0,0,1-.533.1,1.517,1.517,0,0,1-.545-0.1A1.621,1.621,0,0,1,77,97.137a1.117,1.117,0,0,1-.3-0.368,0.966,0.966,0,0,1-.115-0.469V94.169H66.733V96.3a1.079,1.079,0,0,1-.1.469,1.054,1.054,0,0,1-.291.368,1.737,1.737,0,0,1-.457.254,1.522,1.522,0,0,1-1.093,0,1.737,1.737,0,0,1-.457-0.254,1.054,1.054,0,0,1-.291-0.368,1.079,1.079,0,0,1-.1-0.469V94.169h-1.4a0.927,0.927,0,0,1-.355-0.063,1.086,1.086,0,0,1-.265-0.152,0.615,0.615,0,0,1-.18-0.216,0.633,0.633,0,0,1-.062-0.279L61.963,88.1a0.7,0.7,0,0,1,.279-0.558,2.919,2.919,0,0,1,.6-0.381,5.5,5.5,0,0,1,.849-0.3l2.664-6.039a3.157,3.157,0,0,1,.242-0.33,0.874,0.874,0,0,1,.164-0.152,0.394,0.394,0,0,1,.164-0.063,1.767,1.767,0,0,1,.242-0.013h8.83a2.046,2.046,0,0,1,.254.013,0.515,0.515,0,0,1,.191.063,0.72,0.72,0,0,1,.176.152,1.877,1.877,0,0,1,.217.33l2.74,6.039a5.247,5.247,0,0,1,.812.3,2.521,2.521,0,0,1,.558.381A0.721,0.721,0,0,1,81.2,88.1ZM64.627,91.86a1.728,1.728,0,0,0,.7-0.14,1.66,1.66,0,0,0,.545-0.381,1.956,1.956,0,0,0,.369-0.558,1.7,1.7,0,0,0,0-1.345,1.732,1.732,0,0,0-.913-0.913,1.728,1.728,0,0,0-.7-0.14,1.652,1.652,0,0,0-.671.14,1.715,1.715,0,0,0-.913.913,1.679,1.679,0,0,0,0,1.345,1.911,1.911,0,0,0,.367.558A1.687,1.687,0,0,0,64.627,91.86Zm1.649-5.125H77.085a0.745,0.745,0,0,0,.24-0.038,0.468,0.468,0,0,0,.191-0.114,0.49,0.49,0,0,0,.113-0.165,0.342,0.342,0,0,0,.014-0.216l-1.725-4.313a0.583,0.583,0,0,0-.1-0.2,0.647,0.647,0,0,0-.178-0.165,1.557,1.557,0,0,0-.228-0.114,0.736,0.736,0,0,0-.279-0.051h-7.1a0.736,0.736,0,0,0-.279.051,1.557,1.557,0,0,0-.228.114,0.491,0.491,0,0,0-.164.165,0.711,0.711,0,0,0-.09.2l-1.6,4.313a0.342,0.342,0,0,0,.014.216,0.433,0.433,0,0,0,.125.165,0.633,0.633,0,0,0,.2.114A0.858,0.858,0,0,0,66.276,86.735ZM78.531,91.86a1.687,1.687,0,0,0,1.218-.52,1.911,1.911,0,0,0,.367-0.558,1.679,1.679,0,0,0,0-1.345,1.715,1.715,0,0,0-.913-0.913,1.652,1.652,0,0,0-.671-0.14,1.728,1.728,0,0,0-.7.14,1.732,1.732,0,0,0-.913.913,1.7,1.7,0,0,0,0,1.345,1.956,1.956,0,0,0,.369.558,1.66,1.66,0,0,0,.545.381A1.728,1.728,0,0,0,78.531,91.86Z"/><path class="cls-6" d="M128.007,99.023l0.279,5.354a0.633,0.633,0,0,1-.062.279,0.615,0.615,0,0,1-.18.216,1.086,1.086,0,0,1-.265.152,0.853,0.853,0,0,1-.33.063h-1.243v2.131a1.079,1.079,0,0,1-.1.469,0.991,0.991,0,0,1-.3.368,1.947,1.947,0,0,1-.457.254,1.433,1.433,0,0,1-.533.1,1.517,1.517,0,0,1-.545-0.1,1.621,1.621,0,0,1-.457-0.254,1.117,1.117,0,0,1-.3-0.368,0.966,0.966,0,0,1-.115-0.469v-2.131h-9.844v2.131a1.079,1.079,0,0,1-.1.469,1.054,1.054,0,0,1-.291.368,1.737,1.737,0,0,1-.457.254,1.522,1.522,0,0,1-1.093,0,1.737,1.737,0,0,1-.457-0.254,1.054,1.054,0,0,1-.291-0.368,1.079,1.079,0,0,1-.1-0.469v-2.131h-1.4a0.927,0.927,0,0,1-.355-0.063,1.086,1.086,0,0,1-.265-0.152,0.615,0.615,0,0,1-.18-0.216,0.633,0.633,0,0,1-.062-0.279l0.279-5.354a0.7,0.7,0,0,1,.279-0.558,2.919,2.919,0,0,1,.6-0.381,5.5,5.5,0,0,1,.849-0.3l2.664-6.039a3.157,3.157,0,0,1,.242-0.33,0.874,0.874,0,0,1,.164-0.152,0.394,0.394,0,0,1,.164-0.063,1.767,1.767,0,0,1,.242-0.013h8.83a2.046,2.046,0,0,1,.254.013,0.515,0.515,0,0,1,.191.063,0.72,0.72,0,0,1,.176.152,1.877,1.877,0,0,1,.217.33l2.74,6.039a5.247,5.247,0,0,1,.812.3,2.521,2.521,0,0,1,.558.381A0.721,0.721,0,0,1,128.007,99.023Zm-16.568,3.755a1.728,1.728,0,0,0,.7-0.14,1.66,1.66,0,0,0,.545-0.381,1.956,1.956,0,0,0,.369-0.558,1.7,1.7,0,0,0,0-1.345,1.732,1.732,0,0,0-.913-0.913,1.728,1.728,0,0,0-.7-0.14,1.652,1.652,0,0,0-.671.14,1.715,1.715,0,0,0-.913.913,1.679,1.679,0,0,0,0,1.345,1.911,1.911,0,0,0,.367.558A1.687,1.687,0,0,0,111.439,102.778Zm1.649-5.125H123.9a0.745,0.745,0,0,0,.24-0.038,0.468,0.468,0,0,0,.191-0.114,0.49,0.49,0,0,0,.113-0.165,0.342,0.342,0,0,0,.014-0.216l-1.725-4.313a0.583,0.583,0,0,0-.1-0.2,0.647,0.647,0,0,0-.178-0.165,1.557,1.557,0,0,0-.228-0.114,0.736,0.736,0,0,0-.279-0.051h-7.1a0.736,0.736,0,0,0-.279.051,1.557,1.557,0,0,0-.228.114,0.491,0.491,0,0,0-.164.165,0.711,0.711,0,0,0-.09.2l-1.6,4.313a0.342,0.342,0,0,0,.014.216,0.433,0.433,0,0,0,.125.165,0.633,0.633,0,0,0,.2.114A0.858,0.858,0,0,0,113.088,97.653Zm12.255,5.125a1.687,1.687,0,0,0,1.218-.52,1.911,1.911,0,0,0,.367-0.558,1.679,1.679,0,0,0,0-1.345,1.715,1.715,0,0,0-.913-0.913,1.652,1.652,0,0,0-.671-0.14,1.728,1.728,0,0,0-.7.14,1.732,1.732,0,0,0-.913.913,1.7,1.7,0,0,0,0,1.345,1.956,1.956,0,0,0,.369.558,1.66,1.66,0,0,0,.545.381A1.728,1.728,0,0,0,125.343,102.778Z"/><path class="cls-7" d="M53.143,103.906H53.27v8.4a7.093,7.093,0,0,1-1.128.609,9.263,9.263,0,0,1-1.308.419,7.463,7.463,0,0,1-3.349,0,9.263,9.263,0,0,1-1.308-.419,7.093,7.093,0,0,1-1.128-.609v-8.4h0.127a7.166,7.166,0,0,0,.812.787,4.525,4.525,0,0,0,.939.6,5.619,5.619,0,0,0,1.066.381,4.95,4.95,0,0,0,2.334,0,5.619,5.619,0,0,0,1.066-.381,4.525,4.525,0,0,0,.939-0.6A7.166,7.166,0,0,0,53.143,103.906Zm-1.218-3.324a2.689,2.689,0,0,0-.217-1.066,2.754,2.754,0,0,0-.6-0.888,2.8,2.8,0,0,0-.876-0.6,2.8,2.8,0,0,0-2.155,0,2.8,2.8,0,0,0-.876.6,2.754,2.754,0,0,0-.6.888,2.689,2.689,0,0,0-.217,1.066,2.749,2.749,0,0,0,.217,1.091,2.609,2.609,0,0,0,.6.875,3.128,3.128,0,0,0,.876.6,2.656,2.656,0,0,0,2.155,0,3.128,3.128,0,0,0,.876-0.6,2.609,2.609,0,0,0,.6-0.875A2.749,2.749,0,0,0,51.925,100.583Zm-5.252,14.564a6.465,6.465,0,0,0,.671.2c0.213,0.051.474,0.1,0.788,0.14a8.339,8.339,0,0,0,2.053,0c0.314-.042.576-0.089,0.788-0.14a6.465,6.465,0,0,0,.671-0.2V117.2a2.872,2.872,0,0,1-.621.317,5.31,5.31,0,0,1-.788.2,6.58,6.58,0,0,1-2.155,0,5.31,5.31,0,0,1-.788-0.2,2.872,2.872,0,0,1-.621-0.317v-2.055Z"/><path class="cls-7" d="M94.2,110.726h0.127v8.4a7.093,7.093,0,0,1-1.128.609,9.263,9.263,0,0,1-1.308.419,7.463,7.463,0,0,1-3.349,0,9.263,9.263,0,0,1-1.308-.419,7.093,7.093,0,0,1-1.128-.609v-8.4h0.127a7.166,7.166,0,0,0,.812.787,4.525,4.525,0,0,0,.939.6,5.619,5.619,0,0,0,1.066.381,4.95,4.95,0,0,0,2.334,0,5.619,5.619,0,0,0,1.066-.381,4.525,4.525,0,0,0,.939-0.6A7.166,7.166,0,0,0,94.2,110.726ZM92.98,107.4a2.689,2.689,0,0,0-.217-1.066,2.754,2.754,0,0,0-.6-0.888,2.8,2.8,0,0,0-.876-0.6,2.8,2.8,0,0,0-2.155,0,2.8,2.8,0,0,0-.876.6,2.754,2.754,0,0,0-.6.888,2.689,2.689,0,0,0-.217,1.066,2.749,2.749,0,0,0,.217,1.091,2.609,2.609,0,0,0,.6.875,3.128,3.128,0,0,0,.876.6,2.656,2.656,0,0,0,2.155,0,3.128,3.128,0,0,0,.876-0.6,2.609,2.609,0,0,0,.6-0.875A2.749,2.749,0,0,0,92.98,107.4Zm-5.252,14.564a6.465,6.465,0,0,0,.671.2c0.213,0.051.474,0.1,0.788,0.14a8.339,8.339,0,0,0,2.053,0c0.314-.042.576-0.089,0.788-0.14a6.465,6.465,0,0,0,.671-0.2v2.055a2.872,2.872,0,0,1-.621.317,5.31,5.31,0,0,1-.788.2,6.58,6.58,0,0,1-2.155,0,5.31,5.31,0,0,1-.788-0.2,2.872,2.872,0,0,1-.621-0.317v-2.055Z"/><path class="cls-7" d="M107.593,72.224h0.127v8.4a7.093,7.093,0,0,1-1.128.609,9.263,9.263,0,0,1-1.308.419,7.463,7.463,0,0,1-3.349,0,9.263,9.263,0,0,1-1.308-.419,7.093,7.093,0,0,1-1.128-.609v-8.4h0.127a7.166,7.166,0,0,0,.812.787,4.525,4.525,0,0,0,.939.6,5.619,5.619,0,0,0,1.066.381,4.95,4.95,0,0,0,2.334,0,5.619,5.619,0,0,0,1.066-.381,4.525,4.525,0,0,0,.939-0.6A7.166,7.166,0,0,0,107.593,72.224ZM106.375,68.9a2.689,2.689,0,0,0-.217-1.066,2.754,2.754,0,0,0-.6-0.888,2.8,2.8,0,0,0-.876-0.6,2.8,2.8,0,0,0-2.155,0,2.8,2.8,0,0,0-.876.6,2.754,2.754,0,0,0-.6.888,2.689,2.689,0,0,0-.217,1.066,2.749,2.749,0,0,0,.217,1.091,2.609,2.609,0,0,0,.6.875,3.128,3.128,0,0,0,.876.6,2.656,2.656,0,0,0,2.155,0,3.128,3.128,0,0,0,.876-0.6,2.609,2.609,0,0,0,.6-0.875A2.749,2.749,0,0,0,106.375,68.9Zm-5.252,14.564a6.465,6.465,0,0,0,.671.2c0.213,0.051.474,0.1,0.788,0.14a8.339,8.339,0,0,0,2.053,0c0.314-.042.576-0.089,0.788-0.14a6.465,6.465,0,0,0,.671-0.2v2.055a2.872,2.872,0,0,1-.621.317,5.31,5.31,0,0,1-.788.2,6.58,6.58,0,0,1-2.155,0,5.31,5.31,0,0,1-.788-0.2,2.872,2.872,0,0,1-.621-0.317V83.464Z"/><path class="cls-7" d="M52.336,52.145A14.947,14.947,0,0,1,57,54.822a13.041,13.041,0,0,1,3.156,3.989,10.865,10.865,0,0,1,.8,7.73,11.077,11.077,0,0,1-1.08,2.606,12.661,12.661,0,0,1-1.686,2.3A13.45,13.45,0,0,1,56,73.366l4.22,7.836L50.118,75.919l-0.851.142c-0.284.048-.573,0.089-0.87,0.124s-0.589.059-.884,0.071-0.6.018-.906,0.018a16.366,16.366,0,0,1-5.728-.993,15.2,15.2,0,0,1-4.661-2.695A13.041,13.041,0,0,1,33.063,68.6a10.816,10.816,0,0,1,0-9.786,13.041,13.041,0,0,1,3.156-3.989,14.947,14.947,0,0,1,4.661-2.677A17.311,17.311,0,0,1,52.336,52.145Z"/><path class="cls-6" d="M50.793,59.022L51,59.189a1.21,1.21,0,0,1,.186.187c0.061,0.072.135,0.161,0.227,0.266L51.473,59.7l2.324-.433,1.044,2.226-2.127,1.5,0.02,0.1c0.014,0.131.026,0.243,0.039,0.335S52.8,63.6,52.8,63.69a1.674,1.674,0,0,1,0,.276c-0.006.1-.015,0.214-0.029,0.345v0.1l2.246,1.32-0.827,2.324L51.611,67.6l-0.039.079c-0.079.105-.149,0.2-0.206,0.276a1.933,1.933,0,0,1-.179.207c-0.058.059-.124,0.121-0.2,0.187s-0.153.138-.245,0.217l-0.079.059,0.65,2.561L49.09,72.21l-1.537-2.127H47.475c-0.132.027-.242,0.046-0.335,0.059a1.92,1.92,0,0,1-.265.02H46.608c-0.092,0-.211-0.007-0.355-0.02l-0.079-.02-1.32,2.285-2.3-.847,0.236-2.384-0.079-.059a2.776,2.776,0,0,1-.267-0.187c-0.071-.059-0.136-0.115-0.2-0.167s-0.121-.115-0.186-0.187-0.138-.161-0.217-0.266l-0.059-.059-2.364.433-1.044-2.226,2.187-1.517-0.02-.1c-0.014-.118-0.026-0.224-0.039-0.315s-0.023-.177-0.03-0.256a1.8,1.8,0,0,1,0-.256c0.008-.092.017-0.2,0.03-0.335v-0.1l-2.3-1.359,0.847-2.3,2.62,0.473,0.039-.079a3.3,3.3,0,0,1,.208-0.286c0.058-.072.114-0.138,0.167-0.2a2.445,2.445,0,0,1,.177-0.177c0.065-.059.152-0.128,0.256-0.207l0.059-.059-0.67-2.6,2.226-1.044,1.537,2.167h0.1c0.132-.027.242-0.046,0.335-0.059s0.18-.023.267-0.03a1.587,1.587,0,0,1,.255,0l0.345,0.03h0.079l1.32-2.285,2.3,0.847-0.217,2.364,0.059,0.039A3.506,3.506,0,0,1,50.793,59.022Zm-7.819,5.151a3.837,3.837,0,0,0,.344,1.369,3.69,3.69,0,0,0,.827,1.143,3.53,3.53,0,0,0,1.241.758,3.638,3.638,0,0,0,2.806-.128,3.8,3.8,0,0,0,1.133-.827,3.589,3.589,0,0,0,.985-2.689,3.5,3.5,0,0,0-.345-1.359,3.936,3.936,0,0,0-.827-1.133,3.62,3.62,0,0,0-1.25-.778,3.5,3.5,0,0,0-1.438-.207,3.858,3.858,0,0,0-1.37.345,3.717,3.717,0,0,0-1.143.827,3.561,3.561,0,0,0-.758,1.241A3.481,3.481,0,0,0,42.974,64.173Z"/></svg>