<svg id="Layer_1" data-name="Layer 1" xmlns="http://www.w3.org/2000/svg" viewBox="0 0 160.137 184.91"><defs><style>.cls-1,.cls-2{opacity:0.5;}.cls-2{fill:#a0bdd7;}.cls-3,.cls-4{fill:none;stroke:#a0bdd7;stroke-miterlimit:10;stroke-width:2px;}.cls-4{stroke-dasharray:5.076 5.076;}.cls-5{fill:#a1bed8;}.cls-6{fill:#214e6a;}</style></defs><title>resource-feature-3</title><g class="cls-1"><polygon class="cls-2" points="159.137 138.105 80.068 183.755 1 138.105 1 46.805 80.068 1.155 159.137 46.805 159.137 138.105"/><polyline class="cls-3" points="159.137 135.605 159.137 138.105 156.972 139.355"/><line class="cls-4" x1="152.575" y1="141.893" x2="84.432" y2="181.236"/><polyline class="cls-3" points="82.233 182.505 80.068 183.755 77.903 182.505"/><line class="cls-4" x1="73.507" y1="179.967" x2="5.363" y2="140.624"/><polyline class="cls-3" points="3.165 139.355 1 138.105 1 135.605"/><line class="cls-4" x1="1" y1="130.529" x2="1" y2="51.843"/><polyline class="cls-3" points="1 49.305 1 46.805 3.165 45.555"/><line class="cls-4" x1="7.561" y1="43.017" x2="75.705" y2="3.674"/><polyline class="cls-3" points="77.903 2.405 80.068 1.155 82.233 2.405"/><line class="cls-4" x1="86.63" y1="4.943" x2="154.773" y2="44.286"/><polyline class="cls-3" points="156.972 45.555 159.137 46.805 159.137 49.305"/><line class="cls-4" x1="159.137" y1="54.381" x2="159.137" y2="133.067"/></g><path class="cls-5" d="M133.284,61.441l0.449,8.606a0.989,0.989,0,0,1-.1.449,1,1,0,0,1-.286.347,1.856,1.856,0,0,1-.428.245,1.365,1.365,0,0,1-.53.1h-2v3.426a1.75,1.75,0,0,1-.163.755,1.569,1.569,0,0,1-.489.591,3.192,3.192,0,0,1-.734.408,2.285,2.285,0,0,1-.857.163,2.444,2.444,0,0,1-.877-0.163,2.71,2.71,0,0,1-.734-0.408,1.87,1.87,0,0,1-.489-0.591,1.588,1.588,0,0,1-.184-0.755V71.189H110.035v3.426a1.75,1.75,0,0,1-.163.755,1.648,1.648,0,0,1-.469.591,2.71,2.71,0,0,1-.734.408,2.438,2.438,0,0,1-1.754,0,2.71,2.71,0,0,1-.734-0.408,1.648,1.648,0,0,1-.469-0.591,1.75,1.75,0,0,1-.163-0.755V71.189h-2.243a1.477,1.477,0,0,1-.571-0.1,1.856,1.856,0,0,1-.428-0.245,1,1,0,0,1-.286-0.347,0.989,0.989,0,0,1-.1-0.449l0.449-8.606a1.12,1.12,0,0,1,.449-0.9,4.768,4.768,0,0,1,.958-0.612,8.91,8.91,0,0,1,1.366-.489l4.283-9.707a5.514,5.514,0,0,1,.387-0.53,1.4,1.4,0,0,1,.265-0.245,0.634,0.634,0,0,1,.265-0.1,2.88,2.88,0,0,1,.387-0.02h14.194a3.382,3.382,0,0,1,.408.02,0.814,0.814,0,0,1,.306.1,1.144,1.144,0,0,1,.286.245,3.244,3.244,0,0,1,.347.53l4.4,9.707a8.393,8.393,0,0,1,1.305.489,4.029,4.029,0,0,1,.9.612A1.162,1.162,0,0,1,133.284,61.441ZM106.65,67.477a2.755,2.755,0,0,0,1.122-.224,2.679,2.679,0,0,0,.877-0.612,3.119,3.119,0,0,0,.591-0.9,2.716,2.716,0,0,0,0-2.162,2.771,2.771,0,0,0-1.468-1.468,2.755,2.755,0,0,0-1.122-.224,2.654,2.654,0,0,0-1.081.224,2.771,2.771,0,0,0-1.468,1.468,2.716,2.716,0,0,0,0,2.162,3.119,3.119,0,0,0,.591.9A2.7,2.7,0,0,0,106.65,67.477Zm2.651-8.239h17.375a1.217,1.217,0,0,0,.387-0.061,0.768,0.768,0,0,0,.306-0.184,0.847,0.847,0,0,0,.184-0.265,0.582,0.582,0,0,0,.02-0.347L124.8,51.448a0.919,0.919,0,0,0-.163-0.326,1.054,1.054,0,0,0-.286-0.265,2.311,2.311,0,0,0-.367-0.184,1.2,1.2,0,0,0-.449-0.082h-11.42a1.2,1.2,0,0,0-.449.082,2.311,2.311,0,0,0-.367.184,0.823,0.823,0,0,0-.265.265,1.137,1.137,0,0,0-.143.326l-2.57,6.934a0.582,0.582,0,0,0,.02.347,0.733,0.733,0,0,0,.2.265,0.965,0.965,0,0,0,.326.184A1.356,1.356,0,0,0,109.3,59.239ZM129,67.477a2.7,2.7,0,0,0,1.958-.836,3.119,3.119,0,0,0,.591-0.9,2.716,2.716,0,0,0,0-2.162,2.771,2.771,0,0,0-1.468-1.468A2.654,2.654,0,0,0,129,61.89a2.755,2.755,0,0,0-1.122.224,2.771,2.771,0,0,0-1.468,1.468,2.716,2.716,0,0,0,0,2.162,3.119,3.119,0,0,0,.591.9,2.679,2.679,0,0,0,.877.612A2.755,2.755,0,0,0,129,67.477Z"/><path class="cls-5" d="M53.444,51.184a12.176,12.176,0,0,0-6.436-6.436,12.043,12.043,0,0,0-9.4,0,12.281,12.281,0,0,0-3.842,2.594,12.019,12.019,0,0,0-3.5,8.541,12.121,12.121,0,0,0,.514,3.548,11.966,11.966,0,0,0,1.468,3.132,11.673,11.673,0,0,0,2.276,2.545,12.9,12.9,0,0,0,2.937,1.835l5.041,11.5L47.742,66.7a13.514,13.514,0,0,0,2.692-1.884,11.869,11.869,0,0,0,2.1-2.5,12.171,12.171,0,0,0,1.37-3.035,11.828,11.828,0,0,0,.489-3.4A11.689,11.689,0,0,0,53.444,51.184Zm-5.531,7.023a6.015,6.015,0,0,1-5.6,3.7,5.916,5.916,0,0,1-2.325-.465,6.015,6.015,0,0,1-1.933-1.3,6.361,6.361,0,0,1-1.321-1.933,5.778,5.778,0,0,1-.489-2.374,5.661,5.661,0,0,1,.489-2.325,6.338,6.338,0,0,1,3.255-3.255,5.661,5.661,0,0,1,2.325-.489,5.778,5.778,0,0,1,2.374.489,6.361,6.361,0,0,1,1.933,1.321,6.015,6.015,0,0,1,1.3,1.933,5.916,5.916,0,0,1,.465,2.325A6.04,6.04,0,0,1,47.913,58.207Z"/><path class="cls-5" d="M124.453,119.3h0.211v13.973a11.813,11.813,0,0,1-1.879,1.013,15.293,15.293,0,0,1-2.174.7,12.417,12.417,0,0,1-5.572,0,15.293,15.293,0,0,1-2.174-.7,11.813,11.813,0,0,1-1.879-1.013V119.3H111.2a11.833,11.833,0,0,0,1.351,1.309,7.528,7.528,0,0,0,1.562.992,9.479,9.479,0,0,0,1.773.633,8.237,8.237,0,0,0,3.884,0,9.479,9.479,0,0,0,1.773-.633,7.528,7.528,0,0,0,1.562-.992A11.833,11.833,0,0,0,124.453,119.3Zm-2.026-5.53a4.487,4.487,0,0,0-.359-1.773,4.627,4.627,0,0,0-.992-1.477,4.694,4.694,0,0,0-1.456-.992,4.665,4.665,0,0,0-3.588,0,4.694,4.694,0,0,0-1.456.992,4.627,4.627,0,0,0-.992,1.477,4.487,4.487,0,0,0-.359,1.773,4.592,4.592,0,0,0,.359,1.815,4.387,4.387,0,0,0,.992,1.456,5.233,5.233,0,0,0,1.456.992,4.426,4.426,0,0,0,3.588,0,5.233,5.233,0,0,0,1.456-.992,4.387,4.387,0,0,0,.992-1.456A4.592,4.592,0,0,0,122.427,113.768ZM113.689,138a10.913,10.913,0,0,0,1.119.338q0.528,0.127,1.309.232a13.9,13.9,0,0,0,3.419,0q0.781-.106,1.309-0.232a10.913,10.913,0,0,0,1.119-.338v3.419a4.789,4.789,0,0,1-1.034.528,8.715,8.715,0,0,1-1.309.338,10.967,10.967,0,0,1-3.588,0,8.715,8.715,0,0,1-1.309-.338,4.789,4.789,0,0,1-1.034-.528V138Z"/><path class="cls-5" d="M42.334,114.769a13.1,13.1,0,0,1,5.3,1.083,14.142,14.142,0,0,1,4.332,2.918,13.5,13.5,0,0,1,2.918,4.313,13.747,13.747,0,0,1,0,10.609,13.649,13.649,0,0,1-7.25,7.25,13.747,13.747,0,0,1-10.609,0,13.649,13.649,0,0,1-7.25-7.25,13.747,13.747,0,0,1,0-10.609,13.5,13.5,0,0,1,2.918-4.313,14.142,14.142,0,0,1,4.332-2.918A13.1,13.1,0,0,1,42.334,114.769Zm0,23.677a9.836,9.836,0,0,0,3.928-.789,10.01,10.01,0,0,0,5.341-5.341,10.077,10.077,0,0,0,0-7.819,10.343,10.343,0,0,0-2.147-3.212,9.968,9.968,0,0,0-3.194-2.166,10.168,10.168,0,0,0-7.856,0,9.968,9.968,0,0,0-3.194,2.166,10.343,10.343,0,0,0-2.147,3.212,10.077,10.077,0,0,0,0,7.819,10.01,10.01,0,0,0,5.341,5.341A9.836,9.836,0,0,0,42.334,138.446Zm1.028-11.306a7.214,7.214,0,0,1,1.34.587,3.557,3.557,0,0,1,.918.734,2.644,2.644,0,0,1,.514.9,3.531,3.531,0,0,1,.165,1.12,3.13,3.13,0,0,1-.2,1.12,3.013,3.013,0,0,1-.606.973,3.374,3.374,0,0,1-.991.734,5.207,5.207,0,0,1-1.358.44v1.8H41.379v-1.652q-0.44-.037-0.863-0.11t-0.826-.165a5.221,5.221,0,0,1-.734-0.22,4.4,4.4,0,0,1-.587-0.275l0.551-2.092a6.554,6.554,0,0,0,.587.294,5.444,5.444,0,0,0,.716.257,5.646,5.646,0,0,0,.789.165,6.248,6.248,0,0,0,.844.055,3.208,3.208,0,0,0,.7-0.073,1.921,1.921,0,0,0,.551-0.2,0.953,0.953,0,0,0,.349-0.349,0.931,0.931,0,0,0,.128-0.477,0.977,0.977,0,0,0-.11-0.44,1.186,1.186,0,0,0-.349-0.4,3.236,3.236,0,0,0-.587-0.349q-0.349-.165-0.863-0.349a8.785,8.785,0,0,1-1.285-.514,4.412,4.412,0,0,1-1.009-.679,2.808,2.808,0,0,1-.661-0.9,2.669,2.669,0,0,1-.239-1.138,3.13,3.13,0,0,1,.2-1.12,2.757,2.757,0,0,1,.587-0.936,3.664,3.664,0,0,1,.936-0.7,3.962,3.962,0,0,1,1.285-.4v-1.689h1.725v1.542q0.44,0.037.808,0.092t0.7,0.128a4.948,4.948,0,0,1,.587.165q0.257,0.092.514,0.2l-0.551,2.019q-0.147-.073-0.385-0.184a3.787,3.787,0,0,0-.569-0.2q-0.33-.092-0.716-0.165a4.63,4.63,0,0,0-.863-0.073A2.5,2.5,0,0,0,42,124.7a1.45,1.45,0,0,0-.477.239,0.812,0.812,0,0,0-.257.33,0.982,0.982,0,0,0-.073.367,0.722,0.722,0,0,0,.128.385,1.239,1.239,0,0,0,.385.367,5.3,5.3,0,0,0,.661.349Q42.774,126.92,43.362,127.14Z"/><path class="cls-6" d="M62.514,82.618H96.042v27.809H82.729V98.4h-6.9v12.031H62.514V82.618ZM72.128,94.6V87.746H65.275V94.6h6.854Zm0,10.65V98.4H65.275v6.854h6.854Zm0-29.831v4.832h14.3V75.419h-14.3Zm10.6,19.18V87.746h-6.9V94.6h6.9Zm10.552,0V87.746H86.427V94.6h6.854Zm0,10.65V98.4H86.427v6.854h6.854Z"/></svg>