<svg id="Layer_1" data-name="Layer 1" xmlns="http://www.w3.org/2000/svg" viewBox="0 0 160.137 184.91"><defs><style>.cls-1{fill:#a0bdd7;fill-opacity:0.5;stroke:#a0bdd7;stroke-miterlimit:10;stroke-width:2px;stroke-dasharray:5 5;opacity:0.5;}.cls-2{fill:#214e6a;}.cls-3{fill:#a1bed8;}</style></defs><title>resource-feature-4</title><polygon class="cls-1" points="159.137 138.105 80.068 183.755 1 138.105 1 46.805 80.068 1.155 159.137 46.805 159.137 138.105"/><path class="cls-2" d="M52.217,92.911a1.079,1.079,0,0,1,.371.079,0.718,0.718,0,0,1,.318.212,2.477,2.477,0,0,1,.212.318,0.413,0.413,0,0,1,.053.344l0.053,25.57q-0.053.212-.106,0.4a0.635,0.635,0,0,1-.212.318,1.657,1.657,0,0,1-.318.212,0.954,0.954,0,0,1-.424.079H38.982a11.938,11.938,0,0,1,2.621,1.35,12.306,12.306,0,0,1,2.276,1.959,10.544,10.544,0,0,1,1.615,2.356,5.257,5.257,0,0,1,.582,2.594H24.953a5.257,5.257,0,0,1,.582-2.594,10.544,10.544,0,0,1,1.615-2.356,12.306,12.306,0,0,1,2.276-1.959,11.938,11.938,0,0,1,2.621-1.35H18.865a0.954,0.954,0,0,1-.424-0.079,1.657,1.657,0,0,1-.318-0.212,0.635,0.635,0,0,1-.212-0.318q-0.053-.185-0.106-0.4l0.053-25.57a0.413,0.413,0,0,1,.053-0.344,2.477,2.477,0,0,1,.212-0.318,0.718,0.718,0,0,1,.318-0.212,1.079,1.079,0,0,1,.371-0.079h33.4ZM50.364,112.87l0.053-16.888q-0.053-.159-0.079-0.265a0.468,0.468,0,0,0-.132-0.212,0.83,0.83,0,0,0-.212-0.159,0.737,0.737,0,0,0-.318-0.053H21.353a0.737,0.737,0,0,0-.318.053,0.83,0.83,0,0,0-.212.159,0.468,0.468,0,0,0-.132.212q-0.026.106-.079,0.265l0.053,16.888a0.335,0.335,0,0,0,.026.291q0.079,0.132.132,0.212a0.4,0.4,0,0,0,.212.132,0.871,0.871,0,0,0,.265.053H49.729a0.871,0.871,0,0,0,.265-0.053,0.4,0.4,0,0,0,.212-0.132q0.053-.079.132-0.212A0.335,0.335,0,0,0,50.364,112.87Z" transform="translate(0 0)"/><path class="cls-2" d="M141.325,92.911a1.079,1.079,0,0,1,.371.079,0.718,0.718,0,0,1,.318.212,2.477,2.477,0,0,1,.212.318,0.413,0.413,0,0,1,.053.344l0.053,25.57q-0.053.212-.106,0.4a0.635,0.635,0,0,1-.212.318,1.657,1.657,0,0,1-.318.212,0.954,0.954,0,0,1-.424.079H128.09a11.938,11.938,0,0,1,2.621,1.35,12.306,12.306,0,0,1,2.276,1.959A10.544,10.544,0,0,1,134.6,126.1a5.257,5.257,0,0,1,.582,2.594H114.061a5.257,5.257,0,0,1,.582-2.594,10.544,10.544,0,0,1,1.615-2.356,12.306,12.306,0,0,1,2.276-1.959,11.938,11.938,0,0,1,2.621-1.35H107.973a0.954,0.954,0,0,1-.424-0.079,1.657,1.657,0,0,1-.318-0.212,0.635,0.635,0,0,1-.212-0.318q-0.053-.185-0.106-0.4l0.053-25.57a0.413,0.413,0,0,1,.053-0.344,2.477,2.477,0,0,1,.212-0.318,0.718,0.718,0,0,1,.318-0.212,1.079,1.079,0,0,1,.371-0.079h33.4Zm-1.853,19.958,0.053-16.888q-0.053-.159-0.079-0.265a0.468,0.468,0,0,0-.132-0.212,0.83,0.83,0,0,0-.212-0.159,0.737,0.737,0,0,0-.318-0.053H110.461a0.737,0.737,0,0,0-.318.053,0.83,0.83,0,0,0-.212.159,0.468,0.468,0,0,0-.132.212q-0.026.106-.079,0.265l0.053,16.888a0.335,0.335,0,0,0,.026.291q0.079,0.132.132,0.212a0.4,0.4,0,0,0,.212.132,0.871,0.871,0,0,0,.265.053h28.429a0.871,0.871,0,0,0,.265-0.053,0.4,0.4,0,0,0,.212-0.132q0.053-.079.132-0.212A0.335,0.335,0,0,0,139.472,112.87Z" transform="translate(0 0)"/><path class="cls-3" d="M87.018,114.821v-4.645H72.841v4.645l-8.327-6.435,8.327-6.4V106.6H87.018v-4.611l8.327,6.4Z" transform="translate(0 0)"/><path class="cls-3" d="M58.689,69.53L55.4,66.245,45.38,76.27l3.285,3.285L38.226,80.893l1.363-10.414,3.26,3.26L52.874,63.715l-3.26-3.26,10.414-1.363Z" transform="translate(0 0)"/><path class="cls-3" d="M100.109,59.092l10.414,1.363-3.26,3.26,10.025,10.025,3.26-3.26,1.363,10.414-10.438-1.338,3.285-3.285L104.732,66.245l-3.285,3.285Z" transform="translate(0 0)"/><path class="cls-2" d="M71.3,36.211H88.559a1.416,1.416,0,0,1,.529.106,1.321,1.321,0,0,1,.45.291,1.4,1.4,0,0,1,.291.424,1.358,1.358,0,0,1,.106.556V68.769a1.416,1.416,0,0,1-.106.529,1.279,1.279,0,0,1-.741.741,1.416,1.416,0,0,1-.529.106H71.3a1.416,1.416,0,0,1-.529-0.106A1.279,1.279,0,0,1,70.03,69.3a1.416,1.416,0,0,1-.106-0.529V37.588a1.358,1.358,0,0,1,.106-0.556,1.4,1.4,0,0,1,.291-0.424,1.321,1.321,0,0,1,.45-0.291A1.416,1.416,0,0,1,71.3,36.211ZM87.606,60.775V42.3a1.358,1.358,0,0,0-.106-0.556,1.4,1.4,0,0,0-.291-0.424,1.321,1.321,0,0,0-.45-0.291,1.416,1.416,0,0,0-.529-0.106H73.63a1.416,1.416,0,0,0-.529.106,1.321,1.321,0,0,0-.45.291,1.4,1.4,0,0,0-.291.424,1.358,1.358,0,0,0-.106.556V60.775a1.358,1.358,0,0,0,.106.556,1.4,1.4,0,0,0,.291.424,1.321,1.321,0,0,0,.45.291,1.416,1.416,0,0,0,.529.106h12.6a1.416,1.416,0,0,0,.529-0.106,1.321,1.321,0,0,0,.45-0.291,1.4,1.4,0,0,0,.291-0.424A1.358,1.358,0,0,0,87.606,60.775ZM74.847,37.111a1.768,1.768,0,0,0-.609.106,1.35,1.35,0,0,0-.821.821,1.768,1.768,0,0,0-.106.609,1.626,1.626,0,0,0,.106.556,1.35,1.35,0,0,0,.821.821,1.768,1.768,0,0,0,.609.106,1.554,1.554,0,0,0,.582-0.106,1.41,1.41,0,0,0,.476-0.318,1.357,1.357,0,0,0,.318-0.5,1.626,1.626,0,0,0,.106-0.556,1.768,1.768,0,0,0-.106-0.609,1.357,1.357,0,0,0-.318-0.5,1.41,1.41,0,0,0-.476-0.318A1.554,1.554,0,0,0,74.847,37.111ZM79.93,69.14a2.91,2.91,0,0,0,1.218-.265,3.391,3.391,0,0,0,1.006-.688,3.024,3.024,0,0,0,.662-1.006,3.231,3.231,0,0,0,0-2.435,2.979,2.979,0,0,0-1.668-1.668,3.185,3.185,0,0,0-1.218-.238,3.044,3.044,0,0,0-2.223.9,3.391,3.391,0,0,0-.688,1.006,2.933,2.933,0,0,0,0,2.435,3.391,3.391,0,0,0,.688,1.006,3.5,3.5,0,0,0,.979.688A2.857,2.857,0,0,0,79.93,69.14Zm0-31.128v1.218a3.768,3.768,0,0,0,.688.185q0.424,0.079.953,0.132l1.085,0.106q0.556,0.053,1.085.053h0.265q0.529,0,1.085-.053l1.085-.106q0.529-.053.953-0.132a3.768,3.768,0,0,0,.688-0.185V38.011a3.768,3.768,0,0,0-.688-0.185q-0.424-.079-0.953-0.132l-1.085-.106q-0.556-.053-1.085-0.053H83.741q-0.529,0-1.085.053l-1.085.106q-0.529.053-.953,0.132A3.768,3.768,0,0,0,79.93,38.011Z" transform="translate(0 0)"/></svg>