<svg id="Layer_1" data-name="Layer 1" xmlns="http://www.w3.org/2000/svg" viewBox="0 0 160.137 184.91"><defs><style>.cls-1,.cls-2{opacity:0.5;}.cls-2{fill:#a0bdd7;}.cls-3,.cls-4,.cls-6{fill:none;}.cls-3,.cls-4{stroke:#a0bdd7;stroke-miterlimit:10;stroke-width:2px;}.cls-4{stroke-dasharray:5.076 5.076;}.cls-5{fill:#214e6a;}.cls-7{fill:#a1bed8;}</style></defs><title>resource-feature-1</title><g class="cls-1"><polygon class="cls-2" points="159.137 138.105 80.068 183.755 1 138.105 1 46.805 80.068 1.155 159.137 46.805 159.137 138.105"/><polyline class="cls-3" points="159.137 135.605 159.137 138.105 156.972 139.355"/><line class="cls-4" x1="152.575" y1="141.893" x2="84.432" y2="181.236"/><polyline class="cls-3" points="82.233 182.505 80.068 183.755 77.903 182.505"/><line class="cls-4" x1="73.507" y1="179.967" x2="5.363" y2="140.624"/><polyline class="cls-3" points="3.165 139.355 1 138.105 1 135.605"/><line class="cls-4" x1="1" y1="130.529" x2="1" y2="51.843"/><polyline class="cls-3" points="1 49.305 1 46.805 3.165 45.555"/><line class="cls-4" x1="7.561" y1="43.017" x2="75.705" y2="3.674"/><polyline class="cls-3" points="77.903 2.405 80.068 1.155 82.233 2.405"/><line class="cls-4" x1="86.63" y1="4.943" x2="154.773" y2="44.286"/><polyline class="cls-3" points="156.972 45.555 159.137 46.805 159.137 49.305"/><line class="cls-4" x1="159.137" y1="54.381" x2="159.137" y2="133.067"/></g><path class="cls-5" d="M115.283,91.255h0.382v27a21.352,21.352,0,0,1-3.4,1.833,27.883,27.883,0,0,1-3.936,1.26,22.466,22.466,0,0,1-10.082,0,27.883,27.883,0,0,1-3.936-1.26,21.352,21.352,0,0,1-3.4-1.833v-27H91.3a21.57,21.57,0,0,0,2.444,2.368,13.621,13.621,0,0,0,2.826,1.795,16.915,16.915,0,0,0,3.208,1.146,14.9,14.9,0,0,0,7.027,0,16.915,16.915,0,0,0,3.208-1.146,13.621,13.621,0,0,0,2.826-1.795A21.57,21.57,0,0,0,115.283,91.255Z"/><path class="cls-5" d="M111.617,82.969a8.093,8.093,0,0,0-.652-3.208,8.289,8.289,0,0,0-1.792-2.673,8.421,8.421,0,0,0-2.638-1.795,8.425,8.425,0,0,0-6.486,0,8.421,8.421,0,0,0-2.638,1.795,8.289,8.289,0,0,0-1.792,2.673,8.093,8.093,0,0,0-.652,3.208,8.276,8.276,0,0,0,.652,3.284,7.853,7.853,0,0,0,1.792,2.635,9.418,9.418,0,0,0,2.638,1.795,7.994,7.994,0,0,0,6.486,0,9.418,9.418,0,0,0,2.638-1.795,7.853,7.853,0,0,0,1.792-2.635A8.276,8.276,0,0,0,111.617,82.969Z"/><path class="cls-5" d="M95.807,125.09a19.461,19.461,0,0,0,2.021.611c0.64,0.153,1.428.294,2.374,0.42a25.1,25.1,0,0,0,6.181,0c0.946-.126,1.733-0.267,2.374-0.42a19.461,19.461,0,0,0,2.021-.611V133a8.646,8.646,0,0,1-1.868.955,15.983,15.983,0,0,1-2.374.611,19.806,19.806,0,0,1-6.486,0,15.983,15.983,0,0,1-2.374-.611A8.646,8.646,0,0,1,95.807,133V125.09Z"/><path class="cls-6" d="M88.919,89.255H92.2l0.6,0.678a19.637,19.637,0,0,0,1.6,1.593V88.247a10.126,10.126,0,0,1-.619-1.21,10.308,10.308,0,0,1-.813-4.069,10.106,10.106,0,0,1,.809-3.983,10.523,10.523,0,0,1,.5-1.017H49.869V106.98h39.05V89.255ZM59.99,99.933H54.967V94.91H59.99v5.023Zm0-8.921H54.967V85.989H59.99v5.023Zm9.371,8.921H64.337V94.91H69.36v5.023Zm0-8.921H64.337V85.989H69.36v5.023Zm9.371,8.921H73.708V94.91h5.023v5.023Zm0-8.921H73.708V85.989h5.023v5.023Zm9.221,8.921H82.929V94.91h5.023v5.023Zm0-8.921H82.929V85.989h5.023v5.023Z"/><rect class="cls-7" x="82.929" y="85.989" width="5.023" height="5.023"/><rect class="cls-7" x="64.337" y="94.91" width="5.023" height="5.023"/><rect class="cls-7" x="73.708" y="94.91" width="5.023" height="5.023"/><rect class="cls-7" x="54.967" y="85.989" width="5.023" height="5.023"/><rect class="cls-7" x="82.929" y="94.91" width="5.023" height="5.023"/><rect class="cls-7" x="64.337" y="85.989" width="5.023" height="5.023"/><rect class="cls-7" x="73.708" y="85.989" width="5.023" height="5.023"/><rect class="cls-7" x="84.353" y="50.081" width="5.397" height="12.519"/><rect class="cls-7" x="53.917" y="50.081" width="5.397" height="12.519"/><rect class="cls-7" x="69.435" y="50.081" width="5.397" height="12.519"/><rect class="cls-7" x="54.967" y="94.91" width="5.023" height="5.023"/><path class="cls-7" d="M49.869,106.98V77.968H92.047a12.288,12.288,0,0,1,2.535-3.709,12.434,12.434,0,0,1,3.863-2.631,11.483,11.483,0,0,1,1.35-.482V58.027H92.075v8.021H82.029V58.027H77.156v8.021H67.111V58.027H61.639v8.021H51.593V58.027H44.472v55.549H86.919v-6.6H49.869Z"/></svg>