<svg id="Layer_1" data-name="Layer 1" xmlns="http://www.w3.org/2000/svg" viewBox="0 0 160.137 184.91"><defs><style>.cls-1,.cls-2{opacity:0.5;}.cls-2{fill:#a0bdd7;}.cls-3,.cls-4{fill:none;stroke:#a0bdd7;stroke-miterlimit:10;stroke-width:2px;}.cls-4{stroke-dasharray:5.076 5.076;}.cls-5{fill:#214e6a;}.cls-6{fill:#a1bed8;}</style></defs><title>resource-feature-2</title><g class="cls-1"><polygon class="cls-2" points="159.137 138.105 80.068 183.755 1 138.105 1 46.805 80.068 1.155 159.137 46.805 159.137 138.105"/><polyline class="cls-3" points="159.137 135.605 159.137 138.105 156.972 139.355"/><line class="cls-4" x1="152.575" y1="141.893" x2="84.432" y2="181.236"/><polyline class="cls-3" points="82.233 182.505 80.068 183.755 77.903 182.505"/><line class="cls-4" x1="73.507" y1="179.967" x2="5.363" y2="140.624"/><polyline class="cls-3" points="3.165 139.355 1 138.105 1 135.605"/><line class="cls-4" x1="1" y1="130.529" x2="1" y2="51.843"/><polyline class="cls-3" points="1 49.305 1 46.805 3.165 45.555"/><line class="cls-4" x1="7.561" y1="43.017" x2="75.705" y2="3.674"/><polyline class="cls-3" points="77.903 2.405 80.068 1.155 82.233 2.405"/><line class="cls-4" x1="86.63" y1="4.943" x2="154.773" y2="44.286"/><polyline class="cls-3" points="156.972 45.555 159.137 46.805 159.137 49.305"/><line class="cls-4" x1="159.137" y1="54.381" x2="159.137" y2="133.067"/></g><path class="cls-5" d="M90.455,77.432a23.379,23.379,0,0,0-.806,6.745,24.055,24.055,0,0,0,1.064,6.494,23.459,23.459,0,0,0,2.741,5.842,26.711,26.711,0,0,0,4.175,4.975l3.989,25.105,15.508-19.38a25.5,25.5,0,0,0,6.545-2,23.072,23.072,0,0,0,5.647-3.695,23.651,23.651,0,0,0,4.406-5.229,23.956,23.956,0,0,0,2.8-6.512,23.756,23.756,0,0,0-2.312-18.1,24.273,24.273,0,0,0-6.008-6.918,23.8,23.8,0,0,0-17.941-4.807,24.066,24.066,0,0,0-15.58,9A23.1,23.1,0,0,0,90.455,77.432Zm11.518,2.986a11.693,11.693,0,0,1,2.077-4.2,11.889,11.889,0,0,1,3.465-3.027,12.573,12.573,0,0,1,4.367-1.534,11.42,11.42,0,0,1,4.782.28,11.189,11.189,0,0,1,4.188,2.124,12.528,12.528,0,0,1,4.549,7.879,11.189,11.189,0,0,1-.255,4.689A11.42,11.42,0,0,1,123,90.909a12.573,12.573,0,0,1-3.512,3.015,11.889,11.889,0,0,1-4.354,1.487,11.693,11.693,0,0,1-4.676-.3A11.889,11.889,0,0,1,101.974,80.418Z"/><path class="cls-6" d="M71.917,77.432a23.105,23.105,0,0,0-4.226-8.482,24.066,24.066,0,0,0-15.58-9A23.8,23.8,0,0,0,34.17,64.761a24.275,24.275,0,0,0-6.008,6.918,23.757,23.757,0,0,0-2.312,18.1,23.957,23.957,0,0,0,2.8,6.512,23.647,23.647,0,0,0,4.406,5.229,23.071,23.071,0,0,0,5.647,3.695,25.49,25.49,0,0,0,6.545,2l15.508,19.38,3.989-25.105a26.713,26.713,0,0,0,4.175-4.975,23.459,23.459,0,0,0,2.741-5.842,24.054,24.054,0,0,0,1.064-6.494A23.379,23.379,0,0,0,71.917,77.432Z"/><path class="cls-5" d="M44.563,74.709a6.931,6.931,0,0,1,.886-0.48,9.046,9.046,0,0,1,.991-0.381,8.321,8.321,0,0,1,1.085-.265,10.543,10.543,0,0,1,1.486-.159,11.061,11.061,0,0,1,1.374.037,7.312,7.312,0,0,1,1.276.231,7.019,7.019,0,0,1,1.2.451,4.672,4.672,0,0,1,1.03.671,5.156,5.156,0,0,1,.8.873,4.925,4.925,0,0,1,.589,1.087,6.94,6.94,0,0,1,.37,1.346,5.933,5.933,0,0,1,.089.837,5.113,5.113,0,0,1-.035.8,5.9,5.9,0,0,1-.145.761,3.047,3.047,0,0,1-.274.7,3.166,3.166,0,0,1-.246.44q-0.162.249-.364,0.52t-0.456.58q-0.254.309-.575,0.66l-0.81.907q-0.169.206-.3,0.391a3.56,3.56,0,0,0-.239.395,1.984,1.984,0,0,0-.163.411q-0.053.2-.1,0.415a0.356,0.356,0,0,1-.032.153l-0.047.067a0.221,0.221,0,0,0-.023.122,2.962,2.962,0,0,0,.051.373l-3.65.644q-0.072-.575-0.1-0.922a3.715,3.715,0,0,1-.015-0.585,2.308,2.308,0,0,1,.06-0.408q0.044-.169.089-0.413a3.066,3.066,0,0,1,.164-0.485,3.487,3.487,0,0,1,.3-0.553q0.185-.283.437-0.606t0.572-.674l0.834-.941q0.1-.106.2-0.226t0.179-.237q0.082-.117.15-0.232a1.064,1.064,0,0,0,.1-0.239,1.944,1.944,0,0,0,.177-0.413,3.657,3.657,0,0,0,.1-0.429A2.05,2.05,0,0,0,51.6,79.5a3.393,3.393,0,0,0-.049-0.447,2.911,2.911,0,0,0-.131-0.491,3.833,3.833,0,0,0-.2-0.45,3.111,3.111,0,0,0-.266-0.424,3.233,3.233,0,0,0-.332-0.382,1.4,1.4,0,0,0-.424-0.322,1.99,1.99,0,0,0-.53-0.171,3.44,3.44,0,0,0-.641-0.049,4.586,4.586,0,0,0-.751.074,3.541,3.541,0,0,0-.7.2,2.772,2.772,0,0,0-.578.308,2.156,2.156,0,0,0-.429.4,2.215,2.215,0,0,0-.307.51,4.868,4.868,0,0,0-.3,1.155,3.786,3.786,0,0,0-.033.564,3.615,3.615,0,0,0,.055.564l-3.906.689a11.078,11.078,0,0,1-.072-1.825,7.223,7.223,0,0,1,.249-1.587,5.27,5.27,0,0,1,.6-1.369A5.387,5.387,0,0,1,43.8,75.3,5.534,5.534,0,0,1,44.563,74.709Zm8.18,14.625,0.689,3.906-4.02.709-0.689-3.906Z"/></svg>