<svg id="Layer_1" data-name="Layer 1" xmlns="http://www.w3.org/2000/svg" viewBox="0 0 160.137 184.91"><defs><style>.cls-1{fill:#fab55f;fill-opacity:0.5;stroke:#fab55f;stroke-miterlimit:10;stroke-width:2px;stroke-dasharray:5 5;opacity:0.5;}.cls-2{fill:#fcb55e;}.cls-3{fill:#a04924;}</style></defs><title>route-feature-2</title><polygon class="cls-1" points="159.137 138.105 80.068 183.755 1 138.105 1 46.805 80.068 1.155 159.137 46.805 159.137 138.105"/><path class="cls-2" d="M40.488,86.446a9.311,9.311,0,0,0-2.97-2.014,9.457,9.457,0,0,0-7.306,0,9.265,9.265,0,0,0-2.97,2.014,9.6,9.6,0,0,0-2,2.987,9.373,9.373,0,0,0,0,7.271,9.356,9.356,0,0,0,2,2.97,9.583,9.583,0,0,0,2.97,2.014,9.258,9.258,0,0,0,7.306,0,9.633,9.633,0,0,0,2.97-2.014,9.428,9.428,0,0,0,2-2.97,9.373,9.373,0,0,0,0-7.271A9.678,9.678,0,0,0,40.488,86.446Zm-6.077,9.678-2.287-.615,2.526-9.388,2.287,0.615Z"/><path class="cls-2" d="M51.594,71.391H17.5a3.549,3.549,0,0,0-3.549,3.549v34.283a3.549,3.549,0,0,0,3.549,3.549H51.594a3.549,3.549,0,0,0,3.549-3.549V74.94A3.549,3.549,0,0,0,51.594,71.391ZM32.056,75.607h4.95v3.175h-4.95V75.607ZM45.54,97.984a12.693,12.693,0,0,1-6.742,6.742,12.785,12.785,0,0,1-9.866,0,12.694,12.694,0,0,1-6.742-6.742,12.743,12.743,0,0,1,0-9.849A12.509,12.509,0,0,1,24.9,84.107a13.159,13.159,0,0,1,4.028-2.714,12.585,12.585,0,0,1,9.866,0,13.184,13.184,0,0,1,4.028,2.714,12.578,12.578,0,0,1,2.714,4.028A12.741,12.741,0,0,1,45.54,97.984ZM45.643,84l-2.629-2.629,2.253-2.253L47.9,81.786Z"/><path class="cls-3" d="M86.691,86.609a9.309,9.309,0,0,0-2.97-2.014,9.456,9.456,0,0,0-7.306,0,9.26,9.26,0,0,0-2.97,2.014,9.6,9.6,0,0,0-2,2.987,9.371,9.371,0,0,0,0,7.271,9.31,9.31,0,0,0,4.967,4.967,9.457,9.457,0,0,0,7.306,0,9.31,9.31,0,0,0,4.967-4.967,9.37,9.37,0,0,0,0-7.271A9.676,9.676,0,0,0,86.691,86.609ZM83.568,96.2a2.821,2.821,0,0,1-.563.9,3.163,3.163,0,0,1-.922.683,4.747,4.747,0,0,1-1.263.41v1.673H79.181V98.336a8.064,8.064,0,0,1-.8-0.1q-0.394-.067-0.768-0.154a4.454,4.454,0,0,1-.683-0.2,3.843,3.843,0,0,1-.546-0.256l0.512-1.946a5.423,5.423,0,0,0,.546.273,4.966,4.966,0,0,0,.666.239,5.209,5.209,0,0,0,.734.154,5.807,5.807,0,0,0,.785.051,2.907,2.907,0,0,0,.649-0.068,1.726,1.726,0,0,0,.512-0.188,0.891,0.891,0,0,0,.324-0.324,0.871,0.871,0,0,0,.119-0.444,0.91,0.91,0,0,0-.1-0.41,1.125,1.125,0,0,0-.324-0.375,3.123,3.123,0,0,0-.546-0.324c-0.218-.1-0.484-0.209-0.8-0.324a7.934,7.934,0,0,1-1.195-.478,4.032,4.032,0,0,1-.939-0.632,2.576,2.576,0,0,1-.615-0.836,2.454,2.454,0,0,1-.222-1.058,2.9,2.9,0,0,1,.188-1.041,2.569,2.569,0,0,1,.546-0.871,3.457,3.457,0,0,1,.871-0.649,3.69,3.69,0,0,1,1.195-.376v-1.57h1.6v1.434c0.273,0.023.523,0.051,0.751,0.085s0.444,0.075.649,0.12a5.25,5.25,0,0,1,.546.154c0.158,0.058.318,0.12,0.478,0.188L82.8,90.279c-0.092-.045-0.211-0.1-0.359-0.171a3.665,3.665,0,0,0-.529-0.188q-0.307-.083-0.666-0.154a4.378,4.378,0,0,0-.8-0.068,2.368,2.368,0,0,0-.683.085,1.369,1.369,0,0,0-.444.222,0.747,0.747,0,0,0-.239.307,0.9,0.9,0,0,0-.068.341,0.652,0.652,0,0,0,.12.358,1.128,1.128,0,0,0,.358.341,4.647,4.647,0,0,0,.615.324c0.25,0.115.557,0.239,0.922,0.376a6.8,6.8,0,0,1,1.246.546,3.361,3.361,0,0,1,.854.683,2.485,2.485,0,0,1,.478.836,3.287,3.287,0,0,1,.154,1.041A2.936,2.936,0,0,1,83.568,96.2Z"/><path class="cls-3" d="M97.115,71.391H63.022a3.549,3.549,0,0,0-3.549,3.549v34.283a3.549,3.549,0,0,0,3.549,3.549H87.29a3.981,3.981,0,0,1,2.7-6.214l4.9-.709,2.189-4.438a3.964,3.964,0,0,1,3.578-2.225h0V74.94A3.549,3.549,0,0,0,97.115,71.391ZM91.744,98.148A12.693,12.693,0,0,1,85,104.89a12.784,12.784,0,0,1-9.866,0,12.693,12.693,0,0,1-6.742-6.742,12.785,12.785,0,0,1,0-9.866,12.55,12.55,0,0,1,2.714-4.011,13.159,13.159,0,0,1,4.028-2.714,12.585,12.585,0,0,1,9.866,0,13.186,13.186,0,0,1,4.028,2.714,12.618,12.618,0,0,1,2.714,4.011A12.785,12.785,0,0,1,91.744,98.148Z"/><path class="cls-2" d="M142.635,71.391H108.543a3.549,3.549,0,0,0-3.549,3.549v28.088l1.409,2.858,4.926,0.712a3.941,3.941,0,0,1,2.66,6.174h28.647a3.549,3.549,0,0,0,3.549-3.549V74.94A3.549,3.549,0,0,0,142.635,71.391Zm-5.613,11.958L129,92.327a0.484,0.484,0,0,0,.017.137,0.616,0.616,0,0,1,.017.137,0.675,0.675,0,0,0,.017.154,0.246,0.246,0,0,1-.017.154,2.493,2.493,0,0,1-.222,1.178,3.492,3.492,0,0,1-.649.973,2.8,2.8,0,0,1-.973.649,3.1,3.1,0,0,1-1.195.239,2.929,2.929,0,0,1-1.195-.239,3.261,3.261,0,0,1-.973-0.649,2.679,2.679,0,0,1-.649-0.973,3.679,3.679,0,0,1-.256-1.178,3.761,3.761,0,0,1,.256-1.212,2.679,2.679,0,0,1,.649-0.973,3.3,3.3,0,0,1,.973-0.649A2.964,2.964,0,0,1,126,89.835h0.171a1.028,1.028,0,0,1,.188.017c0.055,0.013.12,0.023,0.188,0.034a0.732,0.732,0,0,1,.171.051l9.422-7.545Zm0.256,14.8a13.159,13.159,0,0,1-2.714,4.028,12.6,12.6,0,0,1-8.944,3.7,12.3,12.3,0,0,1-4.95-.99,12.989,12.989,0,0,1-4.028-2.714,12.376,12.376,0,0,1-2.714-4.028,12.585,12.585,0,0,1,0-9.866,12.214,12.214,0,0,1,2.714-4.011,13.449,13.449,0,0,1,4.028-2.714,12.165,12.165,0,0,1,4.95-1.007,12.434,12.434,0,0,1,1.707.119,11.709,11.709,0,0,1,1.656.358,15.609,15.609,0,0,1,1.57.563,11.83,11.83,0,0,1,1.451.734l-2.765,2.253c-0.252-.09-0.478-0.171-0.683-0.239a5.4,5.4,0,0,0-.666-0.171c-0.239-.045-0.474-0.085-0.7-0.12s-0.478-.062-0.751-0.085l0.034,2.9h-1.195l0.034-2.97a7.032,7.032,0,0,0-1.126.085,8.453,8.453,0,0,0-1.024.239c-0.341.1-.672,0.218-0.99,0.341s-0.638.269-.956,0.427l0.41,0.717-0.717.375-0.375-.717a7.415,7.415,0,0,0-.888.666c-0.273.239-.542,0.495-0.8,0.768a7,7,0,0,0-.7.853c-0.2.3-.423,0.6-0.649,0.922l0.649,0.341L117.7,89.6l-0.546-.341a6.792,6.792,0,0,0-.393.956c-0.1.32-.2,0.644-0.29,0.973a4.888,4.888,0,0,0-.171,1.007c-0.023.341-.047,0.683-0.068,1.024,0.021,0,.028.006,0.017,0.017s-0.013.017,0,.017h2.612l0.034,1.195h-2.56a10.17,10.17,0,0,0,1.058,3.192,9.151,9.151,0,0,0,2.031,2.595,9.526,9.526,0,0,0,2.816,1.741,8.935,8.935,0,0,0,3.38.632,9.2,9.2,0,0,0,6.162-2.373,10.115,10.115,0,0,0,2.031-2.595,8.681,8.681,0,0,0,1.024-3.192h-1.946l-0.034-1.195h2.1c-0.013,0-.013,0,0-0.017s0-.017-0.017-0.017a3.868,3.868,0,0,0-.017-0.8l-0.1-.785a3.741,3.741,0,0,0-.188-0.768,4.409,4.409,0,0,1-.2-0.751l2.39-2.731h0.034q0.307,0.65.6,1.349a8.2,8.2,0,0,1,.444,1.434c0.1,0.491.192,0.99,0.273,1.5a8.023,8.023,0,0,1,.085,1.553A11.832,11.832,0,0,1,137.278,98.148Z"/><path class="cls-3" d="M101.695,102.666l2.582,5.236a1.15,1.15,0,0,0,.867.629l5.784,0.837a1.15,1.15,0,0,1,.637,1.963l-4.179,4.059a1.15,1.15,0,0,0-.332,1.018l0.981,5.766a1.15,1.15,0,0,1-1.67,1.21l-5.164-2.725a1.15,1.15,0,0,0-1.073,0l-5.164,2.725a1.15,1.15,0,0,1-1.67-1.21l0.981-5.766a1.15,1.15,0,0,0-.332-1.018l-4.179-4.059a1.15,1.15,0,0,1,.637-1.963l5.784-.837a1.15,1.15,0,0,0,.867-0.629l2.582-5.236A1.15,1.15,0,0,1,101.695,102.666Z"/></svg>