<svg id="Layer_1" data-name="Layer 1" xmlns="http://www.w3.org/2000/svg" viewBox="0 0 160.137 184.91"><defs><style>.cls-1{fill:#fab55f;fill-opacity:0.5;stroke:#fab55f;stroke-miterlimit:10;stroke-width:2px;stroke-dasharray:5 5;opacity:0.5;}.cls-2{fill:#231f20;}.cls-3{fill:#a04924;}.cls-4{fill:#fcb55e;}</style></defs><title>route-feature-5</title><polygon class="cls-1" points="159.137 138.105 80.068 183.755 1 138.105 1 46.805 80.068 1.155 159.137 46.805 159.137 138.105"/><path class="cls-2" d="M95.068,61.967h0.026C95.08,61.934,95.068,61.925,95.068,61.967Z"/><path class="cls-3" d="M119.19,89.332H102.869V70.809H119.19V60.356L137.9,79.979,119.19,99.6V89.332Z"/><path class="cls-4" d="M109.419,96.739a0.709,0.709,0,0,1-.055.6c-0.11.185-.206,0.33-0.275,0.439a0.808,0.808,0,0,1-.439.275,1.751,1.751,0,0,1-.549.11H49.112a1.716,1.716,0,0,1-.549-0.11,0.782,0.782,0,0,1-.439-0.275c-0.075-.11-0.165-0.254-0.275-0.439a0.686,0.686,0,0,1-.055-0.6L47.684,61.7c0.069-.22.124-0.4,0.165-0.549a0.948,0.948,0,0,1,.275-0.439,1.712,1.712,0,0,1,.439-0.33,1.588,1.588,0,0,1,.659-0.11h58.769a1.633,1.633,0,0,1,.659.11,1.982,1.982,0,0,1,.439.33,1.077,1.077,0,0,1,.275.439,5.514,5.514,0,0,0,.165.549l-0.01,5.152h5.738L115.241,57.3a0.886,0.886,0,0,0-.11-0.714,6.429,6.429,0,0,0-.439-0.659,1.586,1.586,0,0,0-.659-0.439,2.249,2.249,0,0,0-.769-0.165H43.949a2.217,2.217,0,0,0-.769.165,1.5,1.5,0,0,0-.659.439,4.77,4.77,0,0,0-.439.659,0.836,0.836,0,0,0-.11.714l-0.11,53.057c0.069,0.3.144,0.57,0.22,0.824a1.253,1.253,0,0,0,.439.659,3.336,3.336,0,0,0,.659.439,1.965,1.965,0,0,0,.879.165H71.411a24.669,24.669,0,0,0-5.437,2.8,25.484,25.484,0,0,0-4.723,4.064A21.778,21.778,0,0,0,57.9,124.2a10.894,10.894,0,0,0-1.208,5.383h43.829a10.97,10.97,0,0,0-1.208-5.383,22.007,22.007,0,0,0-3.35-4.888,25.939,25.939,0,0,0-4.723-4.064,24.975,24.975,0,0,0-5.437-2.8h27.352a1.986,1.986,0,0,0,.879-0.165,3.336,3.336,0,0,0,.659-0.439,1.293,1.293,0,0,0,.439-0.659c0.069-.254.144-0.529,0.22-0.824l-0.031-17.022h-5.9Z"/><path class="cls-3" d="M78.889,64.918l-11.572.04V94.271l22.58,0.04V76.893l-11.008.04V64.918Zm-8.427,8.588,3.911-.04v3.266l-3.911-.04V73.506ZM84.775,89.594l-14.314.04V86.368l14.314,0.04v3.185Zm0-9.637v3.185l-14.314.04V79.917Z"/><polygon class="cls-3" points="82.759 64.958 82.759 73.022 89.896 73.062 82.759 64.958"/></svg>