<svg id="Layer_1" data-name="Layer 1" xmlns="http://www.w3.org/2000/svg" viewBox="0 0 160.137 184.91"><defs><style>.cls-1,.cls-2{opacity:0.5;}.cls-2{fill:#fab55f;}.cls-3,.cls-4,.cls-8{fill:none;}.cls-3,.cls-4{stroke:#fab55f;stroke-miterlimit:10;stroke-width:2px;}.cls-4{stroke-dasharray:5.076 5.076;}.cls-5{fill:#fcb55e;}.cls-6{fill:#df7227;}.cls-7{fill:#a04924;}</style></defs><title>route-feature-1</title><g class="cls-1"><polygon class="cls-2" points="159.137 138.105 80.068 183.755 1 138.105 1 46.805 80.068 1.155 159.137 46.805 159.137 138.105"/><polyline class="cls-3" points="159.137 135.605 159.137 138.105 156.972 139.355"/><line class="cls-4" x1="152.575" y1="141.893" x2="84.432" y2="181.236"/><polyline class="cls-3" points="82.233 182.505 80.068 183.755 77.903 182.505"/><line class="cls-4" x1="73.507" y1="179.967" x2="5.363" y2="140.624"/><polyline class="cls-3" points="3.165 139.355 1 138.105 1 135.605"/><line class="cls-4" x1="1" y1="130.529" x2="1" y2="51.843"/><polyline class="cls-3" points="1 49.305 1 46.805 3.165 45.555"/><line class="cls-4" x1="7.561" y1="43.017" x2="75.705" y2="3.674"/><polyline class="cls-3" points="77.903 2.405 80.068 1.155 82.233 2.405"/><line class="cls-4" x1="86.63" y1="4.943" x2="154.773" y2="44.286"/><polyline class="cls-3" points="156.972 45.555 159.137 46.805 159.137 49.305"/><line class="cls-4" x1="159.137" y1="54.381" x2="159.137" y2="133.067"/></g><rect class="cls-5" x="95.034" y="106.855" width="14.801" height="13.48"/><rect class="cls-5" x="95.034" y="123.881" width="14.801" height="11.492"/><rect class="cls-5" x="113.382" y="106.855" width="12.813" height="13.48"/><rect class="cls-5" x="62.245" y="106.855" width="29.242" height="13.48"/><rect class="cls-5" x="62.245" y="123.881" width="29.242" height="11.492"/><rect class="cls-5" x="113.382" y="123.881" width="12.813" height="11.492"/><rect class="cls-5" x="113.382" y="93.148" width="12.813" height="10.161"/><polygon class="cls-5" points="86 97.821 90.674 97.821 90.674 93.148 62.245 93.148 62.245 102.495 86 102.495 86 97.821"/><rect class="cls-5" x="95.034" y="93.148" width="14.801" height="10.161"/><rect class="cls-6" x="58.698" y="103.309" width="0.001" height="3.546"/><polygon class="cls-7" points="91.487 93.148 90.674 93.148 90.674 97.821 86 97.821 86 102.495 62.245 102.495 62.245 103.309 91.487 103.309 91.487 93.148"/><polygon class="cls-7" points="62.245 103.309 62.245 102.495 62.245 93.148 90.674 93.148 91.487 93.148 95.034 93.148 95.034 89.602 91.487 89.602 58.699 89.602 58.699 103.309 58.699 106.855 62.245 106.855 62.245 103.309"/><polygon class="cls-7" points="91.487 103.309 62.245 103.309 62.245 106.855 91.487 106.855 95.034 106.855 95.034 103.309 95.034 93.148 91.487 93.148 91.487 103.309"/><polygon class="cls-8" points="68.159 75.078 49.672 75.012 49.672 78.869 68.159 78.802 68.159 75.078"/><polygon class="cls-8" points="40.163 69.692 46.614 69.759 46.614 64.372 40.163 64.439 40.163 69.692"/><polygon class="cls-8" points="40.163 90.971 46.614 91.038 46.614 85.651 40.163 85.718 40.163 90.971"/><polygon class="cls-8" points="40.163 80.398 46.614 80.332 46.614 75.078 40.163 75.012 40.163 80.398"/><polygon class="cls-8" points="49.672 85.651 49.672 89.508 55.546 89.487 55.546 86.449 68.159 86.449 68.159 85.718 49.672 85.651"/><polygon class="cls-7" points="60.445 50.341 60.445 63.641 72.215 63.707 60.445 50.341"/><path class="cls-5" d="M49.672,89.508V85.651l18.486,0.066v0.731h4.056V68.9l-16.49.067v-0.8l-6.053.066V64.372l6.053,0.067V50.275l-20.748.066V98.685l20.57,0.037V89.487Zm0-14.5,18.486,0.066V78.8l-18.486.066V75.012ZM46.614,91.038l-6.45-.066V85.718l6.45-.066v5.386Zm0-10.706-6.45.066V75.012l6.45,0.066v5.253Zm0-10.573-6.45-.066V64.439l6.45-.067v5.386Z"/></svg>