<svg id="Layer_1" data-name="Layer 1" xmlns="http://www.w3.org/2000/svg" viewBox="0 0 160.137 184.91"><defs><style>.cls-1{fill:#fab55f;fill-opacity:0.5;stroke:#fab55f;stroke-miterlimit:10;stroke-width:2px;stroke-dasharray:5 5;opacity:0.5;}.cls-2{fill:#a1bed8;}.cls-3{fill:#fcb55e;}.cls-4{fill:#a04924;}</style></defs><title>route-feature-3]</title><polygon class="cls-1" points="159.137 138.105 80.068 183.755 1 138.105 1 46.805 80.068 1.155 159.137 46.805 159.137 138.105"/><polygon class="cls-2" points="6.298 75.484 46.478 125.835 79.139 127.753 60.619 104.545 38.959 77.404 6.298 75.484"/><polygon class="cls-3" points="153.839 109.589 113.658 59.237 77.802 57.156 117.983 107.508 153.839 109.589"/><polygon class="cls-4" points="138.606 89.787 137.288 88.848 138.338 90.164 138.606 89.787"/><polygon class="cls-3" points="6.298 75.484 46.478 125.835 79.139 127.753 60.619 104.545 38.959 77.404 6.298 75.484"/><polygon class="cls-4" points="138.606 89.787 137.288 88.848 138.338 90.164 138.606 89.787"/><polygon class="cls-4" points="138.606 89.787 137.288 88.848 138.338 90.164 138.606 89.787"/><polygon class="cls-4" points="63.852 117.843 54.991 114.674 43.933 114.603 43.933 109.107 38.438 103.263 33.116 103.263 33.116 91.641 25.121 88.367 28.223 84.797 43.439 90.254 46.633 87.019 45.107 85.107 42.8 87.443 27.48 81.949 21.061 89.33 30.686 93.272 30.686 105.693 37.388 105.693 41.503 110.07 41.503 117.033 54.371 117.033 63.232 120.202 73.133 120.227 71.231 117.843 63.852 117.843"/><polygon class="cls-3" points="121.209 98.837 136.015 98.837 131.802 90.063 114.605 90.063 114.605 67.452 110.69 67.452 97.499 65.996 83.078 63.768 107.972 94.963 113.276 96.042 121.209 98.837"/><polygon class="cls-4" points="114.122 108.885 103.992 96.191 104.395 96.695 89.014 93.552 81.115 89.77 77.859 83.548 79.468 75.976 69.302 76.61 69.302 65.797 73.189 61.134 76.026 61.144 73.13 57.514 42.822 76.028 76.19 117.843 88.325 117.843 88.325 104.829 77.176 101.124 63.749 88.922 68.893 83.381 63.09 76.545 56.834 76.687 49.376 84.241 47.85 82.329 55.796 74.281 64.194 74.089 72.142 83.454 67.201 88.775 78.429 98.98 90.755 103.076 90.755 120.273 78.103 120.24 83.815 127.398 114.122 108.885"/><polygon class="cls-4" points="74.325 63.566 71.732 66.677 71.732 74.024 82.509 73.351 80.419 83.197 82.893 87.927 89.929 91.295 102.053 93.76 77.965 63.573 74.325 63.566"/><polygon class="cls-4" points="97.499 65.996 110.69 67.452 114.605 67.452 114.605 90.063 131.802 90.063 136.015 98.837 121.209 98.837 113.276 96.042 107.972 94.963 110.321 97.906 112.549 98.362 120.598 101.198 139.878 101.267 133.33 87.633 117.035 87.633 117.035 65.022 110.824 65.029 97.818 63.587 82.145 61.165 80.998 61.161 83.078 63.768 97.499 65.996"/></svg>