<svg id="Layer_1" data-name="Layer 1" xmlns="http://www.w3.org/2000/svg" viewBox="0 0 160.137 184.91"><defs><style>.cls-1{fill:#fab55f;fill-opacity:0.5;stroke:#fab55f;stroke-miterlimit:10;stroke-width:2px;stroke-dasharray:5 5;opacity:0.5;}.cls-2{fill:#a04924;}.cls-3{fill:#fcb55e;}</style></defs><title>route-feature-4</title><polygon class="cls-1" points="159.137 138.105 80.068 183.755 1 138.105 1 46.805 80.068 1.155 159.137 46.805 159.137 138.105"/><path class="cls-2" d="M83.6,109.3V91.639l-0.883.252a6.738,6.738,0,0,1-.851.189c-0.271.041-.568,0.073-0.883,0.095s-0.618.032-.914,0.032a13,13,0,0,1-2.9-.315,11.72,11.72,0,0,1-2.649-.946,14.526,14.526,0,0,1-2.365-1.482,12.073,12.073,0,0,1-1.986-1.923H69.852v20.874a17.648,17.648,0,0,0,2.806,1.514,22.757,22.757,0,0,0,3.248,1.041,17.152,17.152,0,0,0,4.162.473,16.767,16.767,0,0,0,2.775-.221,22.166,22.166,0,0,0,2.428-.536q1.107-.317,1.986-0.662a10.324,10.324,0,0,0,1.514-.725H83.6Z"/><path class="cls-2" d="M75.213,84.134a6.994,6.994,0,0,0,2.176,1.482,6.89,6.89,0,0,0,5.329,0,6.918,6.918,0,0,0,2.207-1.482,7.049,7.049,0,0,0,1.482-2.176,6.6,6.6,0,0,0,.536-2.68,6.673,6.673,0,0,0-.536-2.649,6.891,6.891,0,0,0-3.689-3.689,6.89,6.89,0,0,0-5.329,0,6.976,6.976,0,0,0-3.658,3.689,6.673,6.673,0,0,0-.536,2.649,6.6,6.6,0,0,0,.536,2.68A7.049,7.049,0,0,0,75.213,84.134Z"/><path class="cls-2" d="M82.591,116.328a18.571,18.571,0,0,1-2.523.158,19.263,19.263,0,0,1-2.554-.158,19.809,19.809,0,0,1-1.955-.347,16.041,16.041,0,0,1-1.671-.5v5.108a9.513,9.513,0,0,0,1.545.725,15.461,15.461,0,0,0,1.955.536,14.365,14.365,0,0,0,5.36,0,14.016,14.016,0,0,0,1.923-.536,13.185,13.185,0,0,0,1.577-.725v-5.108a14.83,14.83,0,0,1-1.7.5C84,116.107,83.348,116.224,82.591,116.328Z"/><polygon class="cls-2" points="95.897 111.251 95.897 104.756 88.14 104.756 88.14 94.161 95.897 94.161 95.897 87.729 111.158 99.521 95.897 111.251"/><path class="cls-3" d="M88.92,75.556a9.422,9.422,0,0,1,.756,3.722,10.1,10.1,0,0,1-.065,1.108l3.576-3.636,7.346,11.105,12.3,9.5,2.807,2.169-2.813,2.162-6.63,5.1,18.267,9.088L122.822,89.4l-7.379,4.92L94.593,62.812l-8.736,8.854a9.546,9.546,0,0,1,1,.824A9.7,9.7,0,0,1,88.92,75.556Z"/><polygon class="cls-3" points="59.922 97.952 50.785 82.022 58.633 77.688 35.792 64.218 35.675 90.689 43.172 86.356 58.048 112.476 67.119 103.254 67.119 90.657 59.922 97.952"/></svg>