<?xml version="1.0" encoding="utf-8"?>
<!-- Generator: Adobe Illustrator 19.1.0, SVG Export Plug-In . SVG Version: 6.00 Build 0)  -->
<svg version="1.1" id="Layer_1" xmlns="http://www.w3.org/2000/svg" xmlns:xlink="http://www.w3.org/1999/xlink" x="0px" y="0px"
	 viewBox="0 0 147.21071 162.00647" style="enable-background:new 0 0 147.21071 162.00647;" xml:space="preserve">
<style type="text/css">
	.st0{fill:#FFF5D8;}
	.st1{fill:#AB8112;}
	.st2{fill:#E6AE18;}
	.st3{fill:#FEDD7F;}
</style>
<g>
	<polygon class="st0" points="147.8428,125.03517 74.23746,162.02457 0.63211,125.03517 0.63211,37.00751 74.23746,0.01811 
		147.8428,37.00751 	"/>
	<g>
		<g>
			<g>
				<g>
					<g>
						<path class="st1" d="M100.93611,99.86252c-2.90976-2.90976-7.27515-2.90976-9.45747-0.72744
							c-2.18233,2.18233-1.45489,6.54771,0.72744,9.45748l16.00519,18.18752c2.90977,2.90976,7.27516,2.90976,10.18491,0
							s2.90977-7.27515,0-10.18491L100.93611,99.86252z"/>
					</g>
					<path class="st2" d="M63.83365,40.93534c-17.17614,0-31.10015,13.92401-31.10015,31.10014s13.92401,31.10015,31.10015,31.10015
						s31.10014-13.92401,31.10014-31.10015C94.93454,54.85935,81.01054,40.93534,63.83365,40.93534z"/>
				</g>
			</g>
		</g>
		<circle class="st3" cx="63.83365" cy="72.03548" r="25.19147"/>
		<g>
			<polygon class="st1" points="73.54434,70.67725 66.80185,59.215 60.7336,68.6545 55.3396,66.63175 51.96835,74.72275 
				55.3396,76.07124 57.36235,71.35149 62.0821,73.37424 66.80185,66.63175 72.87009,77.41975 81.63534,66.63175 78.26409,64.609 
							"/>
			<polygon class="st1" points="49.9456,61.912 46.57435,61.912 46.57435,83.488 79.61259,83.488 79.61259,79.4425 49.9456,79.4425 
							"/>
		</g>
	</g>
</g>
</svg>
