<?xml version="1.0" encoding="utf-8"?>
<!-- Generator: Adobe Illustrator 19.1.0, SVG Export Plug-In . SVG Version: 6.00 Build 0)  -->
<svg version="1.1" id="Layer_1 daily-ops" xmlns="http://www.w3.org/2000/svg" xmlns:xlink="http://www.w3.org/1999/xlink" x="0px" y="0px"
	 viewBox="0 0 147.21071 162.00647" style="enable-background:new 0 0 147.21071 162.00647;" xml:space="preserve">
<style type="text/css">
	.st0{fill:#FEE9CE;}
	.st1{fill:#DE7227;}
	.st2{fill:#FBB55E;}
	.st3{fill:#9F4924;}
</style>
<g>
	<polygon class="st0" points="147.41785,125.21033 73.81249,162.19974 0.20714,125.21033 0.20714,37.18267 73.81249,0.19327 
		147.41785,37.18267 	"/>
	<g>
		<path class="st1" d="M105.41345,52.14597H41.76645c-1.03365,0-1.87215,0.83775-1.87215,1.87214v48.43834
			c0,1.03365,0.83775,1.87215,1.87215,1.87215h24.21917c-7.35873,2.77817-12.54701,9.46239-12.54701,17.27152h40.3027
			c0-7.80914-5.18828-14.49336-12.547-17.27153h24.21916c1.03365,0,1.87215-0.83775,1.87215-1.87215V54.01812
			C107.2856,52.98373,106.44711,52.14597,105.41345,52.14597z"/>
		<path class="st2" d="M102.40006,91.18499c0,0.68935-0.55875,1.2481-1.2481,1.2481H46.02793
			c-0.68935,0-1.2481-0.55875-1.2481-1.2481V58.42505c0-0.68935,0.55875-1.2481,1.2481-1.2481h55.1233
			c0.68935,0,1.24809,0.55875,1.24809,1.2481v32.75994H102.40006z"/>
		<g>
			<rect x="67.57949" y="58.82426" class="st3" width="12.02091" height="4.00697"/>
			<path class="st3" d="M59.23164,88.2087h11.35308V78.19128h6.01045V88.2087h11.35309V64.83471H59.23164L59.23164,88.2087z
				 M79.26649,68.84168h6.01046v6.01045h-6.01046V68.84168z M79.26649,78.19128h6.01046v6.01045h-6.01046V78.19128z
				 M70.58472,68.84168h6.01045v6.01045h-6.01045V68.84168z M61.23512,68.84168h6.01045v6.01045h-6.01045V68.84168z
				 M61.23512,78.19128h6.01045v6.01045h-6.01045V78.19128z"/>
		</g>
		<path class="st3" d="M74.92561,33.44678c8.68177,0,16.02788,6.01046,18.6992,13.35657h7.34611
			c-0.66782-1.33566-0.66782-3.33914-1.33566-4.6748l4.00697-3.41335l-2.59711-4.52639l-5.41683,1.92928
			c-1.33566-1.33566-2.67131-2.67131-4.00697-4.00697l2.59711-4.00697l-3.85857-3.26494l-4.08117,3.93277
			c-2.00349-1.33566-4.00697-2.00348-5.34263-2.00348l-0.0742-5.34263l-5.93626-0.66783l-1.33566,5.34262
			c-2.00349,0-4.00697,0-6.01046,0.66783l-2.81972-4.6748l-4.45219,2.67131l1.26146,4.6748
			c-2.00349,1.33566-3.33914,2.00348-4.6748,3.33914l-4.00697-2.59711l-3.26494,4.6006l3.26494,4.00697
			c-1.33566,1.33566-2.00349,2.67131-2.67131,4.6748l-5.34262,0.14841l-1.33566,3.19073h12.68874
			C58.89772,38.78941,66.24384,33.44678,74.92561,33.44678z"/>
	</g>
</g>
</svg>
