<?xml version="1.0" encoding="utf-8"?>
<!-- Generator: Adobe Illustrator 19.1.0, SVG Export Plug-In . SVG Version: 6.00 Build 0)  -->
<svg version="1.1" id="Layer_1" xmlns="http://www.w3.org/2000/svg" xmlns:xlink="http://www.w3.org/1999/xlink" x="0px" y="0px"
	 viewBox="-232 222.31067 326.59473 168.68933" style="enable-background:new -232 222.31067 326.59473 168.68933;"
	 xml:space="preserve">
<style type="text/css">
	.st0{fill:#E6AE22;}
	.st1{fill:#F7F8F8;}
	.st2{fill:#FFFFFF;}
</style>
<path class="st0" d="M22.16016,269.11444c0.7345-0.56281,1.18719-1.35156,1.18719-2.25378v-5.84998h3.60004
	c1.34998,0,2.25-0.90002,2.25-1.80005l-1.35004-15.29999c0-2.25-4.5-3.59999-4.5-3.59999l-7.64996-16.65001
	c-0.90002-1.34998-0.90002-1.34998-2.25-1.34998h-24.30005c-1.34998,0-1.34998,0-2.25,1.34998l-7.64996,17.10004
	c0,0-4.95001,0.89996-4.95001,3.59999l-0.90002,14.84996c0,0.90002,0.90002,1.80005,2.25,1.80005h4.05005v5.85001
	c0,0.90222,0.45276,1.69098,1.18726,2.25375h-28.72449c0.7345-0.56281,1.18719-1.35153,1.18719-2.25375v-5.85001h3.60004
	c1.34998,0,2.25-0.89999,2.25-1.80005l-1.35004-15.29997c0-2.25-4.5-3.59998-4.5-3.59998l-7.64996-16.65002
	c-0.90002-1.34999-0.90002-1.34999-2.25-1.34999h-24.30005c-1.34998,0-1.34998,0-2.25,1.34998l-7.64996,17.10004
	c0,0-4.95001,0.89996-4.95001,3.59999l-0.90002,14.84996c0,0.90002,0.90002,1.80005,2.25,1.80005h4.05005v5.85001
	c0,0.90222,0.45276,1.69098,1.18726,2.25375h-28.72449c0.7345-0.56281,1.18719-1.35153,1.18719-2.25375v-5.85001h3.60004
	c1.34998,0,2.25-0.89999,2.25-1.80005l-1.35004-15.29997c0-2.25-4.5-3.59998-4.5-3.59998l-7.64996-16.65002
	c-0.90002-1.34999-0.90002-1.34999-2.24999-1.34999h-24.30005c-1.34998,0-1.34998,0-2.25,1.34998l-7.64996,17.10004
	c0,0-4.95001,0.89996-4.95001,3.59999l-0.90002,14.84996c0,0.90002,0.90002,1.80005,2.25,1.80005h4.05005v5.85001
	c0,0.90222,0.45276,1.69098,1.18727,2.25375H-232v66.23523L-68.70264,391l163.29736-55.65033v-66.23523H22.16016z
	 M25.59735,249.31067c-0.45001,3.14996-2.25,4.95001-4.95001,4.95001c-2.69995,0-4.94995-2.25-4.94995-4.95001
	s2.25-4.95001,4.94995-4.95001C23.34735,244.36066,25.59735,246.61066,25.59735,249.31067z M-10.85266,226.81067
	c0-0.90002,0.90002-1.35004,2.25-1.35004h19.80005c0.89996,0,1.79999,0.45001,2.25,1.35004l4.94995,12.14996
	c0,0.90002-0.44995,1.35004-1.79999,1.35004h-30.14996c-0.90002,0-1.80005-0.90002-1.80005-1.35004L-10.85266,226.81067z
	 M-23.00262,249.31067c0-2.70001,2.25-4.95001,4.95001-4.95001c2.69995,0,4.94995,2.25,4.94995,4.95001
	c0,3.14996-2.25,4.95001-4.94995,4.95001C-20.75262,254.26068-23.00262,252.01068-23.00262,249.31067z M-12.20264,266.86066
	v-5.84998h27.45001v5.84998c0,0.90222,0.45276,1.69098,1.18726,2.25378h-29.82446
	C-12.65533,268.55164-12.20264,267.76288-12.20264,266.86066z M-44.40265,249.31067c-0.45001,3.14996-2.25,4.95001-4.95001,4.95001
	c-2.69995,0-4.94995-2.25-4.94995-4.95001s2.25-4.95001,4.94995-4.95001C-46.65265,244.36066-44.40265,246.61066-44.40265,249.31067
	z M-80.85266,226.81067c0-0.90002,0.90002-1.35004,2.25-1.35004h19.80005c0.89996,0,1.79999,0.45001,2.25,1.35004l4.94995,12.14996
	c0,0.90002-0.44995,1.35004-1.79999,1.35004h-30.14996c-0.90002,0-1.80005-0.90002-1.80005-1.35004L-80.85266,226.81067z
	 M-93.00262,249.31067c0-2.70001,2.25-4.95001,4.95001-4.95001c2.69995,0,4.94995,2.25,4.94995,4.95001
	c0,3.14996-2.25,4.95001-4.94995,4.95001C-90.75262,254.26068-93.00262,252.01068-93.00262,249.31067z M-114.40265,249.31067
	c-0.45001,3.14996-2.25,4.95001-4.95001,4.95001c-2.69995,0-4.94995-2.25-4.94995-4.95001s2.25-4.95001,4.94995-4.95001
	C-116.65265,244.36066-114.40265,246.61066-114.40265,249.31067z M-150.85266,226.81067c0-0.90002,0.90002-1.35004,2.25-1.35004
	h19.80005c0.89996,0,1.79999,0.45001,2.25,1.35004l4.94995,12.14996c0,0.90002-0.44995,1.35004-1.79999,1.35004h-30.14996
	c-0.90002,0-1.80005-0.90002-1.80005-1.35004L-150.85266,226.81067z M-163.00262,249.31067c0-2.70001,2.25-4.95001,4.95001-4.95001
	c2.69995,0,4.94995,2.25,4.94995,4.95001c0,3.14996-2.25,4.95001-4.94995,4.95001
	C-160.75262,254.26068-163.00262,252.01068-163.00262,249.31067z M-152.20264,266.86066v-5.84998h27.45001v5.84998
	c0,0.90222,0.45276,1.69098,1.18726,2.25378h-29.82447C-152.65533,268.55164-152.20264,267.76288-152.20264,266.86066z
	 M-83.38983,269.11444c0.7345-0.56281,1.18719-1.35156,1.18719-2.25378v-5.84998h27.45001v5.84998
	c0,0.90222,0.45276,1.69098,1.18726,2.25378H-83.38983z"/>
<g>
	<path class="st1" d="M-88.90808,325.98657h-11.96973c-0.56982,0-1.13965-0.50977-1.13965-1.2002
		c0-0.35938,0.1499-0.68945,0.44971-0.92969c7.02002-5.42969,10.91992-8.93945,10.91992-12.2998
		c0-2.5498-2.1001-3.65918-4.16992-3.65918c-1.97998,0-3.62988,0.68945-4.83008,1.85938
		c-0.20996,0.20996-0.47998,0.2998-0.71973,0.2998c-0.57031,0-1.14014-0.47949-1.14014-1.10938
		c0-0.27051,0.08984-0.57031,0.30029-0.78027c1.6499-1.64941,3.92969-2.49023,6.38965-2.49023
		c3.32959,0,6.71973,1.89062,6.71973,5.87988c0,4.08008-4.14014,7.7998-9.71973,12.20996h8.90967
		c0.6001,0,1.08008,0.47949,1.08008,1.08008C-87.828,325.5061-88.30798,325.98657-88.90808,325.98657z"/>
	<path class="st1" d="M-76.54773,326.34692c-5.48975,0-7.6499-5.49023-7.6499-10.34961c0-4.88965,2.16016-10.32031,7.6499-10.32031
		c5.45947,0,7.64941,5.43066,7.64941,10.32031C-68.89832,320.85669-71.08826,326.34692-76.54773,326.34692z M-76.54773,307.89771
		c-3.81006,0-5.1001,4.10938-5.1001,8.09961c0,3.98926,1.29004,8.12891,5.1001,8.12891c3.80957,0,5.09961-4.13965,5.09961-8.12891
		C-71.44812,312.00708-72.73816,307.89771-76.54773,307.89771z"/>
	<path class="st1" d="M-58.18835,326.34692c-5.48926,0-7.64941-5.49023-7.64941-10.34961
		c0-4.88965,2.16016-10.32031,7.64941-10.32031c5.45996,0,7.64941,5.43066,7.64941,10.32031
		C-50.53894,320.85669-52.72839,326.34692-58.18835,326.34692z M-58.18835,307.89771c-3.80957,0-5.09961,4.10938-5.09961,8.09961
		c0,3.98926,1.29004,8.12891,5.09961,8.12891s5.09961-4.13965,5.09961-8.12891
		C-53.08875,312.00708-54.37878,307.89771-58.18835,307.89771z"/>
	<path class="st1" d="M-35.47839,316.65649h-5.18945v5.73047c0,0.47949-0.36035,0.83984-0.87012,0.83984
		c-0.48047,0-0.83984-0.36035-0.83984-0.83984v-5.73047h-5.19043c-0.41992,0-0.75-0.3291-0.75-0.80957
		c0-0.41992,0.33008-0.75,0.75-0.75h5.19043v-5.58008c0-0.44922,0.35938-0.80957,0.89941-0.80957
		c0.4502,0,0.81055,0.36035,0.81055,0.80957v5.58008h5.18945c0.41992,0,0.75,0.33008,0.75,0.75
		C-34.72839,316.32739-35.05847,316.65649-35.47839,316.65649z"/>
	<path class="st1" d="M-92.55359,340.76978l-3.56934,8.60742c-0.18896,0.44141-0.62988,0.73535-1.15479,0.73535h-0.021
		c-0.48291,0-0.90283-0.29395-1.0918-0.73535l-3.56934-8.60742c-0.04199-0.08398-0.06299-0.18945-0.06299-0.27344
		c0-0.39844,0.33594-0.77734,0.79785-0.77734c0.31494,0,0.60889,0.16797,0.73486,0.4834l3.2334,7.95801l3.2124-7.95801
		c0.12598-0.29395,0.41992-0.4834,0.73486-0.4834c0.46191,0,0.81885,0.35742,0.81885,0.77734
		C-92.4906,340.58032-92.5116,340.68579-92.55359,340.76978z"/>
	<path class="st1" d="M-82.13757,345.42993h-7.32764c0.12598,1.91113,1.46973,3.50684,3.65332,3.50684
		c0.96582,0,1.93164-0.31543,2.72949-0.94434c0.10498-0.06348,0.23096-0.10547,0.35693-0.10547
		c0.27295,0,0.62988,0.25195,0.62988,0.65039c0,1.0918-2.62451,1.70117-3.86328,1.70117c-3.00244,0-5.16504-2.16211-5.16504-5.33301
		c0-2.93945,2.09961-5.31152,4.99707-5.31152c2.51953,0,4.17822,1.5957,4.70312,3.92578
		c0.06299,0.31445,0.14697,0.69336,0.14697,1.0498C-81.27673,345.03149-81.65466,345.42993-82.13757,345.42993z
		 M-86.14783,340.89478c-2.1626,0-3.2334,1.82715-3.31738,3.38086h6.65576
		C-82.83044,342.76392-83.83826,340.89478-86.14783,340.89478z"/>
	<path class="st1" d="M-71.07068,350.11255c-0.41992,0-0.77686-0.35645-0.77686-0.77637v-6.02637
		c0-1.78418-0.92383-2.30957-2.28857-2.30957c-1.21777,0-2.39355,0.75586-3.00244,1.57422v6.76172
		c0,0.41992-0.35693,0.77637-0.79785,0.77637c-0.41992,0-0.77686-0.35645-0.77686-0.77637v-12.72461
		c0-0.39844,0.35693-0.75586,0.81885-0.75586c0.39893,0,0.75586,0.35742,0.75586,0.75586v4.70312
		c0.71387-0.83984,2.09961-1.7207,3.63232-1.7207c2.12061,0,3.2334,1.02832,3.2334,3.23242v6.50977
		C-70.27283,349.7561-70.62976,350.11255-71.07068,350.11255z"/>
	<path class="st1" d="M-65.27429,337.34692c0,0.58789-0.48242,1.0498-1.07031,1.0498c-0.56738,0-1.0498-0.46191-1.0498-1.0498
		s0.48242-1.07129,1.0498-1.07129C-65.75671,336.27563-65.27429,336.75903-65.27429,337.34692z M-66.3446,350.11255
		c-0.41992,0-0.77734-0.35645-0.77734-0.77637v-8.86133c0-0.39844,0.35742-0.75586,0.81934-0.75586
		c0.39844,0,0.75586,0.35742,0.75586,0.75586v8.86133C-65.54675,349.7561-65.90417,350.11255-66.3446,350.11255z"/>
	<path class="st1" d="M-54.58679,348.91626c-0.77637,0.79688-1.80566,1.32227-3.33789,1.32227
		c-3.02344,0-5.06055-2.30957-5.06055-5.33301c0-3.00293,2.03711-5.31152,5.06055-5.31152
		c1.53223,0,2.56152,0.52441,3.33789,1.32227c0.10547,0.12598,0.16797,0.27344,0.16797,0.44141
		c0,0.35648-0.31445,0.71289-0.71387,0.71289c-0.20996,0-0.39844-0.08395-0.5459-0.23047
		c-0.6084-0.58789-1.32227-0.83984-2.16211-0.83984c-2.16309,0-3.50684,1.6582-3.50684,3.90527s1.34375,3.92676,3.50684,3.92676
		c0.83984,0,1.55371-0.27344,2.16211-0.86133c0.14746-0.12598,0.33594-0.18945,0.52539-0.18945
		c0.37793,0,0.73438,0.29492,0.73438,0.69336C-54.41882,348.62134-54.46082,348.78931-54.58679,348.91626z"/>
	<path class="st1" d="M-51.22546,350.11255c-0.41992,0-0.77637-0.35645-0.77637-0.77637v-12.72461
		c0-0.39844,0.35645-0.75586,0.81836-0.75586c0.39941,0,0.75586,0.35742,0.75586,0.75586v12.72461
		C-50.42761,349.7561-50.78406,350.11255-51.22546,350.11255z"/>
	<path class="st1" d="M-38.87878,345.42993h-7.32812c0.12598,1.91113,1.46973,3.50684,3.65332,3.50684
		c0.96582,0,1.93164-0.31543,2.72949-0.94434c0.10547-0.06348,0.23145-0.10547,0.35742-0.10547
		c0.27246,0,0.62988,0.25195,0.62988,0.65039c0,1.0918-2.625,1.70117-3.86328,1.70117c-3.00293,0-5.16504-2.16211-5.16504-5.33301
		c0-2.93945,2.09961-5.31152,4.99707-5.31152c2.51953,0,4.17773,1.5957,4.70312,3.92578
		c0.0625,0.31445,0.14648,0.69336,0.14648,1.0498C-38.01843,345.03149-38.39636,345.42993-38.87878,345.42993z M-42.88953,340.89478
		c-2.16211,0-3.2334,1.82715-3.31738,3.38086h6.65625C-39.57214,342.76392-40.57996,340.89478-42.88953,340.89478z"/>
	<path class="st1" d="M-32.24207,350.23853c-1.42773,0-2.72949-0.37793-3.7793-1.30176
		c-0.14746-0.12598-0.23145-0.29395-0.23145-0.4834c0-0.37695,0.31543-0.67188,0.71387-0.67188
		c0.16797,0,0.31543,0.04297,0.46191,0.14746c0.73535,0.58789,1.78516,1.02832,2.89746,1.02832
		c1.55371,0,2.39355-0.73438,2.39355-1.74219c0-2.45703-6.27734-0.94531-6.27734-4.70312c0-1.57422,1.36426-2.91797,3.7793-2.91797
		c1.46973,0,2.56152,0.44043,3.44336,1.19629c0.14648,0.12598,0.20996,0.29395,0.20996,0.46191
		c0,0.35742-0.29395,0.62988-0.62988,0.62988c-0.14746,0-0.29395-0.04199-0.41992-0.14746
		c-0.65137-0.50391-1.5752-0.86035-2.60352-0.86035c-1.38574,0-2.24707,0.69238-2.24707,1.5957
		c0,2.22559,6.27832,0.75586,6.27832,4.70312C-28.25281,348.87329-29.61804,350.23853-32.24207,350.23853z"/>
</g>
<polygon class="st2" points="94.59473,331.55981 -68.70264,391 -232,331.55981 -232,391 94.59473,391 "/>
</svg>
