<?xml version="1.0" encoding="utf-8"?>
<!-- Generator: Adobe Illustrator 19.1.0, SVG Export Plug-In . SVG Version: 6.00 Build 0)  -->
<svg version="1.1" id="Layer_1" xmlns="http://www.w3.org/2000/svg" xmlns:xlink="http://www.w3.org/1999/xlink" x="0px" y="0px"
	 viewBox="0 0 60 60" style="enable-background:new 0 0 60 60;" xml:space="preserve">
<style type="text/css">
	.st0{fill:#FFFFFF;}
</style>
<g>
	<path class="st0" d="M37.63652,10.30488c1.81476,2.73313-1.4149,5.47944-1.4149,5.9584l0.53608,0.41304l-4.3941,5.49263
		l3.95469,3.95469l4.3941-6.59115l0.58881,0.43941c0.34274,0,2.46949-3.98106,6.88116-1.75764
		c3.55483,1.27868,2.63646,4.3941,2.63646,4.3941s2.19705,1.31823,2.63646,2.19705c0.87882,0.43941,5.71233-5.71233,4.83352-6.15174
		l-2.63647-2.19705c0,0-4.3941,0-4.83351-1.75764c-1.75764-3.95469-1.31823-4.3941-9.22762-8.34879
		c0,0-7.03056-1.75764-13.1823,0.87882c-2.19705,0.43941-1.31823,3.07587,0.43941,2.63646
		C35.87888,7.66842,37.63652,10.30488,37.63652,10.30488z"/>
	<path class="st0" d="M11.27192,48.09415c-4.03378,5.04004,2.55737,10.31295,6.59115,5.27292l7.46997-11.42466l-4.83351-5.27292
		L11.27192,48.09415z"/>
	<path class="st0" d="M49.5006,46.77592L23.5754,21.72954c1.31823-1.31823,1.75764-1.75764,1.31823-3.51528L22.31869,7.92328
		c-0.03515-0.15819-0.15819-0.28122-0.31198-0.32077c0,0-10.84464-3.00996-11.61361-3.00996S9.51428,5.47137,9.51428,5.47137
		L19.62071,15.5778c0.43941,0.43941,0.43941,1.31823,0,1.75764l-5.71233,5.27292c-0.43941,0.43941-0.65912,0.65911-1.31823,0
		c-2.9045-2.9045-10.10643-10.54584-10.10643-10.54584S1.6049,12.05813,1.6049,13.38075s4.0997,12.2903,4.0997,12.2903
		c0.10985,0.10546,0.19773,0.18895,0.31198,0.29001l8.65198,2.10038c1.6434,0.20652,2.25857-0.04834,4.07333-1.49839
		l25.04638,25.9252C48.0857,56.78568,53.79803,51.07335,49.5006,46.77592z M46.96081,52.6772c-3.67347,0-3.67347-5.42671,0-5.42671
		C50.63428,47.25048,50.63428,52.6772,46.96081,52.6772z"/>
</g>
</svg>
