<?xml version="1.0" encoding="utf-8"?>
<!-- Generator: Adobe Illustrator 19.1.0, SVG Export Plug-In . SVG Version: 6.00 Build 0)  -->
<svg version="1.1" id="Layer_1" xmlns="http://www.w3.org/2000/svg" xmlns:xlink="http://www.w3.org/1999/xlink" x="0px" y="0px"
	 viewBox="0 0 60 60" style="enable-background:new 0 0 60 60;" xml:space="preserve">
<style type="text/css">
	.st0{fill:#FFFFFF;}
</style>
<g>
	<path d="M324.06537,8.40467h-34.57635c-1.72882,0-3.11188,1.38305-3.11188,3.11187V46.0929
		c0,1.72882,1.38306,3.11187,3.11188,3.11187h34.57635c1.72882,0,3.11188-1.38305,3.11188-3.11187V11.51654
		C327.17725,9.78772,325.79419,8.40467,324.06537,8.40467z M299.17041,41.59797h-5.53223V24.30979h5.53223V41.59797z
		 M296.4043,21.88945c-1.72882,0-3.11188-1.38305-3.11188-2.76611c0-1.72882,1.38306-2.76611,3.11188-2.76611
		s3.11188,1.38305,3.11188,2.76611S298.13312,21.88945,296.4043,21.88945z M320.26196,41.59797h-5.5322c0,0,0-3.8034,0-9.33562
		s-6.22375-4.14916-6.22375-0.69153v10.02714h-5.87799V24.3098h5.53223v2.76611c2.07458-4.84069,12.10172-4.84069,12.10172,4.49493
		S320.26196,41.59797,320.26196,41.59797z"/>
</g>
<g>
	<path class="st0" d="M36.69056,17.08303c0-1.10717,0.73811-1.84528,1.47622-1.84528h5.16679V7.85663h-9.59546
		c-3.32151,0-6.27396,2.58339-6.27396,6.27396l0,0v8.48829h-4.79773V30h4.79773v22.14338h9.22641V30h5.9049l0.73811-7.75018
		h-6.64301V17.08303z"/>
</g>
</svg>
