<?xml version="1.0" encoding="utf-8"?>
<!-- Generator: Adobe Illustrator 19.1.0, SVG Export Plug-In . SVG Version: 6.00 Build 0)  -->
<svg version="1.1" id="Layer_1" xmlns="http://www.w3.org/2000/svg" xmlns:xlink="http://www.w3.org/1999/xlink" x="0px" y="0px"
	 viewBox="0 0 60 60" style="enable-background:new 0 0 60 60;" xml:space="preserve">
<style type="text/css">
	.st0{fill:#FFFFFF;}
</style>
<g>
	<g>
		<path d="M116.95657,28.33783c0-2.09952,4.54896-3.4992,5.59872-7.34832c1.39967-4.54896-0.34992-6.64848-3.14928-10.4976
			c3.14928,0.69984,4.19904,0,5.94864-1.7496c-12.59711-0.34992-25.89407,0-23.79456,13.29696
			c1.04976,3.84912,6.29856,6.29856,10.84752,5.94864c-1.7496,2.09952,1.04976,5.2488,0.34992,5.94864
			c-6.99841,0.34992-12.94704,2.09952-13.9968,6.64848c-3.4992,13.9968,30.09312,13.64688,25.54417-2.44944
			C123.60506,33.93655,116.60666,32.53687,116.95657,28.33783z M106.8089,12.94135c4.54896-6.9984,15.39648,3.14928,10.4976,12.2472
			C111.35786,31.13719,102.60986,19.23991,106.8089,12.94135z M114.50713,48.63319
			c-4.54896,0.34992-10.84752-1.39968-11.19744-5.94864c-0.69984-5.94864,3.84912-7.34832,9.44785-7.34832
			C121.50553,35.33624,125.00474,47.58344,114.50713,48.63319z"/>
		<polygon points="139.00154,15.74071 134.10266,15.74071 134.10266,24.83863 125.35465,24.83863 125.35465,29.73751 
			134.10266,29.73751 134.10266,38.83543 139.00154,38.83543 139.00154,29.73751 148.09946,29.73751 148.09946,24.83863 
			139.00154,24.83863 		"/>
	</g>
</g>
<g>
	<path d="M324.06537,8.40467h-34.57635c-1.72882,0-3.11188,1.38305-3.11188,3.11187V46.0929
		c0,1.72882,1.38306,3.11187,3.11188,3.11187h34.57635c1.72882,0,3.11188-1.38305,3.11188-3.11187V11.51654
		C327.17725,9.78772,325.79419,8.40467,324.06537,8.40467z M299.17041,41.59797h-5.53223V24.30979h5.53223V41.59797z
		 M296.4043,21.88945c-1.72882,0-3.11188-1.38305-3.11188-2.76611c0-1.72882,1.38306-2.76611,3.11188-2.76611
		s3.11188,1.38305,3.11188,2.76611S298.13312,21.88945,296.4043,21.88945z M320.26196,41.59797h-5.5322c0,0,0-3.8034,0-9.33562
		s-6.22375-4.14916-6.22375-0.69153v10.02714h-5.87799V24.3098h5.53223v2.76611c2.07458-4.84069,12.10172-4.84069,12.10172,4.49493
		S320.26196,41.59797,320.26196,41.59797z"/>
</g>
<g>
	<path class="st0" d="M46.66515,17.91323c1.77289-0.35458,3.1912-0.70916,4.96409-1.41831
		c-1.06373,1.77289-2.83662,3.1912-4.25493,4.60951c1.41831,20.56551-21.98382,33.33031-39.00356,22.69298
		c4.96409,0,10.28276-1.06373,13.11938-3.90036c-4.25493-0.70916-7.09156-2.48204-8.15529-6.02782
		c1.41831,0,2.83662,0,3.90036-0.35458c-3.90036-1.41831-6.73698-3.90036-7.09156-8.86445
		c1.06373,0.70915,2.12747,1.06373,3.90036,1.06373c-3.1912-1.41831-6.02782-7.44613-3.54578-11.70107
		c4.60951,4.60952,9.92818,8.86445,18.79263,9.21903c-2.12747-9.5736,9.92818-14.18311,15.60142-8.15529
		c2.12747-0.35458,3.54578-1.41831,5.67325-2.12747C49.50178,15.0766,48.08347,16.49492,46.66515,17.91323z"/>
</g>
<g>
	<path d="M218.73018,15.88775c0-1.10717,0.73811-1.84528,1.47623-1.84528h5.16679V6.66135h-9.59547
		c-3.3215,0-6.27396,2.58339-6.27396,6.27396l0,0v8.48829h-4.79773v7.38112h4.79773V50.9481h9.22641V28.80472h5.90491
		l0.73811-7.75018h-6.64302V15.88775z"/>
</g>
</svg>
