<?xml version="1.0" encoding="utf-8"?>
<!-- Generator: Adobe Illustrator 19.1.0, SVG Export Plug-In . SVG Version: 6.00 Build 0)  -->
<svg version="1.1" id="Layer_1" xmlns="http://www.w3.org/2000/svg" xmlns:xlink="http://www.w3.org/1999/xlink" x="0px" y="0px"
	 viewBox="0 0 60 60" style="enable-background:new 0 0 60 60;" xml:space="preserve">
<style type="text/css">
	.st0{fill:#424143;}
</style>
<g>
	<g>
		<path class="st0" d="M42.4383,37.64c-1.49073-1.49073-3.72683-1.49073-4.84488-0.37268
			c-1.11805,1.11805-0.74537,3.35415,0.37268,4.84488l8.19902,9.31707c1.49073,1.49073,3.72683,1.49073,5.21756,0
			c1.49073-1.49073,1.49073-3.72683,0-5.21756L42.4383,37.64z"/>
	</g>
	<path class="st0" d="M23.43146,7.45268c-8.79905,0-15.9322,7.13315-15.9322,15.9322s7.13315,15.9322,15.9322,15.9322
		s15.9322-7.13315,15.9322-15.9322C39.36366,14.58583,32.23051,7.45268,23.43146,7.45268z M23.43146,36.29006
		c-7.12736,0-12.90519-5.77783-12.90519-12.90519s5.77783-12.90518,12.90519-12.90518s12.90518,5.77783,12.90518,12.90518
		S30.55882,36.29006,23.43146,36.29006z"/>
</g>
</svg>
