<?xml version="1.0" encoding="utf-8"?>
<!-- Generator: Adobe Illustrator 19.1.0, SVG Export Plug-In . SVG Version: 6.00 Build 0)  -->
<svg version="1.1" id="Layer_1" xmlns="http://www.w3.org/2000/svg" xmlns:xlink="http://www.w3.org/1999/xlink" x="0px" y="0px"
	 viewBox="0 0 60 60" style="enable-background:new 0 0 60 60;" xml:space="preserve">
<style type="text/css">
	.st0{fill:#FFFFFF;}
</style>
<g>
	<g>
		<path class="st0" d="M29.51087,12.46451c-7.56,0-14.04,6.48-14.04,13.68c0,8.28,9.36,10.44,9.36,17.64h9.36
			c0-6.12,9.36-9.36,9.36-17.64C43.55087,19.30451,37.43087,12.46451,29.51087,12.46451z M31.31087,39.46451
			c0,0.72-0.72,1.44-1.44,1.44s-1.44-0.72-1.44-1.44c0,0-2.52-7.56-2.52-9c0-1.44,0.36-4.32,3.96-4.32s3.6,2.88,3.6,4.32
			C33.47087,31.90451,31.31087,39.46451,31.31087,39.46451z"/>
		<rect x="23.39087" y="47.02451" class="st0" width="12.6" height="3.96"/>
		<polygon class="st0" points="26.27087,56.38451 33.11087,56.38451 33.83086,54.22451 25.19087,54.22451 		"/>
	</g>
	<g>
		<path class="st0" d="M53.07087,30.18451h-3.8c-0.76,0-1.4-0.64-1.4-1.4s0.64-1.4,1.4-1.4h3.8c0.76,0,1.4,0.64,1.4,1.4
			S53.83087,30.18451,53.07087,30.18451z"/>
		<path class="st0" d="M46.63087,20.38451c-0.48,0-0.96-0.24-1.2-0.68c-0.4-0.68-0.16-1.52,0.48-1.92l3.28-1.92
			c0.68-0.4,1.52-0.16,1.92,0.52c0.4,0.68,0.16,1.52-0.48,1.92l-3.28,1.92C47.11087,20.34451,46.87087,20.38451,46.63087,20.38451z"
			/>
		<path class="st0" d="M39.67087,13.42451c-0.24,0-0.48-0.08-0.72-0.2c-0.68-0.4-0.88-1.24-0.52-1.92l1.92-3.28
			c0.4-0.68,1.24-0.88,1.92-0.52c0.68,0.4,0.88,1.24,0.52,1.92l-1.92,3.28C40.63087,13.18451,40.15087,13.42451,39.67087,13.42451z"
			/>
		<path class="st0" d="M29.87087,10.78451c-0.76,0-1.4-0.64-1.4-1.4v-3.8c0-0.76,0.64-1.4,1.4-1.4c0.76,0,1.4,0.64,1.4,1.4v3.8
			C31.27087,10.14451,30.63087,10.78451,29.87087,10.78451z"/>
		<path class="st0" d="M20.07087,13.42451c-0.48,0-0.96-0.24-1.2-0.68l-1.92-3.28c-0.4-0.68-0.16-1.52,0.52-1.92
			c0.68-0.4,1.52-0.16,1.92,0.52l1.92,3.28c0.4,0.68,0.16,1.52-0.52,1.92C20.55087,13.38451,20.31087,13.42451,20.07087,13.42451z"
			/>
		<path class="st0" d="M13.11087,20.38451c-0.24,0-0.48-0.08-0.72-0.2l-3.28-1.92c-0.68-0.4-0.88-1.24-0.52-1.92
			c0.4-0.68,1.24-0.88,1.92-0.52l3.28,1.92c0.68,0.4,0.88,1.24,0.52,1.92C14.07087,20.14451,13.59087,20.38451,13.11087,20.38451z"
			/>
		<path class="st0" d="M10.47087,30.18451h-3.8c-0.76,0-1.4-0.64-1.4-1.4s0.64-1.4,1.4-1.4h3.8c0.76,0,1.4,0.64,1.4,1.4
			S11.23087,30.18451,10.47087,30.18451z"/>
	</g>
</g>
</svg>
