<?xml version="1.0" encoding="utf-8"?>
<!-- Generator: Adobe Illustrator 19.1.0, SVG Export Plug-In . SVG Version: 6.00 Build 0)  -->
<svg version="1.1" id="Layer_1" xmlns="http://www.w3.org/2000/svg" xmlns:xlink="http://www.w3.org/1999/xlink" x="0px" y="0px"
	 viewBox="0 0 60 60" style="enable-background:new 0 0 60 60;" xml:space="preserve">
<style type="text/css">
	.st0{fill:#FFFFFF;}
</style>
<path class="st0" d="M52.41296,7.90338H9.21288c-1.65674,0-3,1.34314-3,3v29.74475c0,1.65686,1.34326,3,3,3h6.00024v8l8-8h29.19983
	c1.65686,0,3-1.34314,3-3V10.90338C55.41296,9.24652,54.06982,7.90338,52.41296,7.90338z M18.21288,30.57574
	c-2.79993,0-4.79993-2-4.79993-4.79999s2-4.79999,4.79993-4.79999c2.40015-0.00006,4.80005,1.99994,4.80005,4.79999
	C23.01293,28.57574,20.61303,30.57574,18.21288,30.57574z M30.81298,30.57574c-2.80005,0-4.80005-2-4.80005-4.79999
	s2-4.79999,4.80005-4.79999c2.3999-0.00006,4.80005,1.99994,4.80005,4.79999C35.61303,28.57574,33.21288,30.57574,30.81298,30.57574
	z M43.41296,30.57574c-2.79993,0-4.80005-2-4.80005-4.79999s2.00012-4.79999,4.80005-4.79999
	c2.40002-0.00006,4.79993,1.99994,4.79993,4.79999C48.21288,28.57574,45.81298,30.57574,43.41296,30.57574z"/>
</svg>
