<?xml version="1.0" encoding="utf-8"?>
<!-- Generator: Adobe Illustrator 19.1.0, SVG Export Plug-In . SVG Version: 6.00 Build 0)  -->
<svg version="1.1" id="Layer_1" xmlns="http://www.w3.org/2000/svg" xmlns:xlink="http://www.w3.org/1999/xlink" x="0px" y="0px"
	 viewBox="0 0 60 60" style="enable-background:new 0 0 60 60;" xml:space="preserve">
<style type="text/css">
	.st0{fill:#FFFFFF;}
</style>
<g>
	<path class="st0" d="M30.01409,7.45728h0.00352c-0.01057,0-0.02466,0-0.03523,0h0.00352
		c-7.5317-2.54345-14.94011-1.72968-19.60075,2.92743S4.91429,22.45375,7.45773,29.98545v-0.00352c0,0.01057,0,0.02466,0,0.03523
		v-0.00352c-2.54345,7.53171-1.73321,14.94364,2.92743,19.60075s12.06904,5.47088,19.60075,2.92743h-0.00352
		c0.01057,0,0.02466,0,0.03523,0h-0.00352c7.53171,2.54345,14.94364,1.73321,19.60075-2.92743s5.47088-12.06904,2.92743-19.60075
		v0.00352c0-0.01057,0-0.02466,0-0.03523v0.00352c2.54345-7.5317,1.73321-14.94363-2.92743-19.60075
		S37.5458,4.91383,30.01409,7.45728z M11.63223,11.63177c3.27619-3.27619,8.12353-4.38938,13.39009-3.59676l0,0
		c-4.01597,0.90535-7.83466,2.89925-10.95937,6.02395s-5.1186,6.9434-6.02395,10.95937
		C7.24284,19.7553,8.35252,14.90796,11.63223,11.63177z M27.51996,7.60876c-0.03875,0.00352-0.08102,0.01057-0.11977,0.01761
		C27.43894,7.61933,27.48121,7.61228,27.51996,7.60876z M27.80883,18.42017c-2.25106,0.42273-4.40347,1.50071-6.14373,3.24448
		c-1.74377,1.74378-2.81822,3.89619-3.24448,6.14725l-7.82057-2.09606c0.7891-3.57914,2.55754-6.98919,5.34053-9.77219
		s6.19305-4.55143,9.77219-5.34053L27.80883,18.42017z M36.22828,23.77127c3.44175,3.44176,3.44175,9.01831,0,12.45655
		c-3.44176,3.43824-9.01832,3.44176-12.45655,0c-3.44176-3.44175-3.44176-9.01831,0-12.46007S32.79004,20.32952,36.22828,23.77127z
		 M7.6233,27.40326c-0.00352,0.03875-0.01057,0.0775-0.01409,0.11625C7.61273,27.48076,7.61978,27.44201,7.6233,27.40326z
		 M11.63223,48.36732c-3.27619-3.27618-4.38938-8.12353-3.59676-13.39008l0,0c0.90535,4.01597,2.89925,7.83466,6.02395,10.95937
		s6.9434,5.1186,10.95937,6.02395C19.75576,52.7567,14.90841,51.64703,11.63223,48.36732z M7.60921,32.47958
		c0.00352,0.04227,0.01409,0.08102,0.01761,0.1233C7.61978,32.56061,7.61273,32.51833,7.60921,32.47958z M27.40371,52.37624
		c0.03875,0.00352,0.0775,0.01057,0.11625,0.01762C27.48121,52.38681,27.44246,52.37976,27.40371,52.37624z M15.94059,44.05896
		c-0.21137-0.21137-0.39103-0.43682-0.59183-0.65524l5.7527-5.7527c0.19375,0.22546,0.34523,0.47205,0.56012,0.68694
		c3.30789,3.30789,8.08478,4.19916,12.22404,2.75481l2.10662,7.85932C29.14396,51.10804,21.36567,49.48404,15.94059,44.05896z
		 M32.59629,52.37624c-0.03875,0.00352-0.0775,0.01057-0.11625,0.01762C32.51879,52.38681,32.55754,52.37976,32.59629,52.37624z
		 M48.36777,48.36732c-3.27618,3.27619-8.12353,4.38939-13.39008,3.59324c4.01597-0.90535,7.83466-2.89925,10.95937-6.02395
		s5.1186-6.94692,6.02395-10.95937l0,0C52.75716,40.24379,51.64748,45.09114,48.36777,48.36732z M52.37317,32.59936
		c0.00352-0.04227,0.01409-0.08102,0.01762-0.1233C52.38726,32.51833,52.38022,32.56061,52.37317,32.59936z M48.94903,35.99179
		l-7.85932-2.10662c1.44434-4.13927,0.55307-8.91263-2.75481-12.22052c-0.21489-0.21489-0.46148-0.36637-0.68694-0.56012
		l5.7527-5.7527c0.21841,0.19728,0.44387,0.38046,0.65524,0.59183C49.48802,21.36521,51.10849,29.14703,48.94903,35.99179z
		 M52.3767,27.40326c0.00352,0.03875,0.01057,0.0775,0.01762,0.11625C52.38726,27.48076,52.38022,27.44201,52.3767,27.40326z
		 M51.96453,25.01834c-0.90535-4.01597-2.89925-7.83466-6.02395-10.95937s-6.94692-5.1186-10.95937-6.02395l0,0
		c5.26303-0.79263,10.11038,0.31705,13.39009,3.59676C51.64748,14.90796,52.75716,19.7553,51.96453,25.01834z M32.48004,7.60876
		c0.04227,0.00352,0.08102,0.01409,0.1233,0.01761C32.56106,7.61933,32.51879,7.61228,32.48004,7.60876z"/>
</g>
</svg>
