<?xml version="1.0" encoding="utf-8"?>
<!-- Generator: Adobe Illustrator 19.1.0, SVG Export Plug-In . SVG Version: 6.00 Build 0)  -->
<svg version="1.1" id="Layer_1" xmlns="http://www.w3.org/2000/svg" xmlns:xlink="http://www.w3.org/1999/xlink" x="0px" y="0px"
	 viewBox="0 0 60 60" style="enable-background:new 0 0 60 60;" xml:space="preserve">
<style type="text/css">
	.st0{fill:#FFFFFF;}
</style>
<g>
	<g>
		<circle class="st0" cx="29.5676" cy="13.56501" r="6.12"/>
		<path class="st0" d="M38.5676,20.76501c-1.8,2.52-5.4,4.32-9,4.32s-7.2-1.8-9-4.32v18.72c0,0,3.6,2.88,9,2.88s9-2.88,9-2.88
			V20.76501L38.5676,20.76501z"/>
		<path class="st0" d="M24.1676,45.20501v5.08c0,0,1.8,1.44,5.4,1.44s5.4-1.44,5.4-1.44v-5.08c0,0-2.16,1.12-5.4,1.12
			S24.1676,45.20501,24.1676,45.20501z"/>
	</g>
	<g>
		<g>
			<circle class="st0" cx="47.9124" cy="13.20901" r="4.68"/>
		</g>
		<path class="st0" d="M54.3676,32.6258v-14.0696c-1.3528,1.894-4.0584,3.2468-6.7644,3.2468c-1.312,0-2.6224-0.32-3.78-0.8636
			v13.2132c1.0456,0.3576,2.3236,0.6376,3.78,0.6376C51.662,34.79021,54.3676,32.6258,54.3676,32.6258z"/>
		<path class="st0" d="M51.662,40.74261v-3.818c0,0-1.6236,0.8416-4.0584,0.8416c-1.8424,0-3.2184-0.4812-3.78-0.716v3.8756
			c0.5216,0.3084,1.7804,0.8988,3.78,0.8988C50.3092,41.82501,51.662,40.74261,51.662,40.74261z"/>
	</g>
	<g>
		<g>
			<circle class="st0" cx="12.0876" cy="13.20901" r="4.68"/>
		</g>
		<path class="st0" d="M5.6324,32.6258v-14.0696c1.3528,1.894,4.0584,3.2468,6.7644,3.2468c1.312,0,2.6224-0.32,3.78-0.8636v13.2132
			c-1.0456,0.3576-2.3236,0.6376-3.78,0.6376C8.338,34.79021,5.6324,32.6258,5.6324,32.6258z"/>
		<path class="st0" d="M8.338,40.74261v-3.818c0,0,1.6236,0.8416,4.0584,0.8416c1.8424,0,3.2184-0.4812,3.78-0.716v3.8756
			c-0.5216,0.3084-1.7804,0.8988-3.78,0.8988C9.6908,41.82501,8.338,40.74261,8.338,40.74261z"/>
	</g>
</g>
</svg>
