<?xml version="1.0" encoding="utf-8"?>
<!-- Generator: Adobe Illustrator 19.1.0, SVG Export Plug-In . SVG Version: 6.00 Build 0)  -->
<svg version="1.1" id="Layer_1" xmlns="http://www.w3.org/2000/svg" xmlns:xlink="http://www.w3.org/1999/xlink" x="0px" y="0px"
	 viewBox="0 0 60 60" style="enable-background:new 0 0 60 60;" xml:space="preserve">
<style type="text/css">
	.st0{fill:#FFFFFF;}
</style>
<g>
	<path class="st0" d="M14.6935,46.66774c0.68688,0,1.24564,0.55876,1.24564,1.24564c0,0.68688-0.55876,1.24564-1.24564,1.24564
		c-0.68688,0-1.24564-0.55876-1.24564-1.24564C13.44785,47.22649,14.00661,46.66774,14.6935,46.66774 M14.6935,44.3544
		c-1.96455,0-3.55898,1.59442-3.55898,3.55898s1.59442,3.55898,3.55898,3.55898s3.55897-1.59442,3.55897-3.55898
		S16.66161,44.3544,14.6935,44.3544L14.6935,44.3544z"/>
	<path class="st0" d="M14.31624,42.57491c-1.77949,0-1.77949-3.20308,0-3.20308h18.50667l2.84718-6.40616H15.02804
		c-0.3559,0-0.71179-0.35589-0.71179-0.35589l-5.33846-13.88c-0.3559-1.06769,0.3559-2.49128,1.77949-2.49128h31.67487
		l3.20308-7.11795c0-0.3559,0.3559-0.3559,0.7118-0.3559h8.89743c2.49128,0,2.49128,3.20308,0,3.20308H48.4824L34.95829,42.21902
		c0,0.3559-0.3559,0.3559-0.71179,0.3559L14.31624,42.57491L14.31624,42.57491z M37.09368,29.40671l3.91488-9.60923H13.60445
		l3.91487,9.60923C17.16343,29.40671,37.09368,29.40671,37.09368,29.40671z"/>
	<path class="st0" d="M34.6024,46.66774c0.68688,0,1.24564,0.55876,1.24564,1.24564c0,0.68688-0.55876,1.24564-1.24564,1.24564
		c-0.68689,0-1.24564-0.55876-1.24564-1.24564C33.35676,47.22649,33.91552,46.66774,34.6024,46.66774 M34.6024,44.3544
		c-1.96456,0-3.55898,1.59442-3.55898,3.55898s1.59442,3.55898,3.55898,3.55898c1.96455,0,3.55897-1.59442,3.55897-3.55898
		S36.56696,44.3544,34.6024,44.3544L34.6024,44.3544z"/>
</g>
</svg>
