<?xml version="1.0" encoding="utf-8"?>
<!-- Generator: Adobe Illustrator 19.1.0, SVG Export Plug-In . SVG Version: 6.00 Build 0)  -->
<svg version="1.1" id="Layer_1" xmlns="http://www.w3.org/2000/svg" xmlns:xlink="http://www.w3.org/1999/xlink" x="0px" y="0px"
	 viewBox="0 0 60 60" style="enable-background:new 0 0 60 60;" xml:space="preserve">
<style type="text/css">
	.st0{fill:#FFFFFF;}
</style>
<g>
	<path class="st0" d="M47.28818,9.59995H12.71182c-1.72882,0-3.11187,1.38305-3.11187,3.11187v34.57635
		c0,1.72882,1.38305,3.11187,3.11187,3.11187h34.57635c1.72882,0,3.11187-1.38305,3.11187-3.11187V12.71182
		C50.40005,10.983,49.017,9.59995,47.28818,9.59995z M22.3932,42.79325h-5.53222V25.50507h5.53222L22.3932,42.79325z
		 M19.62709,23.08473c-1.72882,0-3.11187-1.38305-3.11187-2.76611c0-1.72882,1.38305-2.76611,3.11187-2.76611
		c1.72882,0,3.11187,1.38305,3.11187,2.76611S21.35591,23.08473,19.62709,23.08473z M43.48478,42.79325h-5.53222
		c0,0,0-3.8034,0-9.33561s-6.22374-4.14916-6.22374-0.69153v10.02715h-5.87798V25.50508h5.53222v2.76611
		c2.07458-4.84069,12.10173-4.84069,12.10173,4.49493S43.48478,42.79325,43.48478,42.79325z"/>
</g>
</svg>
