<?xml version="1.0" encoding="utf-8"?>
<!-- Generator: Adobe Illustrator 19.1.0, SVG Export Plug-In . SVG Version: 6.00 Build 0)  -->
<svg version="1.1" id="Layer_1" xmlns="http://www.w3.org/2000/svg" xmlns:xlink="http://www.w3.org/1999/xlink" x="0px" y="0px"
	 viewBox="0 0 60 60" style="enable-background:new 0 0 60 60;" xml:space="preserve">
<style type="text/css">
	.st0{fill:#FFFFFF;}
</style>
<g>
	<g>
		<path class="st0" d="M25.65453,28.66914c0-2.09952,4.54896-3.4992,5.59872-7.34832
			c1.39968-4.54896-0.34992-6.64848-3.14928-10.4976c3.14928,0.69984,4.19904,0,5.94864-1.7496
			c-12.59712-0.34992-25.89408,0-23.79456,13.29696c1.04976,3.84912,6.29856,6.29856,10.84752,5.94864
			c-1.7496,2.09952,1.04976,5.2488,0.34992,5.94864c-6.9984,0.34992-12.94704,2.09952-13.9968,6.64848
			c-3.4992,13.9968,30.09312,13.64688,25.54416-2.44944C32.30301,34.26786,25.30461,32.86818,25.65453,28.66914z M15.50685,13.27266
			c4.54896-6.9984,15.39648,3.14928,10.4976,12.2472C20.05581,31.4685,11.30781,19.57122,15.50685,13.27266z M23.2051,48.9645
			c-4.54896,0.34992-10.84752-1.39968-11.19744-5.94864c-0.69984-5.94864,3.84912-7.34832,9.44784-7.34832
			C30.20349,35.66754,33.70269,47.91474,23.2051,48.9645z"/>
		<polygon class="st0" points="47.69949,16.07202 42.80061,16.07202 42.80061,25.16994 34.05261,25.16994 34.05261,30.06882 
			42.80061,30.06882 42.80061,39.16674 47.69949,39.16674 47.69949,30.06882 56.79741,30.06882 56.79741,25.16994 
			47.69949,25.16994 		"/>
	</g>
</g>
<g>
	<path d="M324.06537,8.40467h-34.57635c-1.72882,0-3.11188,1.38305-3.11188,3.11187V46.0929
		c0,1.72882,1.38306,3.11187,3.11188,3.11187h34.57635c1.72882,0,3.11188-1.38305,3.11188-3.11187V11.51654
		C327.17725,9.78772,325.79419,8.40467,324.06537,8.40467z M299.17041,41.59797h-5.53223V24.30979h5.53223V41.59797z
		 M296.4043,21.88945c-1.72882,0-3.11188-1.38305-3.11188-2.76611c0-1.72882,1.38306-2.76611,3.11188-2.76611
		s3.11188,1.38305,3.11188,2.76611S298.13312,21.88945,296.4043,21.88945z M320.26196,41.59797h-5.5322c0,0,0-3.8034,0-9.33562
		s-6.22375-4.14916-6.22375-0.69153v10.02714h-5.87799V24.3098h5.53223v2.76611c2.07458-4.84069,12.10172-4.84069,12.10172,4.49493
		S320.26196,41.59797,320.26196,41.59797z"/>
</g>
<g>
	<path d="M218.73018,15.88775c0-1.10717,0.73811-1.84528,1.47623-1.84528h5.16679V6.66135h-9.59547
		c-3.3215,0-6.27396,2.58339-6.27396,6.27396l0,0v8.48829h-4.79773v7.38112h4.79773V50.9481h9.22641V28.80472h5.90491
		l0.73811-7.75018h-6.64302V15.88775z"/>
</g>
</svg>
