<?xml version="1.0" encoding="utf-8"?>
<!-- Generator: Adobe Illustrator 19.1.0, SVG Export Plug-In . SVG Version: 6.00 Build 0)  -->
<svg version="1.1" id="Layer_1" xmlns="http://www.w3.org/2000/svg" xmlns:xlink="http://www.w3.org/1999/xlink" x="0px" y="0px"
	 viewBox="0 0 60 60" style="enable-background:new 0 0 60 60;" xml:space="preserve">
<style type="text/css">
	.st0{fill:#FFFFFF;}
</style>
<g>
	<g>
		<path class="st0" d="M55.65,55.65H4.35V4.35H55.2v51.3H55.65z M6.6,53.4h46.35V6.6H6.6V53.4z"/>
		<g>
			<path class="st0" d="M36.3,29.55L25.5,18.3l7.2-7.2l10.8,10.8L36.3,29.55z M39.9,21.9l-7.2-6.75l-3.15,3.15l6.75,7.2L39.9,21.9z"
				/>
			<polygon class="st0" points="27.3,38.55 16.5,27.75 23.7,20.1 25.5,22.35 20.1,27.75 27.3,34.5 30.45,30.9 28.2,28.65 
				25.95,30.9 24.15,28.65 28.2,24.6 34.5,30.9 			"/>
		</g>
		<polygon class="st0" points="49.35,41.25 43.5,41.25 40.8,43.5 16.5,43.5 16.5,39.45 9.3,44.4 16.5,49.35 16.5,45.3 40.8,45.3 
			43.5,47.55 49.35,47.55 47.1,44.4 		"/>
	</g>
</g>
</svg>
