<?xml version="1.0" encoding="utf-8"?>
<!-- Generator: Adobe Illustrator 19.1.0, SVG Export Plug-In . SVG Version: 6.00 Build 0)  -->
<svg version="1.1" id="Layer_1" xmlns="http://www.w3.org/2000/svg" xmlns:xlink="http://www.w3.org/1999/xlink" x="0px" y="0px"
	 viewBox="0 0 147.21071 162.00647" style="enable-background:new 0 0 147.21071 162.00647;" xml:space="preserve">
<style type="text/css">
	.st0{fill:#E8ECC6;}
	.st1{fill:#78953D;}
	.st2{fill:#41591D;}
	.st3{fill:#B2C043;}
</style>
<g>
	<polygon class="st0" points="147.21603,125.56347 73.61068,162.55287 0.00533,125.56347 0.00533,37.5358 73.61068,0.5464 
		147.21603,37.5358 	"/>
	<g>
		<polygon class="st1" points="122.00315,107.04211 103.08506,71.90849 83.44767,83.71724 103.8501,118.16624 		"/>
		<polygon class="st1" points="29.4397,86.09715 49.03339,121.23068 67.52557,109.77467 48.65283,74.94779 		"/>
		<polygon class="st1" points="51.37292,74.84448 70.20359,109.59348 101.10468,118.32299 80.66763,83.81558 		"/>
		<path class="st2" d="M75.81225,25.96465c-13.35151,0-23.73544,10.87865-23.73544,23.73544
			c0,9.88995,5.93367,18.29649,14.34021,21.75805l9.88995,18.24242l10.38467-18.73715
			c7.91181-3.95628,13.35151-11.86809,13.35151-21.26332C99.54768,36.34933,89.16301,25.96465,75.81225,25.96465z
			 M75.81225,60.38129c-5.93367,0-10.68121-4.74693-10.68121-10.68121s4.74693-10.68121,10.68121-10.68121
			s10.68121,4.74694,10.68121,10.68121S81.74593,60.38129,75.81225,60.38129z"/>
		<g>
			
				<rect x="46.37823" y="100.00917" transform="matrix(-0.90933 -0.41608 0.41608 -0.90933 49.36885 214.03212)" class="st3" width="3.25454" height="3.25526"/>
			
				<rect x="48.748" y="94.82932" transform="matrix(-0.90933 -0.41608 0.41608 -0.90933 56.04893 205.12743)" class="st3" width="3.25454" height="3.25454"/>
			
				<rect x="51.11699" y="89.6495" transform="matrix(-0.90933 -0.41608 0.41608 -0.90933 62.72732 196.22316)" class="st3" width="3.25454" height="3.25454"/>
			<polygon class="st3" points="42.75461,109.97215 44.52777,113.15162 45.42354,111.1934 			"/>
			
				<rect x="44.00813" y="105.18915" transform="matrix(-0.90941 -0.4159 0.4159 -0.90941 42.71328 222.93681)" class="st3" width="3.25599" height="3.25493"/>
			<polygon class="st3" points="53.63432,85.41988 52.95724,86.90039 55.84635,88.22236 54.19319,85.17173 			"/>
			<polygon class="st3" points="56.8414,84.93571 57.06025,85.33961 57.1564,85.03524 			"/>
			
				<rect x="68.98445" y="89.33204" transform="matrix(0.95361 0.30106 -0.30106 0.95361 30.65538 -17.0084)" class="st3" width="3.05675" height="3.2553"/>
			
				<rect x="63.88253" y="87.72143" transform="matrix(-0.95363 -0.30098 0.30098 -0.95363 100.89704 194.24219)" class="st3" width="3.05751" height="3.25482"/>
			<polygon class="st3" points="62.25755,86.64609 59.34261,85.72583 58.57915,88.14249 59.0734,89.0545 61.27689,89.75016 			"/>
			<polygon class="st3" points="73.66618,93.66244 74.87411,94.04389 75.8047,94.89978 76.90614,93.70218 76.19887,91.04869 
				74.64683,90.55836 74.26537,91.7655 73.40948,92.69688 73.84498,93.09741 			"/>
			
				<rect x="71.32292" y="94.61999" transform="matrix(-0.73579 -0.6772 0.6772 -0.73579 61.88757 215.34151)" class="st3" width="3.25527" height="1.95666"/>
			<polygon class="st3" points="72.44393,98.11749 71.19388,97.30691 70.0972,96.29685 68.99496,97.49445 69.30648,99.96198 
				70.67177,100.84807 71.48315,99.59721 72.49241,98.50134 72.30645,98.32968 			"/>
			<polygon class="st3" points="89.45829,109.15441 88.47212,108.51448 86.69995,111.24505 89.37092,112.97828 91.12243,110.27959 
				90.24905,110.72055 			"/>
			
				<rect x="73.30473" y="100.0211" transform="matrix(-0.83886 -0.54435 0.54435 -0.83886 82.39237 227.68761)" class="st3" width="3.18405" height="3.25524"/>
			
				<rect x="77.97992" y="103.05365" transform="matrix(-0.83886 -0.54435 0.54435 -0.83886 89.33862 235.80898)" class="st3" width="3.18405" height="3.25524"/>
			
				<rect x="82.65437" y="106.0862" transform="matrix(-0.83893 -0.54423 0.54423 -0.83893 96.30264 243.9285)" class="st3" width="3.18471" height="3.25524"/>
			<polygon class="st3" points="92.49963,112.54358 91.43951,113.0792 91.75182,113.69748 91.37514,114.2784 92.74043,115.16369 
				95.07841,113.0649 94.34491,111.6122 93.72664,111.92451 93.14571,111.54783 			"/>
			
				<rect x="86.50223" y="101.15012" transform="matrix(-0.89266 0.45073 -0.45073 -0.89266 213.18448 155.05438)" class="st3" width="3.25476" height="3.52273"/>
			
				<rect x="83.72398" y="95.64687" transform="matrix(-0.89266 0.45073 -0.45073 -0.89266 205.44572 145.89081)" class="st3" width="3.25476" height="3.52273"/>
			<polygon class="st3" points="89.45829,109.15441 91.14309,110.24771 91.12243,110.27959 93.15446,109.25355 91.56666,106.10894 
				88.66125,107.57594 			"/>
			<polygon class="st3" points="89.45829,109.15441 90.24905,110.72055 91.12243,110.27959 91.14309,110.24771 			"/>
			<polygon class="st3" points="84.81971,92.74377 84.57256,92.25345 84.92699,91.83385 82.44278,89.73109 81.3914,90.9732 
				81.1808,92.75808 81.91431,94.21078 			"/>
			<polygon class="st3" points="86.9781,84.37008 85.92671,85.61298 88.41252,87.71574 88.55318,87.54886 88.73755,87.66409 
				90.46362,84.90491 89.08404,84.04187 			"/>
			
				<rect x="95.75111" y="89.61638" transform="matrix(0.52978 -0.84814 0.84814 0.52978 -31.51407 125.44865)" class="st3" width="3.2551" height="3.05773"/>
			
				<rect x="103.80112" y="96.62074" transform="matrix(0.68202 -0.73133 0.73133 0.68202 -38.25561 108.31271)" class="st3" width="3.25558" height="3.05708"/>
			<polygon class="st3" points="108.1265,111.12982 108.31643,114.18144 110.5825,114.04059 111.53271,113.45837 
				111.37521,110.92796 			"/>
			
				<rect x="107.8857" y="105.68636" transform="matrix(0.99804 -0.0625 0.0625 0.99804 -6.48683 7.05417)" class="st3" width="3.25507" height="3.05758"/>
			<polygon class="st3" points="110.79031,101.53627 110.27615,100.44754 109.33284,99.56702 107.11246,101.94633 
				107.58213,102.385 107.65127,103.50155 110.89998,103.2997 			"/>
			
				<rect x="91.31282" y="86.68181" transform="matrix(-0.84797 -0.53005 0.53005 -0.84797 124.75973 212.4039)" class="st3" width="3.05706" height="3.25594"/>
			
				<rect x="99.89007" y="92.97034" transform="matrix(0.68253 -0.73086 0.73086 0.68253 -36.8363 104.1962)" class="st3" width="3.2555" height="3.05704"/>
		</g>
		<polygon class="st3" points="79.72807,83.52785 76.30699,89.70055 71.61329,81.04281 66.56806,79.49776 73.05521,91.46351 
			76.27123,97.39558 79.54226,91.49363 82.28454,86.54571 80.66761,83.81557 		"/>
	</g>
</g>
</svg>
