<?xml version="1.0" encoding="utf-8"?>
<!-- Generator: Adobe Illustrator 19.1.0, SVG Export Plug-In . SVG Version: 6.00 Build 0)  -->
<svg version="1.1" id="Layer_1" xmlns="http://www.w3.org/2000/svg" xmlns:xlink="http://www.w3.org/1999/xlink" x="0px" y="0px"
	 viewBox="0 0 200 100" style="enable-background:new 0 0 200 100;" xml:space="preserve">
<style type="text/css">
	.st0{fill:none;}
	.st1{fill:#FFFFFF;}
	.st2{opacity:0.2;fill:#FFFFFF;}
	.st3{opacity:0.8;fill:#FFFFFF;}
	.st4{opacity:0.4;fill:#FFFFFF;}
	.st5{opacity:0.6;fill:#FFFFFF;}
</style>
<g>
	<path class="st0" d="M137.47992,59.78295c4.41368,0,8.0074-3.59248,8.0074-8.00852c0-4.4171-3.59372-8.00622-8.0074-8.00622
		c-4.41829,0-8.00964,3.58912-8.00964,8.00622C129.47028,56.19046,133.06163,59.78295,137.47992,59.78295z"/>
	<path class="st0" d="M96.10989,60.1474c4.4148,0,8.00852-3.58905,8.00852-8.00622c0-4.41598-3.59372-8.00734-8.00852-8.00734
		c-4.41367,0-8.0051,3.59136-8.0051,8.00734C88.1048,56.55834,91.69622,60.1474,96.10989,60.1474z"/>
	<path class="st1" d="M164.99191,73.58683H81.48836c-4.41604,0-8.00622-3.59484-8.00622-8.0097V51.40767h-0.015
		c-0.38754-10.13405-8.75242-18.25901-18.97988-18.25901c-4.13544,0-6.90047,0.87015-8.82044,2.11974
		c-2.60991-1.35252-5.57015-2.11974-8.70743-2.11974c-10.22746,0-18.59234,8.12497-18.9787,18.25901h-0.0127v14.16946
		c0,0-0.0473,5.49203,5.44585,5.49203c5.49203,0,5.53933-5.49203,5.53933-5.49203V52.14118
		c0-4.41598,3.59254-8.00734,8.00622-8.00734c4.41598,0,8.00852,3.59136,8.00852,8.00734v13.86849
		c0,0-0.04499,5.05949,5.44703,5.05949c5.53815,0,5.53815-5.05949,5.53815-5.05949V51.40767h-0.01382
		c-0.0992-2.58883-0.72169-5.04479-1.75996-7.26952c0.1018-0.00171,0.19864-0.00431,0.30794-0.00431
		c4.41486,0,8.0097,3.59136,8.0097,8.00734v13.86849h0.00225c0.2307,10.27128,8.66131,18.56235,18.98915,18.56235h83.50356
		c0,0,5.49432,0,5.49432-5.49315C170.48624,73.58683,164.99191,73.58683,164.99191,73.58683z M66.8541,51.77443h1.83145v1.69305
		H66.8541V51.77443z M66.8541,56.39572h1.83145v2.93172H66.8541V56.39572z M66.8541,62.25793h1.83145v2.92824H66.8541V62.25793z
		 M67.96358,71.12915c-0.4025-0.95612-0.6989-1.96638-0.88228-2.99165l1.80146-0.32294
		c0.16031,0.89265,0.4198,1.77265,0.7704,2.60991L67.96358,71.12915z M71.53187,76.20713
		c-0.7681-0.70351-1.46121-1.49123-2.05978-2.34584l1.49586-1.05408c0.5247,0.74621,1.12907,1.43472,1.80029,2.04942
		L71.53187,76.20713z M76.90167,79.31872c-0.99073-0.31485-1.9537-0.74042-2.85561-1.26518l0.91692-1.58228
		c0.78883,0.45668,1.62727,0.82804,2.49228,1.1002L76.90167,79.31872z M82.97031,79.99223h-1.69878
		c-0.43826,0-0.8777-0.01842-1.309-0.05651l0.16262-1.82449c0.37709,0.0323,0.76232,0.0519,1.14638,0.0519h1.69878V79.99223z
		 M88.83028,79.99223h-2.93054v-1.8291h2.93054V79.99223z M94.68788,79.99223h-2.92943v-1.8291h2.92943V79.99223z
		 M100.54548,79.99223h-2.92936v-1.8291h2.92936V79.99223z M106.40539,79.99223h-2.93055v-1.8291h2.93055V79.99223z
		 M112.26535,79.99223h-2.93172v-1.8291h2.93172V79.99223z M118.12177,79.99223h-2.92593v-1.8291h2.92593V79.99223z
		 M123.98286,79.99223h-2.93054v-1.8291h2.93054V79.99223z M129.83934,79.99223h-2.93055v-1.8291h2.93055V79.99223z
		 M135.69923,79.99223H132.771v-1.8291h2.92824V79.99223z M141.55801,79.99223h-2.92824v-1.8291h2.92824V79.99223z
		 M147.41675,79.99223h-2.93048v-1.8291h2.93048V79.99223z M153.27322,79.99223h-2.92824v-1.8291h2.92824V79.99223z
		 M159.13548,79.99223h-2.92824v-1.8291h2.92824V79.99223z M164.99191,79.99223h-2.92824v-1.8291h2.92824V79.99223z"/>
	<path class="st1" d="M96.10989,71.13258c10.47429,0,18.99483-8.51941,18.99483-18.9914
		c0-10.47311-8.52054-18.99252-18.99483-18.99252c-10.47198,0-18.99258,8.51941-18.99258,18.99252
		C77.11732,62.61317,85.63791,71.13258,96.10989,71.13258z M96.10989,44.13384c4.4148,0,8.00852,3.59136,8.00852,8.00734
		c0,4.41716-3.59372,8.00622-8.00852,8.00622c-4.41367,0-8.0051-3.58905-8.0051-8.00622
		C88.1048,47.7252,91.69622,44.13384,96.10989,44.13384z"/>
	<path class="st1" d="M164.99191,33.14866c-5.49203,0-5.49203,5.49203-5.49203,5.49203v23.76144h10.98636V38.64069
		C170.48624,38.64069,170.48624,33.14866,164.99191,33.14866z"/>
	<circle class="st1" cx="164.99191" cy="23.46611" r="5.49261"/>
	<path class="st1" d="M159.50337,65.61404c0.11531,2.92824,2.53036,5.27059,5.48854,5.27059
		c2.94785,0,5.35019-2.31815,5.48743-5.22902c0.00342-0.08769,0.0069-0.26183,0.0069-0.26183h-10.98636
		C159.49988,65.39378,159.50337,65.54022,159.50337,65.61404z"/>
	<path class="st1" d="M137.47992,70.76701c10.47081,0,18.99258-8.51829,18.99258-18.99258
		c0-10.47192-8.52177-18.9937-18.99258-18.9937c-2.86015,0-5.57387,0.64009-8.00964,1.77838V23.46438
		c0,0-0.11998-5.49087-5.49091-5.49087c-5.37322,0-5.49315,5.49087-5.49315,5.49087v28.6768h0.00921
		C118.68805,62.44594,127.12904,70.76701,137.47992,70.76701z M137.47992,43.76821c4.41368,0,8.0074,3.58912,8.0074,8.00622
		c0,4.41604-3.59372,8.00852-8.0074,8.00852c-4.41829,0-8.00964-3.59248-8.00964-8.00852
		C129.47028,47.35733,133.06163,43.76821,137.47992,43.76821z"/>
	<path class="st2" d="M68.88276,67.81455L67.0813,68.1375c0.18338,1.02527,0.47977,2.03554,0.88228,2.99165l1.68958-0.70469
		C69.30256,69.5872,69.04307,68.7072,68.88276,67.81455z"/>
	<rect x="66.8541" y="51.77443" class="st3" width="1.83145" height="1.69305"/>
	<rect x="66.8541" y="62.25793" class="st4" width="1.83145" height="2.92824"/>
	<rect x="66.8541" y="56.39572" class="st5" width="1.83145" height="2.93172"/>
	<g>
		<path class="st1" d="M185.27211,22.09066c-2.60353,0-4.64314-2.00213-4.64314-4.55784c0-2.48191,2.08284-4.50103,4.64314-4.50103
			c2.58746,0,4.6144,1.97702,4.6144,4.50103C189.88651,20.08853,187.85957,22.09066,185.27211,22.09066z M185.27211,13.67188
			c-2.10126,0-3.7476,1.69589-3.7476,3.86094c0,2.20107,1.62326,3.86096,3.77589,3.86096c2.06961,0,3.69055-1.68353,3.69055-3.83271
			C188.99095,15.34385,187.3925,13.67188,185.27211,13.67188z M186.45546,19.82298c-0.07901-0.1407-0.1488-0.41548-0.22841-0.72975
			l-0.07494-0.29322c-0.09572-0.57665-0.44806-0.84797-1.10657-0.84797h-0.65799v1.87094h-0.78192v-4.37851
			c0.43878-0.07641,1.00336-0.11674,1.63824-0.11674c0.82344,0,1.21158,0.12802,1.54196,0.31999
			c0.2272,0.1788,0.37944,0.53141,0.37944,0.89297c0,0.41836-0.32866,0.77704-0.85863,0.9359l-0.05251,0.01586l-0.05243,0.07064
			v0.10582l0.0594,0.11475c0.4388,0.18021,0.66542,0.48756,0.79404,1.05729c0.0986,0.4916,0.17242,0.78569,0.24736,0.98204
			H186.45546z M185.15855,15.79794c-0.33504,0-0.53917,0.03838-0.63087,0.06115l-0.05592,0.01383l-0.05591,0.07151v1.53764h0.65791
			c0.76694,0,1.22479-0.30966,1.22479-0.82807C186.29855,16.118,185.87241,15.79794,185.15855,15.79794z"/>
	</g>
</g>
</svg>
