<?xml version="1.0" encoding="utf-8"?>
<!-- Generator: Adobe Illustrator 19.1.0, SVG Export Plug-In . SVG Version: 6.00 Build 0)  -->
<svg version="1.1" id="Layer_1" xmlns="http://www.w3.org/2000/svg" xmlns:xlink="http://www.w3.org/1999/xlink" x="0px" y="0px"
	 viewBox="0 0 147.21071 162.00647" style="enable-background:new 0 0 147.21071 162.00647;" xml:space="preserve">
<style type="text/css">
	.st0{fill:#E2EBF3;}
	.st1{fill:#214E69;}
	.st2{fill:#4384AE;}
	.st3{fill:#A0BDD7;}
</style>
<polygon class="st0" points="147.21071,125.01706 73.60535,162.00647 0,125.01706 0,36.9894 73.60535,0 147.21071,36.9894 "/>
<path class="st1" d="M75.88207,126.71008v6.2831c0,0,2.2263,1.78105,6.67889,1.78105s6.6789-1.78105,6.6789-1.78105v-6.2831
	c0,0-2.67156,1.38525-6.6789,1.38525S75.88207,126.71008,75.88207,126.71008z"/>
<g>
	<rect x="46.94374" y="35.75376" class="st2" width="6.6219" height="15.65178"/>
	<rect x="85.47119" y="35.75376" class="st2" width="6.62191" height="15.65178"/>
	<path class="st2" d="M95.10306,45.98762v10.23385H82.46124V45.98762h-6.62191v10.23385H63.7995V45.98762l0,0h-7.2239v10.23385
		H43.93378V45.98762h-9.02987v69.83101h69.22902V45.98762H95.10306z M97.51102,107.39074H42.12781V71.27126h55.23075
		L97.51102,107.39074L97.51102,107.39074z"/>
	<rect x="66.20747" y="35.75376" class="st2" width="6.62191" height="15.65178"/>
</g>
<polygon class="st3" points="97.61897,115.37989 97.35856,71.37989 42.33697,71.37989 42.33697,84.37989 35.33697,84.37989 
	35.33697,88.37989 42.33697,88.37989 42.33697,94.37989 35.33697,94.37989 35.33697,98.37989 42.33697,98.37989 42.33697,107.37989 
	68.33698,107.37989 68.33698,115.37989 "/>
<circle class="st1" cx="82.56097" cy="87.57668" r="7.56942"/>
<path class="st1" d="M93.69247,96.48187c-2.2263,3.11682-6.6789,5.34312-11.1315,5.34312s-8.9052-2.2263-11.13149-5.34312v23.15351
	c0,0,4.4526,3.56208,11.13149,3.56208c6.6789,0,11.1315-3.56208,11.1315-3.56208V96.48187L93.69247,96.48187z"/>
<polygon class="st1" points="51.33697,99.6227 62.32778,91.0499 51.33697,82.4771 51.33697,88.37989 27.33697,88.37989 
	27.33697,82.4771 16.34616,91.0499 27.33697,99.6227 27.33697,94.37989 51.33697,94.37989 "/>
</svg>
