<?xml version="1.0" encoding="utf-8"?>
<!-- Generator: Adobe Illustrator 19.1.0, SVG Export Plug-In . SVG Version: 6.00 Build 0)  -->
<svg version="1.1" id="Layer_1" xmlns="http://www.w3.org/2000/svg" xmlns:xlink="http://www.w3.org/1999/xlink" x="0px" y="0px"
	 viewBox="0 0 326.59473 168.68933" style="enable-background:new 0 0 326.59473 168.68933;" xml:space="preserve">
<style type="text/css">
	.st0{fill:#FFFFFF;}
	.st1{fill:#4384AF;}
	.st2{fill:#F7F8F8;}
</style>
<polygon class="st0" points="326.59473,109.24915 163.29736,168.68933 0,109.24915 0,168.68933 326.59473,168.68933 "/>
<path class="st1" d="M184.16016,46.80377c0.7345-0.56281,1.18719-1.35156,1.18719-2.25378v-5.84998h3.60004
	c1.34998,0,2.25-0.90002,2.25-1.80005l-1.35004-15.29999c0-2.25-4.5-3.59998-4.5-3.59998l-7.64996-16.65002
	C176.79736,0,176.79736,0,175.44739,0h-24.30005c-1.34998,0-1.34998,0-2.25,1.34998l-7.64996,17.10004
	c0,0-4.95001,0.89996-4.95001,3.59998l-0.90002,14.84998c0,0.90002,0.90002,1.80005,2.25,1.80005h4.05005v5.84998
	c0,0.90222,0.45276,1.69098,1.18726,2.25378H0V113.039l163.29736,55.65033L326.59473,113.039V46.80377H184.16016z M187.59735,27
	c-0.45001,3.14996-2.25,4.95001-4.95001,4.95001c-2.69995,0-4.94995-2.25-4.94995-4.95001s2.25-4.95001,4.94995-4.95001
	C185.34735,22.04999,187.59735,24.29999,187.59735,27z M151.14734,4.5c0-0.90002,0.90002-1.35004,2.25-1.35004h19.80005
	c0.89996,0,1.79999,0.45001,2.25,1.35004l4.94995,12.14996c0,0.90002-0.44995,1.35004-1.79999,1.35004h-30.14996
	c-0.90002,0-1.80005-0.90002-1.80005-1.35004L151.14734,4.5z M138.99738,27c0-2.70001,2.25-4.95001,4.95001-4.95001
	c2.69995,0,4.94995,2.25,4.94995,4.95001c0,3.14996-2.25,4.95001-4.94995,4.95001
	C141.24738,31.95001,138.99738,29.70001,138.99738,27z M148.61017,46.80377c0.7345-0.56281,1.18719-1.35156,1.18719-2.25378
	v-5.84998h27.45001v5.84998c0,0.90222,0.45276,1.69098,1.18726,2.25378H148.61017z"/>
<g>
	<path class="st2" d="M137.16803,103.85553c-0.68994,0-1.22998-0.54004-1.22998-1.22949V86.96686l-2.64014,2.78906
		c-0.20996,0.21094-0.44971,0.30078-0.71973,0.30078c-0.54004,0-1.08008-0.4502-1.08008-1.08008
		c0-0.27051,0.08984-0.54004,0.30029-0.75l4.22949-4.32031c0.24023-0.26953,0.6001-0.38965,0.99023-0.38965
		c0.75,0,1.40967,0.57031,1.40967,1.34961v17.75977C138.4278,103.31549,137.88776,103.85553,137.16803,103.85553z"/>
	<path class="st2" d="M148.08795,97.40631h-5.64014c-0.53955,0-0.95996-0.41992-0.95996-1.02051
		c0-0.54004,0.42041-0.95996,0.95996-0.95996h5.64014c0.54004,0,0.95996,0.41992,0.95996,0.95996
		C149.04791,96.98639,148.62799,97.40631,148.08795,97.40631z"/>
	<path class="st2" d="M156.33746,103.85553c-0.68994,0-1.22998-0.54004-1.22998-1.22949V86.96686l-2.64014,2.78906
		c-0.20996,0.21094-0.44971,0.30078-0.71973,0.30078c-0.54004,0-1.08008-0.4502-1.08008-1.08008
		c0-0.27051,0.08984-0.54004,0.2998-0.75l4.22998-4.32031c0.24023-0.26953,0.6001-0.38965,0.99023-0.38965
		c0.75,0,1.40967,0.57031,1.40967,1.34961v17.75977C157.59723,103.31549,157.05719,103.85553,156.33746,103.85553z"/>
	<path class="st2" d="M168.96686,104.03619c-2.91016,0-4.94971-0.90039-6.47998-2.52051
		c-0.20996-0.20996-0.2998-0.47949-0.2998-0.7793c0-0.51074,0.41992-1.16992,1.08008-1.16992
		c0.26953,0,0.56982,0.08984,0.77979,0.2998c1.29004,1.29004,2.84961,1.94922,4.91992,1.94922
		c2.72949,0,4.61914-1.85938,4.61914-4.28906c0-2.64062-1.88965-4.32031-4.58984-4.32031c-1.5,0-2.96973,0.48047-4.13965,1.44043
		c-0.2998,0.23926-0.65967,0.38965-1.01953,0.38965c-0.68994,0-1.29004-0.50977-1.29004-1.22949v-8.33984
		c0-0.99023,0.81006-1.7998,1.7998-1.7998h9.53906c0.60059,0,1.08008,0.47949,1.08008,1.13965
		c0,0.59961-0.47949,1.08008-1.08008,1.08008h-8.84961v6.95996c0.95996-0.95996,2.66992-1.80078,4.68066-1.80078
		c3.3291,0,6.35938,2.28027,6.35938,6.38965C176.07623,101.51569,172.98639,104.03619,168.96686,104.03619z"/>
	<path class="st2" d="M186.81647,104.03619c-5.49023,0-7.65039-5.49023-7.65039-10.34961
		c0-4.88965,2.16016-10.32031,7.65039-10.32031c5.45898,0,7.64941,5.43066,7.64941,10.32031
		C194.46588,98.54596,192.27545,104.03619,186.81647,104.03619z M186.81647,85.58698c-3.81055,0-5.10059,4.10938-5.10059,8.09961
		c0,3.98926,1.29004,8.12891,5.10059,8.12891c3.80957,0,5.09961-4.13965,5.09961-8.12891
		C191.91608,89.69635,190.62604,85.58698,186.81647,85.58698z"/>
	<path class="st2" d="M139.44635,118.45905l-3.56934,8.60742c-0.18896,0.44141-0.62988,0.73535-1.15479,0.73535h-0.021
		c-0.48291,0-0.90283-0.29395-1.0918-0.73535l-3.56934-8.60742c-0.04199-0.08398-0.06299-0.18945-0.06299-0.27344
		c0-0.39844,0.33594-0.77734,0.79785-0.77734c0.31494,0,0.60889,0.16797,0.73486,0.4834l3.2334,7.95801l3.2124-7.95801
		c0.12598-0.29395,0.41992-0.4834,0.73486-0.4834c0.46191,0,0.81885,0.35742,0.81885,0.77734
		C139.50934,118.26959,139.48834,118.37506,139.44635,118.45905z"/>
	<path class="st2" d="M149.86237,123.1192h-7.32764c0.12598,1.91113,1.46973,3.50684,3.65332,3.50684
		c0.96582,0,1.93164-0.31543,2.72949-0.94434c0.10498-0.06348,0.23096-0.10547,0.35693-0.10547
		c0.27295,0,0.62988,0.25195,0.62988,0.65039c0,1.0918-2.62451,1.70117-3.86328,1.70117c-3.00244,0-5.16504-2.16211-5.16504-5.33301
		c0-2.93945,2.09961-5.31152,4.99707-5.31152c2.51953,0,4.17822,1.5957,4.70312,3.92578
		c0.06299,0.31445,0.14697,0.69336,0.14697,1.0498C150.72321,122.72076,150.34528,123.1192,149.86237,123.1192z
		 M145.85211,118.58405c-2.1626,0-3.2334,1.82715-3.31738,3.38086h6.65576
		C149.16949,120.45319,148.16168,118.58405,145.85211,118.58405z"/>
	<path class="st2" d="M160.92926,127.80182c-0.41992,0-0.77686-0.35645-0.77686-0.77637v-6.02637
		c0-1.78418-0.92383-2.30957-2.28857-2.30957c-1.21777,0-2.39355,0.75586-3.00244,1.57422v6.76172
		c0,0.41992-0.35693,0.77637-0.79785,0.77637c-0.41992,0-0.77686-0.35645-0.77686-0.77637v-12.72461
		c0-0.39844,0.35693-0.75586,0.81885-0.75586c0.39893,0,0.75586,0.35742,0.75586,0.75586v4.70312
		c0.71387-0.83984,2.09961-1.7207,3.63232-1.7207c2.12061,0,3.2334,1.02832,3.2334,3.23242v6.50977
		C161.72711,127.44537,161.37018,127.80182,160.92926,127.80182z"/>
	<path class="st2" d="M166.72565,115.03619c0,0.58789-0.48242,1.0498-1.07031,1.0498c-0.56738,0-1.0498-0.46191-1.0498-1.0498
		s0.48242-1.07129,1.0498-1.07129C166.24323,113.9649,166.72565,114.4483,166.72565,115.03619z M165.65533,127.80182
		c-0.41992,0-0.77734-0.35645-0.77734-0.77637v-8.86133c0-0.39844,0.35742-0.75586,0.81934-0.75586
		c0.39844,0,0.75586,0.35742,0.75586,0.75586v8.86133C166.45319,127.44537,166.09576,127.80182,165.65533,127.80182z"/>
	<path class="st2" d="M177.41315,126.60553c-0.77637,0.79688-1.80566,1.32227-3.33789,1.32227
		c-3.02344,0-5.06055-2.30957-5.06055-5.33301c0-3.00293,2.03711-5.31152,5.06055-5.31152
		c1.53223,0,2.56152,0.52441,3.33789,1.32227c0.10547,0.12598,0.16797,0.27344,0.16797,0.44141
		c0,0.35645-0.31445,0.71289-0.71387,0.71289c-0.20996,0-0.39844-0.08398-0.5459-0.23047
		c-0.6084-0.58789-1.32227-0.83984-2.16211-0.83984c-2.16309,0-3.50684,1.6582-3.50684,3.90527s1.34375,3.92676,3.50684,3.92676
		c0.83984,0,1.55371-0.27344,2.16211-0.86133c0.14746-0.12598,0.33594-0.18945,0.52539-0.18945
		c0.37793,0,0.73438,0.29492,0.73438,0.69336C177.58112,126.31061,177.53912,126.47858,177.41315,126.60553z"/>
	<path class="st2" d="M180.77448,127.80182c-0.41992,0-0.77637-0.35645-0.77637-0.77637v-12.72461
		c0-0.39844,0.35645-0.75586,0.81836-0.75586c0.39941,0,0.75586,0.35742,0.75586,0.75586v12.72461
		C181.57233,127.44537,181.21588,127.80182,180.77448,127.80182z"/>
	<path class="st2" d="M193.12115,123.1192h-7.32812c0.12598,1.91113,1.46973,3.50684,3.65332,3.50684
		c0.96582,0,1.93164-0.31543,2.72949-0.94434c0.10547-0.06348,0.23145-0.10547,0.35742-0.10547
		c0.27246,0,0.62988,0.25195,0.62988,0.65039c0,1.0918-2.625,1.70117-3.86328,1.70117c-3.00293,0-5.16504-2.16211-5.16504-5.33301
		c0-2.93945,2.09961-5.31152,4.99707-5.31152c2.51953,0,4.17773,1.5957,4.70312,3.92578
		c0.0625,0.31445,0.14648,0.69336,0.14648,1.0498C193.98151,122.72076,193.60358,123.1192,193.12115,123.1192z M189.11041,118.58405
		c-2.16211,0-3.2334,1.82715-3.31738,3.38086h6.65625C192.4278,120.45319,191.41998,118.58405,189.11041,118.58405z"/>
	<path class="st2" d="M199.75787,127.9278c-1.42773,0-2.72949-0.37793-3.7793-1.30176
		c-0.14746-0.12598-0.23145-0.29395-0.23145-0.4834c0-0.37695,0.31543-0.67188,0.71387-0.67188
		c0.16797,0,0.31543,0.04297,0.46191,0.14746c0.73535,0.58789,1.78516,1.02832,2.89746,1.02832
		c1.55371,0,2.39355-0.73438,2.39355-1.74219c0-2.45703-6.27734-0.94531-6.27734-4.70312c0-1.57422,1.36426-2.91797,3.7793-2.91797
		c1.46973,0,2.56152,0.44043,3.44336,1.19629c0.14648,0.12598,0.20996,0.29395,0.20996,0.46191
		c0,0.35742-0.29395,0.62988-0.62988,0.62988c-0.14746,0-0.29395-0.04199-0.41992-0.14746
		c-0.65137-0.50391-1.5752-0.86035-2.60352-0.86035c-1.38574,0-2.24707,0.69238-2.24707,1.5957
		c0,2.22559,6.27832,0.75586,6.27832,4.70312C203.74713,126.56256,202.3819,127.9278,199.75787,127.9278z"/>
</g>
</svg>
